<svg xmlns="http://www.w3.org/2000/svg" viewBox="0 0 1249.07 786.55"><defs><style>.cls-1{fill:#f7ba17;}.cls-2{fill:#f27921;}.cls-3{fill:#f79a22;}.cls-4{fill:#5e65ae;}.cls-5{fill:#5357a5;}.cls-6{fill:#6750a1;}.cls-7{fill:#7256a4;}.cls-8{fill:#4f7dbf;}.cls-9{fill:#f15a27;}.cls-10{fill:#ec1e6e;}</style></defs><g id="Layer_2" data-name="Layer 2"><g id="Layer_1-2" data-name="Layer 1"><polygon class="cls-1" points="0 786.55 173.47 728.34 214.39 754.33 0 786.55"/><polygon class="cls-2" points="0 786.55 214.39 754.33 265.15 786.55 0 786.55"/><polygon class="cls-3" points="214.39 754.33 445.89 719.53 265.15 786.55 214.39 754.33"/><polygon class="cls-2" points="265.15 786.55 445.89 719.53 511.77 727.35 265.15 786.55"/><polygon class="cls-3" points="265.15 786.55 511.77 727.35 567.08 733.93 265.15 786.55"/><polygon class="cls-4" points="265.15 786.55 567.08 733.93 635.78 742.09 554.16 786.55 265.15 786.55"/><polygon class="cls-3" points="520.99 708.54 508.77 691.42 758.66 629.36 520.99 708.54"/><polygon class="cls-1" points="567.08 733.93 511.77 727.35 781.79 662.54 690.11 712.49 567.08 733.93"/><polygon class="cls-1" points="558.27 656.96 821.95 561.28 746.86 614.07 558.27 656.96"/><polygon class="cls-1" points="554.16 786.55 635.78 742.09 654.56 744.33 554.16 786.55"/><polygon class="cls-5" points="554.16 786.55 654.56 744.33 771.1 758.17 716.57 786.55 554.16 786.55"/><polygon class="cls-6" points="567.08 733.93 690.11 712.49 635.78 742.09 567.08 733.93"/><polygon class="cls-7" points="635.78 742.09 690.11 712.49 758.66 700.55 654.56 744.33 635.78 742.09"/><polygon class="cls-8" points="654.56 744.33 758.66 700.55 804.88 740.6 771.1 758.17 654.56 744.33"/><polygon class="cls-5" points="690.11 712.49 781.79 662.54 938.35 624.97 758.66 700.55 690.11 712.49"/><polygon class="cls-4" points="716.57 786.55 771.1 758.17 833.75 765.61 716.57 786.55"/><polygon class="cls-5" points="716.57 786.55 833.75 765.61 1009.95 786.55 716.57 786.55"/><polygon class="cls-5" points="804.88 740.6 758.66 700.55 943.95 668.25 804.88 740.6"/><polygon class="cls-4" points="758.66 700.55 938.35 624.98 982.74 648.07 943.95 668.25 758.66 700.55"/><polygon class="cls-5" points="771.1 758.17 804.88 740.6 833.75 765.61 771.1 758.17"/><polygon class="cls-9" points="781.79 662.54 903.43 596.3 955.86 599.14 938.35 624.98 781.79 662.54"/><polygon class="cls-8" points="804.88 740.6 943.95 668.25 983.37 738.88 833.75 765.61 804.88 740.6"/><polygon class="cls-4" points="833.75 765.61 983.37 738.88 1009.95 786.55 833.75 765.61"/><polygon class="cls-1" points="905.18 463.32 994.23 374.25 942.45 472.07 905.18 463.32"/><polygon class="cls-2" points="922.64 509.51 942.45 472.07 954.64 474.92 922.64 509.51"/><polygon class="cls-7" points="922.64 509.51 954.64 474.92 994.23 484.21 922.64 509.51"/><polygon class="cls-6" points="938.35 624.98 955.86 599.14 1065.33 605.09 982.74 648.07 938.35 624.98"/><polygon class="cls-3" points="957.79 596.3 938.35 531.5 1022.86 500.4 957.81 596.3 957.79 596.3"/><polygon class="cls-3" points="942.45 472.07 994.23 374.25 994.23 432.12 954.64 474.92 942.45 472.07"/><polygon class="cls-4" points="983.37 738.88 943.95 668.25 1002.1 658.12 1049.92 682.99 1031.68 730.26 983.37 738.88"/><polygon class="cls-6" points="943.95 668.25 982.74 648.07 1002.1 658.12 943.95 668.25"/><polygon class="cls-2" points="994.24 484.21 954.64 474.92 994.24 432.12 994.24 484.21"/><polygon class="cls-8" points="955.86 599.14 957.81 596.3 1022.86 500.4 1063.08 485.6 1101.88 548.37 1083.64 595.58 1065.33 605.09 955.86 599.14"/><polygon class="cls-7" points="982.74 648.07 1065.33 605.09 1079.67 605.88 1063.66 647.39 1002.1 658.12 982.74 648.07"/><polygon class="cls-5" points="1009.95 786.55 983.37 738.88 1031.68 730.26 1009.95 786.55"/><polygon class="cls-2" points="994.24 432.11 994.24 374.26 1119.97 296.18 994.24 432.11"/><polygon class="cls-8" points="994.24 484.21 994.24 432.12 1119.97 296.18 994.24 484.21"/><polygon class="cls-1" points="994.24 374.25 1058.84 202.87 1119.97 296.18 994.24 374.25"/><polygon class="cls-8" points="1049.92 682.99 1002.1 658.12 1063.66 647.39 1049.92 682.99"/><polygon class="cls-8" points="1009.95 786.55 1031.68 730.26 1112.92 715.74 1009.95 786.55"/><polygon class="cls-5" points="1009.95 786.55 1112.92 715.74 1249.07 786.55 1009.95 786.55"/><polygon class="cls-2" points="1063.08 485.6 1022.86 500.4 1048.69 462.32 1063.08 485.6"/><polygon class="cls-7" points="1031.68 730.26 1049.92 682.99 1112.92 715.74 1031.68 730.26"/><polygon class="cls-10" points="1048.69 462.32 1119.97 296.18 1196.23 244.07 1196.41 244.6 1048.72 462.3 1048.69 462.32"/><polygon class="cls-7" points="1048.69 462.32 1048.72 462.3 1167.23 378.99 1136.53 458.56 1063.08 485.6 1048.69 462.32"/><polygon class="cls-2" points="1048.72 462.3 1196.41 244.6 1206.43 277.45 1167.23 378.99 1048.72 462.3"/><polygon class="cls-5" points="1049.92 682.99 1063.66 647.39 1153.42 631.75 1176.32 668.85 1112.92 715.74 1049.92 682.99"/><polygon class="cls-5" points="1101.88 548.37 1063.08 485.6 1136.53 458.56 1101.88 548.37"/><polygon class="cls-8" points="1063.66 647.39 1079.67 605.88 1139.43 609.12 1153.42 631.75 1063.66 647.39"/><polygon class="cls-5" points="1065.33 605.09 1083.64 595.58 1079.67 605.88 1065.33 605.09"/><polygon class="cls-6" points="1079.67 605.88 1083.64 595.57 1119.52 576.92 1139.43 609.12 1079.67 605.88"/><polygon class="cls-4" points="1083.64 595.57 1101.88 548.37 1119.52 576.92 1083.64 595.57"/><polygon class="cls-7" points="1119.52 576.92 1101.88 548.37 1136.53 458.56 1249.07 417.14 1249.07 509.51 1119.52 576.92"/><polygon class="cls-8" points="1249.07 786.55 1112.92 715.74 1196.13 700.88 1249.07 786.55"/><polygon class="cls-7" points="1112.92 715.74 1176.32 668.85 1196.13 700.88 1112.92 715.74"/><polygon class="cls-5" points="1139.43 609.12 1119.52 576.92 1249.07 509.51 1249.07 615.08 1139.43 609.12"/><polygon class="cls-1" points="1161.86 243.41 1119.97 193.92 1161.86 70.76 1144.4 187.33 1161.86 243.41"/><polygon class="cls-5" points="1136.53 458.56 1167.23 378.99 1225.04 338.37 1249.07 417.14 1136.53 458.56"/><polygon class="cls-4" points="1153.42 631.75 1139.43 609.12 1249.07 615.08 1153.42 631.75"/><polygon class="cls-7" points="1176.32 668.85 1153.41 631.75 1249.07 615.08 1176.32 668.85"/><polygon class="cls-4" points="1167.23 378.99 1206.42 277.45 1225.04 338.38 1167.23 378.99"/><polygon class="cls-4" points="1196.13 700.88 1176.32 668.85 1249.07 615.08 1249.07 691.42 1196.13 700.88"/><polygon class="cls-7" points="1196.23 244.07 1177.57 182.92 1249.07 166.97 1197.21 243.41 1196.23 244.07"/><polygon class="cls-8" points="1177.57 182.92 1249.07 0 1249.07 166.97 1177.57 182.92"/><polygon class="cls-5" points="1249.07 786.55 1196.13 700.88 1249.07 691.42 1249.07 786.55"/><polygon class="cls-1" points="1206.43 277.45 1196.41 244.6 1197.21 243.41 1249.07 166.97 1206.43 277.45"/><polygon class="cls-10" points="1225.04 338.37 1206.43 277.45 1249.07 166.97 1249.07 321.48 1225.04 338.37"/><polygon class="cls-1" points="1249.07 417.14 1225.04 338.38 1249.07 321.48 1249.07 417.14"/></g></g></svg>