<svg xmlns="http://www.w3.org/2000/svg" xmlns:xlink="http://www.w3.org/1999/xlink" viewBox="0 0 1725.79 197.29"><defs><style>.cls-1{fill:none;}.cls-2{clip-path:url(#clip-path);}.cls-3{fill:#5e65ae;}.cls-4{fill:#f79a22;}.cls-5{fill:#f7ba17;}.cls-6{fill:#f27921;}.cls-7{fill:#6750a1;}.cls-8{fill:#7256a4;}.cls-9{fill:#4f7dbf;}.cls-10{fill:#5357a5;}.cls-11{fill:#f15a27;}</style><clipPath id="clip-path" transform="translate(105.54 -772.37)"><rect class="cls-1" width="1600" height="900.5"/></clipPath></defs><g id="Layer_2" data-name="Layer 2"><g id="Layer_1-2" data-name="Layer 1"><g class="cls-2"><polygon class="cls-3" points="431.93 126.97 863.62 113.12 947.06 134.8 838.78 175.91 431.93 126.97"/><polygon class="cls-4" points="724.08 103.25 711.88 80.05 1030.92 45.64 724.08 103.25"/><polygon class="cls-5" points="351.33 97.3 693.08 23.71 591.44 76.21 351.33 97.3"/><polygon class="cls-5" points="154.52 82.29 378.55 39.73 424.68 78.73 154.52 82.29"/><path class="cls-6" d="M-105.54,854.65l424.68-3.56,118.11,97c-139-23.94-292,0-431-24-41.91-7.21-69.85-62.3-111.75-69.52" transform="translate(105.54 -772.37)"/><polygon class="cls-4" points="424.68 78.73 716.41 74.87 481.92 127.08 424.68 78.73"/><polygon class="cls-6" points="481.92 127.08 716.41 74.87 796.43 95.65 481.92 127.08"/><polygon class="cls-4" points="481.92 127.08 796.43 95.65 863.62 113.12 481.92 127.08"/><polygon class="cls-5" points="863.62 113.12 796.43 95.65 1140.8 61.24 1019.15 107.43 863.62 113.12"/><polygon class="cls-7" points="863.62 113.12 1019.15 107.43 947.06 134.8 863.62 113.12"/><polygon class="cls-8" points="947.06 134.8 1019.15 107.43 1105.81 104.27 969.88 140.74 947.06 134.8"/><polygon class="cls-9" points="969.88 140.74 1105.81 104.27 1156.11 161.53 1111.44 177.52 969.88 140.74"/><polygon class="cls-10" points="1019.15 107.43 1140.8 61.24 1340.46 41.31 1105.81 104.27 1019.15 107.43"/><polygon class="cls-10" points="1156.11 161.53 1105.81 104.27 1340.06 95.69 1156.11 161.53"/><polygon class="cls-3" points="1105.81 104.27 1340.46 41.31 1391.37 77.32 1340.06 95.69 1105.81 104.27"/><polygon class="cls-11" points="1140.8 61.24 1302.18 0 1366.44 12.37 1340.46 41.31 1140.8 61.24"/><polygon class="cls-9" points="1156.11 161.53 1340.06 95.69 1376.8 189.56 1187.55 197.29 1156.11 161.53"/><polygon class="cls-7" points="1340.46 41.31 1366.44 12.37 1500.61 38.21 1391.37 77.32 1340.46 41.31"/><polygon class="cls-3" points="1376.8 189.56 1340.06 95.69 1413.58 93.01 1468.41 131.79 1437.91 187.08 1376.8 189.56"/><polygon class="cls-7" points="1340.06 95.69 1391.37 77.32 1413.58 93.01 1340.06 95.69"/><polygon class="cls-8" points="1391.37 77.32 1500.61 38.21 1518.18 41.6 1491.39 90.16 1413.58 93.01 1391.37 77.32"/><polygon class="cls-9" points="1468.41 131.79 1413.58 93.01 1491.39 90.16 1468.41 131.79"/><polygon class="cls-10" points="1468.41 131.79 1491.39 90.16 1604.87 86.02 1626.89 135.69 1540.68 182.88 1468.41 131.79"/><polygon class="cls-9" points="1491.39 90.16 1518.18 41.6 1591.42 55.7 1604.87 86.01 1491.39 90.16"/><polygon class="cls-10" points="1500.61 38.21 1524.83 29.55 1518.18 41.6 1500.61 38.21"/><polygon class="cls-7" points="1518.18 41.6 1524.83 29.55 1572.27 12.58 1591.42 55.7 1518.18 41.6"/><polygon class="cls-3" points="1604.87 86.02 1591.42 55.7 1725.79 81.58 1604.87 86.02"/><polygon class="cls-8" points="1626.89 135.69 1604.87 86.02 1725.79 81.58 1626.89 135.69"/><polygon class="cls-3" points="1645.94 178.58 1626.89 135.69 1725.79 81.58 1712.9 175.85 1645.94 178.58"/></g></g></g></svg>