<svg xmlns="http://www.w3.org/2000/svg" viewBox="0 0 1368.11 129.21"><defs><style>.cls-1{fill:#057fc4;}.cls-2{fill:#fdbb16;}.cls-3{fill:#f15b33;}.cls-4{fill:#ee2d75;}.cls-5{fill:#795a9a;}</style></defs><g id="Layer_2" data-name="Layer 2"><g id="Layer_1-2" data-name="Layer 1"><polygon class="cls-1" points="1368.11 0 1294.63 0 1331.35 49.91 1368.11 0"/><polygon class="cls-2" points="650.55 0 487.31 0 568.93 110.87 650.55 0"/><polygon class="cls-3" points="748.21 129.21 666.58 18.34 584.96 129.21 748.21 129.21"/><polygon class="cls-3" points="1212.69 0 1107.11 0 1159.9 71.68 1212.69 0"/><polygon class="cls-4" points="1294.63 129.21 1289.3 121.95 1247.21 64.79 1199.79 129.21 1294.63 129.21"/><polygon class="cls-5" points="458.46 0 288.78 0 373.62 115.22 458.46 0"/><polygon class="cls-1" points="553.97 129.21 552.9 127.76 470.2 15.44 386.43 129.21 553.97 129.21"/><polygon class="cls-1" points="1025.17 0 893.98 0 959.58 89.1 1025.17 0"/><polygon class="cls-2" points="1110.63 129.21 1106.37 123.41 1049.32 45.92 987.99 129.21 1110.63 129.21"/><polygon class="cls-5" points="929.2 129.21 923.88 121.95 852.95 25.6 776.62 129.21 929.2 129.21"/><polygon class="cls-4" points="845.86 0 682.57 0 764.2 110.87 845.86 0"/><polygon class="cls-4" points="187.9 129.21 187.94 129.21 361.85 129.21 361.88 129.21 360.81 127.76 274.89 11.09 231.95 69.44 187.9 129.21"/><polygon class="cls-3" points="0 129.21 0.04 129.21 173.95 129.21 173.98 129.21 172.91 127.76 86.99 11.09 44.05 69.44 0 129.21"/><polygon class="cls-2" points="263.07 0 99.83 0 181.45 110.87 263.07 0"/></g></g></svg>