<svg id="Layer_1" data-name="Layer 1" xmlns="http://www.w3.org/2000/svg" viewBox="0 0 1045.7 301.5"><defs><style>.cls-1,.cls-2,.cls-3{fill:#fff;stroke:#fff;stroke-miterlimit:10;}.cls-2{stroke-width:0.65px;}.cls-3{fill-rule:evenodd;}</style></defs><polygon class="cls-1" points="359.2 301.5 359.2 79.1 361.2 79.1 361.2 301.5 359.2 301.5"/><path class="cls-1" d="M874.3,219.7h12.1a8.23,8.23,0,0,1,5.8,2,7.6,7.6,0,0,1,2.2,5.7,8.46,8.46,0,0,1-2,5.5q-1.95,2.4-6,2.4h-8.5v11.4h-3.7l.1-27Zm14.3,3.7a9.6,9.6,0,0,0-3.3-.6H878v9.4h7.3a6.4,6.4,0,0,0,4-1.1c1-.7,1.5-1.9,1.5-3.7a4.17,4.17,0,0,0-2.2-4Zm14.5-3.7v16.7a9.29,9.29,0,0,0,1.1,4.9,5.76,5.76,0,0,0,5.6,2.9c3.1,0,5.2-1.1,6.4-3.2a9.64,9.64,0,0,0,.9-4.7V219.6h3.7v15.2a18.39,18.39,0,0,1-1.3,7.7c-1.6,3.3-4.8,4.9-9.3,4.9s-7.7-1.6-9.3-4.9a16.94,16.94,0,0,1-1.3-7.7V219.6l3.5.1Zm23.3,0h4.3l13.7,21.9V219.7h3.5v27.1h-4.1l-13.9-21.9v21.9h-3.5Zm26.8,0H973V223H956.8v8.2h15v3.1h-15v9.2h16.4v3.2h-20Z"/><path class="cls-1" d="M420.1,280.6v1.8h-4.7V296h-1.9V282.4h-4.7v-1.8Zm1.9,0h10.1v1.9h-8.3v4.7h7.7V289h-7.7v5.3h8.5v1.8H422Zm24.4,4.6h-1.8a5.45,5.45,0,0,0-1.2-2.4,4.11,4.11,0,0,0-2.6-.9,4.22,4.22,0,0,0-3.3,1.6,7.89,7.89,0,0,0-1.3,4.9,7.43,7.43,0,0,0,1.1,4.4,4,4,0,0,0,3.4,1.7,3.6,3.6,0,0,0,3.2-1.8,10.64,10.64,0,0,0,.9-2.5h1.8a7.72,7.72,0,0,1-1.6,4.1,5.9,5.9,0,0,1-8.4.5l-.1-.1c-1.4-1.4-2.2-3.7-2.2-6.7a9.18,9.18,0,0,1,1.6-5.6,5.52,5.52,0,0,1,4.9-2.4,5.65,5.65,0,0,1,4.1,1.5,7.47,7.47,0,0,1,1.5,3.7Zm2.5-4.6h1.9V287h7.3v-6.4H460V296h-2v-7.3h-7.3V296h-1.9Zm13.9,0H465l7,12.5V280.6h1.8V296h-2.1l-7.1-12.5V296h-1.8Zm25.5,2.2a9,9,0,0,1,1.4,5.3,10.2,10.2,0,0,1-1.6,5.8,6.55,6.55,0,0,1-9.2,1.4,12,12,0,0,1-1.2-1.1,9.79,9.79,0,0,1-1.6-5.8,9.31,9.31,0,0,1,1.4-5.4,5.86,5.86,0,0,1,5.3-2.9,6.23,6.23,0,0,1,5.5,2.7Zm-.5,5.3a6.92,6.92,0,0,0-1.3-4.4,4.45,4.45,0,0,0-7,0,7.63,7.63,0,0,0-1.4,4.9,7.39,7.39,0,0,0,1.2,4.3,4.38,4.38,0,0,0,3.8,1.8,3.81,3.81,0,0,0,3.6-2,10.72,10.72,0,0,0,1.1-4.6Zm4.1-7.5h1.9v13.6h7.1V296H492l-.1-15.4Zm22.3,2.2a9,9,0,0,1,1.4,5.3,10.2,10.2,0,0,1-1.6,5.8,6.55,6.55,0,0,1-9.2,1.4,12,12,0,0,1-1.2-1.1,9.79,9.79,0,0,1-1.6-5.8,9.31,9.31,0,0,1,1.4-5.4,5.86,5.86,0,0,1,5.3-2.9,6.23,6.23,0,0,1,5.5,2.7Zm-.5,5.3a6.92,6.92,0,0,0-1.3-4.4,4.45,4.45,0,0,0-7,0,7.63,7.63,0,0,0-1.4,4.9,7.39,7.39,0,0,0,1.2,4.3,4.38,4.38,0,0,0,3.8,1.8,3.81,3.81,0,0,0,3.6-2,10.72,10.72,0,0,0,1.1-4.6Zm13.6-7.1a5.24,5.24,0,0,1,2.5,4.2h-1.9a3.55,3.55,0,0,0-1.4-2.5,5,5,0,0,0-2.7-.8,4.22,4.22,0,0,0-3.3,1.6,6.9,6.9,0,0,0-1.3,4.8,7.93,7.93,0,0,0,1.1,4.5,3.67,3.67,0,0,0,3.6,1.7,4.3,4.3,0,0,0,3.1-1.2,5.69,5.69,0,0,0,1.3-4h-4.4v-1.7H530v8.3h-1.2l-.5-2a6.48,6.48,0,0,1-1.7,1.6,6.37,6.37,0,0,1-7.4-1,8.9,8.9,0,0,1-1.9-6.1,9.9,9.9,0,0,1,1.9-6.2,6,6,0,0,1,4.7-2.2,8.34,8.34,0,0,1,3.4,1Zm4.6-.4h2.2l4,7.4,4-7.4h2.2l-5.3,9.2V296h-1.9v-6.2ZM546,298.2a1.32,1.32,0,0,0,.9-1,2.77,2.77,0,0,0,.1-.9v-.2h-1v-2.3h2v2.1a4.19,4.19,0,0,1-.5,2.2,2.2,2.2,0,0,1-1.6,1.2Zm17.2-10.6a3.94,3.94,0,0,0,2.1-.6,2.35,2.35,0,0,0,.8-2.1,2.39,2.39,0,0,0-1.1-2.3,4.15,4.15,0,0,0-1.6-.3h-4.6v5.3Zm-6.3-7h6.4a5.75,5.75,0,0,1,2.6.5,3.81,3.81,0,0,1,2,3.6,4.56,4.56,0,0,1-.5,2.3,3.16,3.16,0,0,1-1.4,1.4,2.34,2.34,0,0,1,1.2,1,4.55,4.55,0,0,1,.5,2l.1,2.1a5.7,5.7,0,0,0,.1,1.3,1.15,1.15,0,0,0,.6.9v.3h-2.3c-.1-.2-.1-.3-.2-.5a4.87,4.87,0,0,1-.1-1.2l-.1-2.6a2,2,0,0,0-1-2,4.67,4.67,0,0,0-1.7-.3h-4.3V296h-1.9V280.6Zm14,0H581v1.9h-8.3v4.7h7.7V289h-7.7v5.3h8.5v1.8H570.9Zm14,10.4a3.94,3.94,0,0,0,.6,2.1,3.33,3.33,0,0,0,3.3,1.5,5.82,5.82,0,0,0,1.9-.3,2.46,2.46,0,0,0,1.7-2.3,2,2,0,0,0-.7-1.8,6.5,6.5,0,0,0-2.3-.9l-1.9-.5a8.25,8.25,0,0,1-2.6-1,3.33,3.33,0,0,1-1.3-2.9,4.67,4.67,0,0,1,1.3-3.4,5,5,0,0,1,3.7-1.3,6.07,6.07,0,0,1,3.7,1.2,4.16,4.16,0,0,1,1.5,3.8H592a4.24,4.24,0,0,0-.6-1.9,3.25,3.25,0,0,0-2.9-1.2,3.07,3.07,0,0,0-2.4.8,2.41,2.41,0,0,0-.7,1.8,2,2,0,0,0,.9,1.7,8.09,8.09,0,0,0,2.5.8l2,.5a6.25,6.25,0,0,1,2.2,1,3.78,3.78,0,0,1,1.3,3.2,4.24,4.24,0,0,1-1.7,3.7,7.65,7.65,0,0,1-3.9,1.1,5.26,5.26,0,0,1-4.1-1.5,5,5,0,0,1-1.4-3.9V291Zm11.9-10.4h10.1v1.9h-8.3v4.7h7.7V289h-7.7v5.3h8.5v1.8H596.8Zm19.9,9.1-2.1-6.8-2.2,6.8Zm-3.1-9.1h2.1l5.1,15.5h-2.1l-1.4-4.6h-5.5l-1.5,4.6h-1.9Zm15.4,7a3.94,3.94,0,0,0,2.1-.6,2.35,2.35,0,0,0,.8-2.1,2.39,2.39,0,0,0-1.1-2.3,4,4,0,0,0-1.5-.3h-4.6v5.3Zm-6.3-7h6.4a5.75,5.75,0,0,1,2.6.5,3.81,3.81,0,0,1,2,3.6,4.56,4.56,0,0,1-.5,2.3,3.16,3.16,0,0,1-1.4,1.4,2.34,2.34,0,0,1,1.2,1,4.55,4.55,0,0,1,.5,2l.1,2.1a5.7,5.7,0,0,0,.1,1.3,1.15,1.15,0,0,0,.6.9v.3H632c-.1-.2-.1-.3-.2-.5a4.87,4.87,0,0,1-.1-1.2l-.1-2.6a2,2,0,0,0-1-2,4.67,4.67,0,0,0-1.7-.3h-4.3V296h-1.9V280.6Zm25.4,4.6h-1.8a5.45,5.45,0,0,0-1.2-2.4,4.11,4.11,0,0,0-2.6-.9,4.22,4.22,0,0,0-3.3,1.6,7.89,7.89,0,0,0-1.3,4.9,7.43,7.43,0,0,0,1.1,4.4,4,4,0,0,0,3.4,1.7,3.6,3.6,0,0,0,3.2-1.8,10.64,10.64,0,0,0,.9-2.5h1.8a7.72,7.72,0,0,1-1.6,4.1,5.9,5.9,0,0,1-8.4.5l-.1-.1c-1.4-1.4-2.2-3.7-2.2-6.7a9.18,9.18,0,0,1,1.6-5.6,5.52,5.52,0,0,1,4.9-2.4,5.65,5.65,0,0,1,4.1,1.5,7.47,7.47,0,0,1,1.5,3.7Zm2.5-4.6h1.9V287h7.3v-6.4h1.9V296h-1.9v-7.2h-7.3V296h-1.9Zm14.1,17.6a1.32,1.32,0,0,0,.9-1,2.77,2.77,0,0,0,.1-.9v-.2h-1v-2.3h2v2.1a4.19,4.19,0,0,1-.5,2.2,2.2,2.2,0,0,1-1.6,1.2l.1-1.1Zm11.9-7.2a3.94,3.94,0,0,0,.6,2.1,3.33,3.33,0,0,0,3.3,1.5,5.82,5.82,0,0,0,1.9-.3,2.46,2.46,0,0,0,1.7-2.3,2,2,0,0,0-.7-1.8,6.5,6.5,0,0,0-2.3-.9l-1.9-.5a8.25,8.25,0,0,1-2.6-1,3.33,3.33,0,0,1-1.3-2.9,4.67,4.67,0,0,1,1.3-3.4,5,5,0,0,1,3.7-1.3,6.07,6.07,0,0,1,3.7,1.2,4.16,4.16,0,0,1,1.5,3.8h-1.8a4.24,4.24,0,0,0-.6-1.9,3.25,3.25,0,0,0-2.9-1.2,3.07,3.07,0,0,0-2.4.8,2.41,2.41,0,0,0-.7,1.8,2,2,0,0,0,.9,1.7,8.09,8.09,0,0,0,2.5.8l2,.5a6.25,6.25,0,0,1,2.2,1,3.78,3.78,0,0,1,1.3,3.2,4.24,4.24,0,0,1-1.7,3.7,7.65,7.65,0,0,1-3.9,1.1,5.26,5.26,0,0,1-4.1-1.5,5,5,0,0,1-1.4-3.9V291Zm23.2-8.2a9,9,0,0,1,1.4,5.3,10.2,10.2,0,0,1-1.6,5.8,6.55,6.55,0,0,1-9.2,1.4,12,12,0,0,1-1.2-1.1,9.79,9.79,0,0,1-1.6-5.8A9.31,9.31,0,0,1,689,283a5.86,5.86,0,0,1,5.3-2.9,6.23,6.23,0,0,1,5.5,2.7Zm-.6,5.3a6.92,6.92,0,0,0-1.3-4.4,4.45,4.45,0,0,0-7,0,7.63,7.63,0,0,0-1.4,4.9,7.39,7.39,0,0,0,1.2,4.3,4.38,4.38,0,0,0,3.8,1.8,3.81,3.81,0,0,0,3.6-2,8.46,8.46,0,0,0,1.1-4.6Zm15.8-2.9h-1.8a5.45,5.45,0,0,0-1.2-2.4,4.11,4.11,0,0,0-2.6-.9,4.22,4.22,0,0,0-3.3,1.6,7.89,7.89,0,0,0-1.3,4.9,7.43,7.43,0,0,0,1.1,4.4,4,4,0,0,0,3.4,1.7,3.6,3.6,0,0,0,3.2-1.8,10.64,10.64,0,0,0,.9-2.5h1.8a7.72,7.72,0,0,1-1.6,4.1,5.9,5.9,0,0,1-8.4.5l-.1-.1c-1.4-1.4-2.2-3.7-2.2-6.7a9.18,9.18,0,0,1,1.6-5.6,5.52,5.52,0,0,1,4.9-2.4,5.65,5.65,0,0,1,4.1,1.5,7.47,7.47,0,0,1,1.5,3.7Zm2.9-4.6h1.9V296h-1.9Zm12.1,9.1-2.1-6.8-2.2,6.8Zm-3.1-9.1H729l5.1,15.5H732l-1.4-4.6h-5.5l-1.5,4.6h-1.9Zm8.9,0h1.9v13.6h7.1V296h-8.9l-.1-15.4Zm16.6,0h1.9V296h-1.9Zm5,0h2.2l7,12.5V280.6h1.8V296h-2.1l-7.1-12.5V296h-1.8V280.6Zm14,0h2.2l7,12.5V280.6h1.8V296h-2.1l-7.1-12.5V296h-1.8V280.6Zm25.5,2.2a9,9,0,0,1,1.4,5.3,10.2,10.2,0,0,1-1.6,5.8,6.55,6.55,0,0,1-9.2,1.4,12,12,0,0,1-1.2-1.1,9.79,9.79,0,0,1-1.6-5.8,9.31,9.31,0,0,1,1.4-5.4,5.86,5.86,0,0,1,5.3-2.9,6.23,6.23,0,0,1,5.5,2.7Zm-.5,5.3a6.92,6.92,0,0,0-1.3-4.4,4.45,4.45,0,0,0-7,0,7.63,7.63,0,0,0-1.4,4.9,7.39,7.39,0,0,0,1.2,4.3,4.38,4.38,0,0,0,3.8,1.8,3.81,3.81,0,0,0,3.6-2,10.72,10.72,0,0,0,1.1-4.6Zm5.2-7.5,4,13.2,3.9-13.2h2.1l-5.1,15.5h-2l-5.1-15.5Zm19,9.1-2.1-6.8-2.2,6.8Zm-3.1-9.1h2.1l5.1,15.5h-2.1l-1.4-4.6h-5.5l-1.5,4.6h-1.9Zm19.1,0v1.8h-4.7V296H830V282.4h-4.7v-1.8Zm2.1,0h1.9V296h-1.9Zm16.4,2.2a9,9,0,0,1,1.4,5.3,10.2,10.2,0,0,1-1.6,5.8,6.55,6.55,0,0,1-9.2,1.4,12,12,0,0,1-1.2-1.1,9.79,9.79,0,0,1-1.6-5.8,9.31,9.31,0,0,1,1.4-5.4,5.86,5.86,0,0,1,5.3-2.9,6.23,6.23,0,0,1,5.5,2.7Zm-.5,5.3a6.92,6.92,0,0,0-1.3-4.4,4.45,4.45,0,0,0-7,0,7.63,7.63,0,0,0-1.4,4.9,7.39,7.39,0,0,0,1.2,4.3,4.38,4.38,0,0,0,3.8,1.8,3.81,3.81,0,0,0,3.6-2,9.45,9.45,0,0,0,1.1-4.6Zm4.2-7.5H861l7,12.5V280.6h1.8V296h-2.1l-7.1-12.5V296h-1.8V280.6Zm37.9,0h6.2a4.23,4.23,0,0,1,3,1.2,4.43,4.43,0,0,1,1.1,3.3,5.5,5.5,0,0,1-1,3.2,3.7,3.7,0,0,1-3.1,1.3h-4.4v6.5h-1.9l.1-15.5Zm7.4,2.1a3.23,3.23,0,0,0-1.7-.3h-3.7v5.4h3.7a3.94,3.94,0,0,0,2.1-.6,2.35,2.35,0,0,0,.8-2.1,2.73,2.73,0,0,0-1.2-2.4Zm12.5,7-2.1-6.8-2.2,6.8Zm-3.1-9.1h2.1l5.1,15.5h-2.1l-1.4-4.6h-5.5l-1.5,4.6h-1.9l5.2-15.5Zm15.4,7a3.94,3.94,0,0,0,2.1-.6,2.35,2.35,0,0,0,.8-2.1,2.39,2.39,0,0,0-1.1-2.3,4.15,4.15,0,0,0-1.6-.3h-4.6v5.3Zm-6.2-7h6.4a5.75,5.75,0,0,1,2.6.5,3.81,3.81,0,0,1,2,3.6,4.56,4.56,0,0,1-.5,2.3,3.16,3.16,0,0,1-1.4,1.4,2.34,2.34,0,0,1,1.2,1,4.55,4.55,0,0,1,.5,2l.1,2.1a5.7,5.7,0,0,0,.1,1.3,1.15,1.15,0,0,0,.6.9v.3H932c-.1-.2-.1-.3-.2-.5a4.87,4.87,0,0,1-.1-1.2l-.1-2.6a2,2,0,0,0-1-2,4.67,4.67,0,0,0-1.7-.3h-4.3V296h-1.9V280.6Zm23.9,0v1.8h-4.7V296H940V282.4h-4.7v-1.8Zm1.7,0h2.2l7,12.5V280.6h1.8V296h-2.1l-7.1-12.5V296h-1.8V280.6Zm14.2,0h10.1v1.9h-8.3v4.7H972V289h-7.7v5.3h8.5v1.8H962.5Zm19.3,7a3.94,3.94,0,0,0,2.1-.6,2.35,2.35,0,0,0,.8-2.1,2.39,2.39,0,0,0-1.1-2.3,4.15,4.15,0,0,0-1.6-.3h-4.6v5.3Zm-6.3-7h6.4a5.75,5.75,0,0,1,2.6.5,3.81,3.81,0,0,1,2,3.6,4.56,4.56,0,0,1-.5,2.3,3.16,3.16,0,0,1-1.4,1.4,2.34,2.34,0,0,1,1.2,1,4.55,4.55,0,0,1,.5,2l.1,2.1a5.7,5.7,0,0,0,.1,1.3,1.15,1.15,0,0,0,.6.9v.3h-2.3c-.1-.2-.1-.3-.2-.5a4.87,4.87,0,0,1-.1-1.2l-.1-2.6a2,2,0,0,0-1-2,4.67,4.67,0,0,0-1.7-.3h-4.3V296h-1.9V280.6Zm15,10.4a3.94,3.94,0,0,0,.6,2.1,3.33,3.33,0,0,0,3.3,1.5,5.82,5.82,0,0,0,1.9-.3A2.46,2.46,0,0,0,998,292a2,2,0,0,0-.7-1.8,6.5,6.5,0,0,0-2.3-.9l-1.9-.5a8.25,8.25,0,0,1-2.6-1,3.33,3.33,0,0,1-1.3-2.9,4.67,4.67,0,0,1,1.3-3.4,5,5,0,0,1,3.7-1.3,6.07,6.07,0,0,1,3.7,1.2,4.16,4.16,0,0,1,1.5,3.8h-1.8a4.24,4.24,0,0,0-.6-1.9,3.25,3.25,0,0,0-2.9-1.2,3.07,3.07,0,0,0-2.4.8,2.41,2.41,0,0,0-.7,1.8,2,2,0,0,0,.9,1.7,8.09,8.09,0,0,0,2.5.8l2,.5a6.25,6.25,0,0,1,2.2,1,3.78,3.78,0,0,1,1.3,3.2,4.24,4.24,0,0,1-1.7,3.7,7.65,7.65,0,0,1-3.9,1.1,5.26,5.26,0,0,1-4.1-1.5,5,5,0,0,1-1.4-3.9V291Zm11.8-10.4h1.9V287h7.3v-6.4h1.9V296h-1.9v-7.3h-7.3V296h-1.9Zm14.4,0h1.9V296h-1.9Zm5.2,0h6.2a4.23,4.23,0,0,1,3,1.2,4.43,4.43,0,0,1,1.1,3.3,5.5,5.5,0,0,1-1,3.2,3.7,3.7,0,0,1-3.1,1.3h-4.4v6.5h-1.9Zm7.3,2.1a3.23,3.23,0,0,0-1.7-.3h-3.8v5.4h3.8a3.94,3.94,0,0,0,2.1-.6,2.35,2.35,0,0,0,.8-2.1,2.53,2.53,0,0,0-1.2-2.4Zm-145.7,2.7a2.45,2.45,0,0,0,.6-1.6,1.92,1.92,0,0,0-.4-1.2,1.61,1.61,0,0,0-1.1-.5,1.41,1.41,0,0,0-1.5.8,2.92,2.92,0,0,0-.2.9,2.38,2.38,0,0,0,.3,1.2,8.28,8.28,0,0,0,1.1,1.5,6,6,0,0,0,1.2-1.1Zm1.3,7.6-3.1-4.3a8,8,0,0,0-1.7,1.5,3.29,3.29,0,0,0-.6,1.9,2.73,2.73,0,0,0,.8,1.9,2.84,2.84,0,0,0,1.7.7,3.74,3.74,0,0,0,1.8-.5,4.26,4.26,0,0,0,1.1-1.2Zm-5.6-8.9a3.84,3.84,0,0,1,.9-2.5,3.1,3.1,0,0,1,2.4-1,3.17,3.17,0,0,1,2.3.9,3.49,3.49,0,0,1,.8,2.2,4.7,4.7,0,0,1-.8,2.6,7.52,7.52,0,0,1-1.6,1.5l2.5,3.4c.2-.6.3-1,.4-1.3s.1-.7.2-1.2h1.6a8.87,8.87,0,0,1-.7,2.8,3.7,3.7,0,0,1-.5,1.1h0l2.5,3.3H887l-1.3-1.8a9.27,9.27,0,0,1-1.4,1.4,5,5,0,0,1-2.6.8,3.89,3.89,0,0,1-3.2-1.3,5.08,5.08,0,0,1-1-2.9,4.27,4.27,0,0,1,1-2.9,9.62,9.62,0,0,1,2.2-1.8,7.61,7.61,0,0,1-1.2-1.9,3.19,3.19,0,0,1-.3-1.4Zm156.7,6.9a3.94,3.94,0,0,0,.6,2.1,3.33,3.33,0,0,0,3.3,1.5,5.82,5.82,0,0,0,1.9-.3,2.46,2.46,0,0,0,1.7-2.3,2,2,0,0,0-.7-1.8,6.5,6.5,0,0,0-2.3-.9l-1.9-.5a8.25,8.25,0,0,1-2.6-1,3.33,3.33,0,0,1-1.3-2.9,4.67,4.67,0,0,1,1.3-3.4,5,5,0,0,1,3.7-1.3,6.07,6.07,0,0,1,3.7,1.2,4.16,4.16,0,0,1,1.5,3.8H1043a4.24,4.24,0,0,0-.6-1.9,3.25,3.25,0,0,0-2.9-1.2,3.07,3.07,0,0,0-2.4.8,2.41,2.41,0,0,0-.7,1.8,2,2,0,0,0,.9,1.7,8.09,8.09,0,0,0,2.5.8l2,.5a6.25,6.25,0,0,1,2.2,1,3.78,3.78,0,0,1,1.3,3.2,4.24,4.24,0,0,1-1.7,3.7,7.65,7.65,0,0,1-3.9,1.1,5.26,5.26,0,0,1-4.1-1.5,5,5,0,0,1-1.4-3.9V291Z"/><path class="cls-1" d="M409,112.7V87.8h8.6a21.19,21.19,0,0,1,4.4.4,9.12,9.12,0,0,1,3.7,1.8,10,10,0,0,1,2.9,4.3,17,17,0,0,1,1,5.9,16.79,16.79,0,0,1-.7,5,11.9,11.9,0,0,1-1.7,3.6,8.71,8.71,0,0,1-5.3,3.6,18.1,18.1,0,0,1-4,.4Zm3.3-2.9h5.3a13.06,13.06,0,0,0,3.9-.5,6.11,6.11,0,0,0,2.2-1.3,7.82,7.82,0,0,0,1.8-3.2,15.94,15.94,0,0,0,.7-4.8,11.25,11.25,0,0,0-1.3-6,6,6,0,0,0-3.1-2.8,12.39,12.39,0,0,0-4.3-.5h-5.2Zm21.4,2.9v-18h2.7v2.8a7.9,7.9,0,0,1,1.9-2.5,3.61,3.61,0,0,1,2-.6,5.71,5.71,0,0,1,3.1,1l-1.1,2.8a4.28,4.28,0,0,0-2.2-.6,3,3,0,0,0-1.8.6,3.37,3.37,0,0,0-1.1,1.7,11.19,11.19,0,0,0-.5,3.6v9.4Zm10.6,0v-3.5h3.5v3.5Zm22.8,0-9.6-24.9h3.6l6.5,18.1a38.44,38.44,0,0,1,1.3,4.1c.4-1.4.8-2.7,1.3-4.1l6.7-18.1h3.4l-9.7,24.9Zm15.1-21.4V87.8h3.1v3.5Zm0,21.4v-18h3.1v18.1l-3.1-.1Zm6.5-5.4,3-.5a4.21,4.21,0,0,0,1.4,2.8,5.38,5.38,0,0,0,3.3,1,4.37,4.37,0,0,0,3.1-.9,2.61,2.61,0,0,0,1-2,1.7,1.7,0,0,0-.9-1.6,11.24,11.24,0,0,0-3.1-1,28.44,28.44,0,0,1-4.7-1.5,5.51,5.51,0,0,1-2-1.7,5.13,5.13,0,0,1-.7-2.4,4.28,4.28,0,0,1,.6-2.2,5,5,0,0,1,1.5-1.7,6.63,6.63,0,0,1,1.9-.9,11.71,11.71,0,0,1,2.6-.4,11.48,11.48,0,0,1,3.7.6,5.07,5.07,0,0,1,2.4,1.7,5.58,5.58,0,0,1,1,2.8l-3,.4a3.25,3.25,0,0,0-1.2-2.2,4.59,4.59,0,0,0-2.8-.8,5.32,5.32,0,0,0-3,.7,2.2,2.2,0,0,0-.9,1.6,1.5,1.5,0,0,0,.4,1.1,2,2,0,0,0,1.2.8c.3.1,1.2.4,2.7.8a38.8,38.8,0,0,1,4.5,1.4,4.47,4.47,0,0,1,2,1.6,4.1,4.1,0,0,1,.7,2.6,5.21,5.21,0,0,1-.9,2.9,5.43,5.43,0,0,1-2.6,2.1,8.3,8.3,0,0,1-3.8.7,8.7,8.7,0,0,1-5.4-1.5,8.6,8.6,0,0,1-2-4.3Zm18.6,5.4V87.8h3.1v9a6.94,6.94,0,0,1,5.4-2.5,7.19,7.19,0,0,1,3.5.8,4.49,4.49,0,0,1,2.1,2.2,9.3,9.3,0,0,1,.6,4v11.4h-3.1V101.3a4.36,4.36,0,0,0-1-3.3,3.61,3.61,0,0,0-2.8-1,4.3,4.3,0,0,0-2.5.7,3.51,3.51,0,0,0-1.7,1.9,9.46,9.46,0,0,0-.5,3.3v9.9l-3.1-.1Zm22.6,0-5.5-18.1h3.2l2.9,10.4,1,3.9c0-.2.4-1.4.9-3.7l2.9-10.6h3.1l2.7,10.5.9,3.4,1-3.5,3.1-10.4h3l-5.7,18.1h-3.2l-2.9-10.8-.7-3.1-3.7,13.9Zm33.7-2.3a9.44,9.44,0,0,1-3.3,2,9.74,9.74,0,0,1-3.4.6,6.81,6.81,0,0,1-4.6-1.4,4.71,4.71,0,0,1-1.6-3.7,5.08,5.08,0,0,1,2.2-4.2,6.25,6.25,0,0,1,2.2-1,25.58,25.58,0,0,1,2.7-.5,35.34,35.34,0,0,0,5.5-1v-.8a3.11,3.11,0,0,0-.9-2.6,4.84,4.84,0,0,0-3.5-1,5.29,5.29,0,0,0-3.2.8,4.56,4.56,0,0,0-1.5,2.7l-3-.4a8.52,8.52,0,0,1,1.3-3.1,6.14,6.14,0,0,1,2.7-1.8,11.33,11.33,0,0,1,4.1-.6,12,12,0,0,1,3.8.5,4.87,4.87,0,0,1,2.1,1.4,5.12,5.12,0,0,1,1,2.1,26.35,26.35,0,0,1,.2,2.8v4.1a48.74,48.74,0,0,0,.2,5.4,8.08,8.08,0,0,0,.7,2.2h-3.2a7.93,7.93,0,0,1-.5-2.5Zm-.3-6.7a17.23,17.23,0,0,1-5,1.1,13.1,13.1,0,0,0-2.7.6,2.34,2.34,0,0,0-1.2,1,2.76,2.76,0,0,0,.5,3.5,3.77,3.77,0,0,0,2.7.8,5.53,5.53,0,0,0,3.1-.8,4.51,4.51,0,0,0,2-2.1,7.89,7.89,0,0,0,.5-3l.1-1.1Zm7.8,9v-18h2.7v2.6a6.52,6.52,0,0,1,5.7-2.9,8,8,0,0,1,3,.6,4.26,4.26,0,0,1,2,1.5,6,6,0,0,1,1,2.3c.1,1,.2,2,.2,3v11.1h-3.1v-11a9,9,0,0,0-.4-2.8,3.11,3.11,0,0,0-1.3-1.5,3.94,3.94,0,0,0-2.1-.6,5.43,5.43,0,0,0-3.4,1.2c-.9.8-1.4,2.4-1.4,4.7v9.8Zm31.1-2.3a9.44,9.44,0,0,1-3.3,2,9.74,9.74,0,0,1-3.4.6,6.81,6.81,0,0,1-4.6-1.4,4.71,4.71,0,0,1-1.6-3.7,5,5,0,0,1,.6-2.4,5.48,5.48,0,0,1,1.6-1.8,6.25,6.25,0,0,1,2.2-1,25.58,25.58,0,0,1,2.7-.5,35.34,35.34,0,0,0,5.5-1v-.8a3.11,3.11,0,0,0-.9-2.6,4.84,4.84,0,0,0-3.5-1,5.29,5.29,0,0,0-3.2.8,4.56,4.56,0,0,0-1.5,2.7l-3-.4a8.52,8.52,0,0,1,1.3-3.1,6.14,6.14,0,0,1,2.7-1.8,11.33,11.33,0,0,1,4.1-.6,12,12,0,0,1,3.8.5,4.87,4.87,0,0,1,2.1,1.4,5.12,5.12,0,0,1,1,2.1,26.35,26.35,0,0,1,.2,2.8v4.1a48.74,48.74,0,0,0,.2,5.4,8.08,8.08,0,0,0,.7,2.2h-3.2c-.2-.9-.4-1.7-.5-2.5Zm-.2-6.7a17.23,17.23,0,0,1-5,1.1,13.1,13.1,0,0,0-2.7.6,2.34,2.34,0,0,0-1.2,1,2.76,2.76,0,0,0,.5,3.5,3.77,3.77,0,0,0,2.7.8,5.53,5.53,0,0,0,3.1-.8,4.51,4.51,0,0,0,2-2.1,7.89,7.89,0,0,0,.5-3l.1-1.1Zm14.4,6.3.4,2.7a9.08,9.08,0,0,1-2.3.3,5.75,5.75,0,0,1-2.6-.5,3,3,0,0,1-1.3-1.4,14.72,14.72,0,0,1-.4-3.6V97h-2.3V94.6h2.3V90.1l3.1-1.8v6.3h3.1V97h-3.1v10.6a5,5,0,0,0,.2,1.7,1.47,1.47,0,0,0,.5.6,1.8,1.8,0,0,0,1,.2c.6,0,1-.1,1.4-.1Zm3.1,2.7V87.8h3.1v9a6.94,6.94,0,0,1,5.4-2.5,7.19,7.19,0,0,1,3.5.8,4.49,4.49,0,0,1,2.1,2.2,9.3,9.3,0,0,1,.6,4v11.4H631V101.3a4.36,4.36,0,0,0-1-3.3,3.61,3.61,0,0,0-2.8-1,4.3,4.3,0,0,0-2.5.7,3.51,3.51,0,0,0-1.7,1.9,9.46,9.46,0,0,0-.5,3.3v9.9l-3-.1Zm29.2,0V87.8H652v12.3l12.4-12.3h4.5L658.5,97.9l10.9,14.8H665l-8.9-12.6L652,104v8.6l-3.3.1Zm34.8-2.3a9.44,9.44,0,0,1-3.3,2,9.74,9.74,0,0,1-3.4.6,6.81,6.81,0,0,1-4.6-1.4,4.71,4.71,0,0,1-1.6-3.7,5.08,5.08,0,0,1,2.2-4.2,6.25,6.25,0,0,1,2.2-1,25.58,25.58,0,0,1,2.7-.5,35.34,35.34,0,0,0,5.5-1v-.8a3.11,3.11,0,0,0-.9-2.6,4.84,4.84,0,0,0-3.5-1,5.29,5.29,0,0,0-3.2.8,4.56,4.56,0,0,0-1.5,2.7l-3-.4a8.52,8.52,0,0,1,1.3-3.1,6.14,6.14,0,0,1,2.7-1.8,11.33,11.33,0,0,1,4.1-.6,12,12,0,0,1,3.8.5,4.87,4.87,0,0,1,2.1,1.4,5.12,5.12,0,0,1,1,2.1,26.35,26.35,0,0,1,.2,2.8v4.1a48.74,48.74,0,0,0,.2,5.4,8.08,8.08,0,0,0,.7,2.2H684a7.93,7.93,0,0,1-.5-2.5Zm-.3-6.7a17.23,17.23,0,0,1-5,1.1,13.1,13.1,0,0,0-2.7.6,2.34,2.34,0,0,0-1.2,1,2.76,2.76,0,0,0,.5,3.5,3.77,3.77,0,0,0,2.7.8,5.53,5.53,0,0,0,3.1-.8,4.51,4.51,0,0,0,2-2.1,7.89,7.89,0,0,0,.5-3l.1-1.1Zm7.8,9v-18h2.7v2.8a7.9,7.9,0,0,1,1.9-2.5,3.61,3.61,0,0,1,2-.6,5.71,5.71,0,0,1,3.1,1l-1.1,2.8a4.28,4.28,0,0,0-2.2-.6,3,3,0,0,0-1.8.6,3.37,3.37,0,0,0-1.1,1.7,11.19,11.19,0,0,0-.5,3.6v9.4Zm23.4-2.3a9.44,9.44,0,0,1-3.3,2,9.74,9.74,0,0,1-3.4.6,6.81,6.81,0,0,1-4.6-1.4,4.71,4.71,0,0,1-1.6-3.7,5,5,0,0,1,.6-2.4,5.48,5.48,0,0,1,1.6-1.8,6.25,6.25,0,0,1,2.2-1,25.58,25.58,0,0,1,2.7-.5,33.33,33.33,0,0,0,5.5-1v-.8a3.11,3.11,0,0,0-.9-2.6,4.84,4.84,0,0,0-3.5-1,5.29,5.29,0,0,0-3.2.8,4.56,4.56,0,0,0-1.5,2.7l-3-.4a8.52,8.52,0,0,1,1.3-3.1A6.14,6.14,0,0,1,706,95a11.33,11.33,0,0,1,4.1-.6,12,12,0,0,1,3.8.5,4.87,4.87,0,0,1,2.1,1.4,5.12,5.12,0,0,1,1,2.1,26.35,26.35,0,0,1,.2,2.8v4.1a48.74,48.74,0,0,0,.2,5.4,8.08,8.08,0,0,0,.7,2.2H715a6.08,6.08,0,0,1-.6-2.5Zm-.3-6.7a17.23,17.23,0,0,1-5,1.1,13.1,13.1,0,0,0-2.7.6,2.34,2.34,0,0,0-1.2,1,2.76,2.76,0,0,0,.5,3.5,3.77,3.77,0,0,0,2.7.8,5.53,5.53,0,0,0,3.1-.8,4.51,4.51,0,0,0,2-2.1,7.89,7.89,0,0,0,.5-3l.1-1.1Zm19.5,9v-2.3a5.73,5.73,0,0,1-5,2.7,7.21,7.21,0,0,1-4-1.2,8.14,8.14,0,0,1-2.8-3.3,11.62,11.62,0,0,1-1-4.9,13.72,13.72,0,0,1,.9-4.9,7.47,7.47,0,0,1,2.7-3.4,7.21,7.21,0,0,1,4-1.2,6.15,6.15,0,0,1,5,2.5v-9h3.1v24.9h-2.9Zm-9.7-9a8.13,8.13,0,0,0,1.5,5.2,4.27,4.27,0,0,0,3.5,1.7,4.42,4.42,0,0,0,3.4-1.6,7.92,7.92,0,0,0,1.4-5c0-2.5-.5-4.3-1.4-5.4a4.27,4.27,0,0,0-3.5-1.7,4.22,4.22,0,0,0-3.4,1.7q-1.5,1.5-1.5,5.1Z"/><line class="cls-2" x1="849.9" y1="209.8" x2="849.9" y2="257.3"/><path class="cls-1" d="M408.8,139.8a2.58,2.58,0,0,1,2.2-2.9h6.1a3.37,3.37,0,0,1,3.4,2.2L433,166l12.5-26.9a3.45,3.45,0,0,1,3.4-2.2h5.4a2.58,2.58,0,0,1,2.9,2.2v42.8a2.58,2.58,0,0,1-2.2,2.9h-7a2.58,2.58,0,0,1-2.9-2.2V165.2l-7.3,17.4a3.59,3.59,0,0,1-3.4,2.3h-2.6a3.33,3.33,0,0,1-3.4-2.3l-7.3-17.3v16.6a2.58,2.58,0,0,1-2.2,2.9h-7.1a2.58,2.58,0,0,1-2.9-2.2v-.7l-.1-42.1Zm68.1-2.9a2.58,2.58,0,0,1,2.9,2.2v42.8a2.58,2.58,0,0,1-2.2,2.9h-7.1a2.58,2.58,0,0,1-2.9-2.2V139.8a2.58,2.58,0,0,1,2.2-2.9h7.1ZM504,184.8a2.58,2.58,0,0,1-2.9-2.2V149.1h-10a2.58,2.58,0,0,1-2.9-2.2v-7.1a2.58,2.58,0,0,1,2.2-2.9h32.9a2.58,2.58,0,0,1,2.9,2.2v7.1a2.58,2.58,0,0,1-2.2,2.9H513.3v32.8a2.58,2.58,0,0,1-2.2,2.9H504ZM550.6,140c-.5-2,.5-3.2,2.6-3.2h6.6a3,3,0,0,1,3.2,2.6l4.5,21.1,5.8-21.2a3.12,3.12,0,0,1,3.2-2.5h7.1a3,3,0,0,1,3.2,2.5l5.8,21.1,4.5-20.9a3,3,0,0,1,3.2-2.6h6.5c2.1,0,3,1.2,2.6,3.2l-9.2,42.2a3,3,0,0,1-3.2,2.6h-7.5a3,3,0,0,1-3.2-2.5l-6.2-22.5-6.2,22.5a3.31,3.31,0,0,1-3.3,2.5h-7.5a3,3,0,0,1-3.2-2.6Zm89.2,46A25.2,25.2,0,1,1,665,160.8a24.4,24.4,0,0,1-7.4,17.7,24.89,24.89,0,0,1-17.8,7.5Zm0-38.1a13,13,0,1,0,9.1,3.8,13,13,0,0,0-9.1-3.8Zm70.3,4.7c0,4.7-1.9,9.6-5.4,12.4a4.19,4.19,0,0,1-1.4.9c-.3.1-.5.2-.8.3l6.5,15.2c.8,2,0,3.4-2.3,3.4h-7.1a3.45,3.45,0,0,1-3.4-2.3l-5.7-14.8h-5.9v14.2a2.58,2.58,0,0,1-2.2,2.9h-7.1a2.58,2.58,0,0,1-2.9-2.2V139.8a2.58,2.58,0,0,1,2.2-2.9H695a15.69,15.69,0,0,1,10.4,3.6,16,16,0,0,1,3.2,4.5,19.81,19.81,0,0,1,1.5,7.6Zm-11.8,0a3.54,3.54,0,0,0-3.3-3.9H684.7v8H694a4.06,4.06,0,0,0,4.3-3.9v-.2Zm32.7,20h17.2a2.58,2.58,0,0,1,2.9,2.2v7.1a2.58,2.58,0,0,1-2.2,2.9H721.7a2.58,2.58,0,0,1-2.9-2.2V139.8a2.58,2.58,0,0,1,2.2-2.9h7.1a2.58,2.58,0,0,1,2.9,2.2v33.5Zm32.5,12.2a2.58,2.58,0,0,1-2.9-2.2V139.8a2.58,2.58,0,0,1,2.2-2.9h16a22.57,22.57,0,0,1,16.5,7.3,24.51,24.51,0,0,1,6.6,16.6,24,24,0,0,1-6.9,16.8,22.32,22.32,0,0,1-16.3,7.1l-15.2.1Zm9.3-35.7v23.4h5.9a10.75,10.75,0,0,0,7.6-3.6,11.74,11.74,0,0,0,3.2-8.2,11.91,11.91,0,0,0-3.2-8.2,10.86,10.86,0,0,0-7.6-3.5Zm91.3,3.5c0,4.7-1.9,9.6-5.4,12.4a17.46,17.46,0,0,1-10.8,3.5h-9.3v13.4a2.58,2.58,0,0,1-2.2,2.9h-7.1a2.58,2.58,0,0,1-2.9-2.2V139.8a2.58,2.58,0,0,1,2.2-2.9H849a15.69,15.69,0,0,1,10.4,3.6,16,16,0,0,1,3.2,4.5,19.81,19.81,0,0,1,1.5,7.6Zm-11.8,0a3.69,3.69,0,0,0-3.4-4H838.6v8h9.3a4.15,4.15,0,0,0,4.4-3.9v-.1Zm30.9,13.9v6.1h18.5a2.58,2.58,0,0,1,2.9,2.2v7.1a2.58,2.58,0,0,1-2.2,2.9H873.9a2.58,2.58,0,0,1-2.9-2.2V139.8a2.58,2.58,0,0,1,2.2-2.9h28.5a2.58,2.58,0,0,1,2.9,2.2v7.1a2.58,2.58,0,0,1-2.2,2.9H883.2v6h13.6a2.58,2.58,0,0,1,2.9,2.2v6.2a2.58,2.58,0,0,1-2.2,2.9h-.7Zm55-29.6a3.45,3.45,0,0,1,3.4,2.3l14.8,42.2c.7,2.1-.1,3.4-2.4,3.4h-7a3.22,3.22,0,0,1-3.3-2.4l-2-5.9H927.4l-2,5.9a3.26,3.26,0,0,1-3.4,2.4h-7c-2.3,0-3.1-1.3-2.4-3.4l14.8-42.2a3.25,3.25,0,0,1,3.3-2.3Zm.7,29-4.5-13.3-4.1,13.3ZM984.2,186a25.2,25.2,0,0,1,.2-50.4,24.82,24.82,0,0,1,17.6,7.3c1.4,1.4,1.2,2.8-.4,4.1l-5.1,4c-1.5,1.2-2.6,1-4.1-.2a12.3,12.3,0,0,0-8.2-2.9,12.9,12.9,0,0,0,0,25.8h0a12.4,12.4,0,0,0,7.9-2.7c1.5-1.1,2.7-1.4,4.1-.1l5,4.2c1.5,1.2,1.7,2.8.2,4.1a24.44,24.44,0,0,1-17.2,6.8Zm40.1-19.5v6.1h18.5a2.58,2.58,0,0,1,2.9,2.2v7.1a2.58,2.58,0,0,1-2.2,2.9H1015a2.58,2.58,0,0,1-2.9-2.2V139.8a2.58,2.58,0,0,1,2.2-2.9h28.5a2.58,2.58,0,0,1,2.9,2.2v7.1a2.58,2.58,0,0,1-2.2,2.9h-19.2v6h13.6a2.58,2.58,0,0,1,2.9,2.2v6.2a2.58,2.58,0,0,1-2.2,2.9h-.7Zm-574,42a2.58,2.58,0,0,1,2.9,2.2V234a25.48,25.48,0,0,1-6.1,16.3,21.5,21.5,0,0,1-30.3,2,13.65,13.65,0,0,1-1.7-1.7,25.4,25.4,0,0,1-6.3-16.6V211.5a2.58,2.58,0,0,1,2.2-2.9h7.1a2.58,2.58,0,0,1,2.9,2.2V234a13,13,0,0,0,2.9,8.4,9,9,0,0,0,12.7,1.4,9.27,9.27,0,0,0,1.4-1.4,12.14,12.14,0,0,0,2.9-8.4V211.5a2.58,2.58,0,0,1,2.2-2.9h.7l6.5-.1Zm16.2,47.9a2.58,2.58,0,0,1-2.9-2.2V211.4a2.58,2.58,0,0,1,2.2-2.9h6.3a4.37,4.37,0,0,1,3.6,1.9l15,21.7V211.4a2.58,2.58,0,0,1,2.2-2.9H500a2.58,2.58,0,0,1,2.9,2.2v42.8a2.58,2.58,0,0,1-2.2,2.9h-6.3a4.37,4.37,0,0,1-3.6-1.9l-15-21.9v20.9a2.58,2.58,0,0,1-2.2,2.9h-7.1Zm56.7-47.9a2.58,2.58,0,0,1,2.9,2.2v42.8a2.58,2.58,0,0,1-2.2,2.9h-7.1a2.58,2.58,0,0,1-2.9-2.2V211.4a2.58,2.58,0,0,1,2.2-2.9h7.1Zm32.5,27.2,8.6-24.9a3.19,3.19,0,0,1,3.4-2.3h6.9c2.1,0,3,1.3,2.3,3.3l-14.6,42.4a3.26,3.26,0,0,1-3.4,2.3h-6.5a3.45,3.45,0,0,1-3.4-2.3l-14.6-42.4c-.7-2,.2-3.3,2.3-3.3h6.9a3.45,3.45,0,0,1,3.4,2.3l8.7,24.9Zm41.1,2.4v6.1h18.5a2.58,2.58,0,0,1,2.9,2.2v7.1a2.58,2.58,0,0,1-2.2,2.9H587.5a2.58,2.58,0,0,1-2.9-2.2V211.4a2.58,2.58,0,0,1,2.2-2.9h28.5a2.58,2.58,0,0,1,2.9,2.2v7.1a2.58,2.58,0,0,1-2.2,2.9H596.8v6h13.6a2.58,2.58,0,0,1,2.9,2.2v6.2a2.58,2.58,0,0,1-2.2,2.9h-.7Zm69.7-13.9c0,4.7-1.9,9.6-5.4,12.4a4.19,4.19,0,0,1-1.4.9c-.3.1-.5.2-.8.3l6.5,15.2c.8,2,0,3.4-2.3,3.4H656a3.45,3.45,0,0,1-3.4-2.3l-5.7-14.8H641v14.2a2.58,2.58,0,0,1-2.2,2.9h-7.1a2.58,2.58,0,0,1-2.9-2.2V211.4a2.58,2.58,0,0,1,2.2-2.9h20.4a15.69,15.69,0,0,1,10.4,3.6,16,16,0,0,1,3.2,4.5,22.34,22.34,0,0,1,1.5,7.6Zm-11.9,0a3.54,3.54,0,0,0-3.3-3.9H641v8h9.3a4.06,4.06,0,0,0,4.3-3.9v-.2Zm47,20.7a2.4,2.4,0,0,0,1.2-2,2,2,0,0,0-.6-1.8,5.55,5.55,0,0,0-.8-.6,12.81,12.81,0,0,0-4.2-1.7c-1.2-.3-2.6-.6-4.3-1-7.1-1.5-13.3-4.2-15.8-7.8a13.48,13.48,0,0,1-2.1-6.2,12.52,12.52,0,0,1,.6-5.4,14.33,14.33,0,0,1,7-8.1,23.51,23.51,0,0,1,12.2-3,36.26,36.26,0,0,1,9.8,1.4,28.07,28.07,0,0,1,6.3,3c1.6,1,1.9,2.4.6,4l-3.5,4.9c-1,1.5-2.3,1.8-4,.8a19,19,0,0,0-9.3-2.7,9.87,9.87,0,0,0-5,1.1,4.14,4.14,0,0,0-1.8,1.9c-.5,1.3.1,2.2,1.2,2.9a18.22,18.22,0,0,0,5,1.6c10.1,2,15.5,4.7,17.9,7.8a14.16,14.16,0,0,1,2.5,11.3,12.67,12.67,0,0,1-5.1,8.5c-3,2.4-7.6,4-13.9,4h-1.2a5.7,5.7,0,0,1-1.3-.1,36.93,36.93,0,0,1-17.2-5c-1.8-1-2-2.5-.8-4.1l4.3-5.4a2.74,2.74,0,0,1,4.1-.7,22.12,22.12,0,0,0,9.7,3.4c3.9.4,7.1,0,8.5-1Zm30.8-36.4a2.58,2.58,0,0,1,2.9,2.2v42.8a2.58,2.58,0,0,1-2.2,2.9H726a2.58,2.58,0,0,1-2.9-2.2V211.4a2.58,2.58,0,0,1,2.2-2.9h7.1Zm27.1,47.9a2.58,2.58,0,0,1-2.9-2.2V220.7h-10a2.58,2.58,0,0,1-2.9-2.2v-7.1a2.58,2.58,0,0,1,2.2-2.9h32.9a2.58,2.58,0,0,1,2.9,2.2v7.1a2.58,2.58,0,0,1-2.2,2.9H768.8v32.8a2.58,2.58,0,0,1-2.2,2.9h-7.1Zm46.1,0a2.58,2.58,0,0,1-2.9-2.2V234.1L788.9,212c-1.2-2-.5-3.5,1.9-3.5h7.7a4.07,4.07,0,0,1,3.5,1.9l6.7,10.8,6.7-10.8a3.86,3.86,0,0,1,3.5-1.9h7.7c2.4,0,3.2,1.5,1.9,3.5L815,234.2v19.4a2.58,2.58,0,0,1-2.2,2.9h-.7Z"/><path class="cls-1" d="M65.6,292.5H63.1V277.1h2.5Zm-2.5,0Zm8.9,0H69.5V277.1H72Zm-2.4,0ZM81,279.3v-2.2h2.2a4.67,4.67,0,0,1-.3-1.7,4.22,4.22,0,0,1,1.7-3.4,6.56,6.56,0,0,1,4.1-1.4,11.67,11.67,0,0,1,6.1,1.7,11,11,0,0,1,4.2,4.6H96.5a7.72,7.72,0,0,0-3.2-3,10.49,10.49,0,0,0-4.7-1.1,3.69,3.69,0,0,0-2.3.7,2.06,2.06,0,0,0-1,1.7,4.67,4.67,0,0,0,.3,1.7h2.7v2.2H86v13.1H83.5V279.1H81Zm6.8,0v-2.2h13.9v2.2H99.2v13.1H96.7v-3.9a2,2,0,0,1-1.2.8,5.08,5.08,0,0,1-1.7.3,4.67,4.67,0,0,1-3.4-1.3,4.15,4.15,0,0,1-.4-5.9c.1-.2.3-.3.4-.4a5.08,5.08,0,0,1,3.5-1.3,7.57,7.57,0,0,1,1.5.1l1,.3-.6,2.3c-.2-.1-.5-.2-.7-.3a4.87,4.87,0,0,0-1.2-.1,2.52,2.52,0,0,0-1.7.6,2.14,2.14,0,0,0-.3,2.8l.3.3a2.24,2.24,0,0,0,1.7.6,3.29,3.29,0,0,0,1.7-.4,3.45,3.45,0,0,0,1.2-1.2v-6.4Zm14.1,4.8,3.2-1.7a2.54,2.54,0,0,1-1.2-1.1,2.46,2.46,0,0,1-.5-1.5,3.26,3.26,0,0,1,1-2.3,3.69,3.69,0,0,1,5,0,2.8,2.8,0,0,1,1,2.4,2.1,2.1,0,0,1-.4,1.1,4.26,4.26,0,0,1-1.1,1.2l3.2,1.3v-4.2h-.8v-2.2H117v2.2h-2.5v13.1H112v-2.1a4.75,4.75,0,0,1-1.9.9,12.22,12.22,0,0,1-2.6.3,4.53,4.53,0,0,1-3-1,2.77,2.77,0,0,1-.7-3.9,2.34,2.34,0,0,1,.7-.7,4.72,4.72,0,0,1,3-1,5.83,5.83,0,0,1,2.6.6l-.6,2.3a8.3,8.3,0,0,0-2.1-.6,2.38,2.38,0,0,0-1.2.3.74.74,0,0,0,0,1.4,2.77,2.77,0,0,0,1.3.3,8.42,8.42,0,0,0,2.7-.4,3.6,3.6,0,0,0,1.8-1.2v-2.2l-5.2-2-4.1,2.2-.8-1.5Zm5.1-2.9a2.18,2.18,0,0,0,.8-.5,1.08,1.08,0,0,0,.3-.7,1.11,1.11,0,0,0-1.1-1.1.78.78,0,0,0-.7.3,1.14,1.14,0,0,0-.3.8.91.91,0,0,0,.3.7c.1.2.4.3.7.5Zm10.4,5.7,1.7-1.8,1.2,1.1a4.84,4.84,0,0,0,2.6-.7,2.69,2.69,0,0,0,1.3-1.8,2.72,2.72,0,0,1-1.7.6,4.62,4.62,0,0,1-3-1.1,3.22,3.22,0,0,1-1.2-2.6,3.57,3.57,0,0,1,1.2-2.7,4.14,4.14,0,0,1,6,.4,6,6,0,0,1,1.2,3.9,6.12,6.12,0,0,1-1.3,3.9,4.81,4.81,0,0,1-3.2,2l3.7,3.2-1.6,1.7Zm5.1-4.9a2.92,2.92,0,0,0,.9-.2,1,1,0,0,0,.9-1.2,1.07,1.07,0,0,0-.7-.9,1.45,1.45,0,0,0-1.4-.6,1.47,1.47,0,0,0-1.5,1.5v.1a1.05,1.05,0,0,0,.5.9,2.84,2.84,0,0,0,1.3.4Zm6.8,10.5V279.4h-2.5v-2.2h7.4v2.2h-2.5v13.1Zm4.3-13.2v-2.2H141v2.2h-2.5v13.1H136V279.3Zm6.7,0v-2.2h2.5a2,2,0,0,1-.4-.8,3.55,3.55,0,0,1-.2-1,3.92,3.92,0,0,1,2.1-3.5,8.28,8.28,0,0,1,5-1.4,19.69,19.69,0,0,1,7.9,1.7,29.82,29.82,0,0,1,7.8,4.8h-3.2c-4.8-2.8-9-4.2-12.4-4.2a6.81,6.81,0,0,0-3.4.8,2.47,2.47,0,0,0-1.4,2,2.92,2.92,0,0,0,.2.9,2.7,2.7,0,0,0,.7.8h2.1v2.2h-2.5v13.1h-2.5V279.4l-2.3-.1Zm15.8,0h-9v-2.2h9Zm-9,0Zm4.2,8.3c-.5,0-1.1-.6-2-1.7a5,5,0,0,1-1.3-2.6,1.07,1.07,0,0,1,.2-.6.55.55,0,0,1,.5-.3h8.4v2.3h-4.3a.71.71,0,0,0-.6.6V287a.76.76,0,0,1-.2.5c-.3,0-.5.1-.7.1Zm2.2-8.3v-2.2h15.6v2.2h-2.5v13.1h-2.5v-8.7h-5.6a1.28,1.28,0,0,0-1,.4,1,1,0,0,0-.4.9,5.71,5.71,0,0,0,1,3.1,9.68,9.68,0,0,0,2.9,2.8l-1.4,1.7a16.24,16.24,0,0,1-3.7-3.7,6.7,6.7,0,0,1-1.3-3.8,3.25,3.25,0,0,1,1.1-2.5,3.39,3.39,0,0,1,2.7-1H164v-2.2l-10.5-.1Zm14.9.1a3.74,3.74,0,0,1,1-2.5,3.19,3.19,0,0,1,2.6-1,3.41,3.41,0,0,1,2.4.9,2.81,2.81,0,0,1,1,2.1,2.27,2.27,0,0,1-.9,1.8,3.14,3.14,0,0,1-2.1.7l-.6-1.7a1.88,1.88,0,0,0,.8-.2.6.6,0,0,0,.3-.6.85.85,0,0,0-.3-.5,1.42,1.42,0,0,0-.6-.2.91.91,0,0,0-.8.4,1.4,1.4,0,0,0-.3.9,3.37,3.37,0,0,0,.5,1.7,6.2,6.2,0,0,0,1.4,1.4,4.55,4.55,0,0,1,2-.5l.4,2.2a4.2,4.2,0,0,0-2.1.6,1.94,1.94,0,0,0-.9,1.4,1.25,1.25,0,0,0,.6,1.1,2.39,2.39,0,0,0,1.4.5,5,5,0,0,0,2.4-.6,5.17,5.17,0,0,0,1.8-1.8v-5.9h-2.5v-2.2h7.4v2.2H181v13.1h-2.5v-4.2a4.63,4.63,0,0,1-1.8,1.3,6.72,6.72,0,0,1-2.4.4,5.17,5.17,0,0,1-3.2-1.1,3.4,3.4,0,0,1-1-4.2,2.19,2.19,0,0,1,.9-1,5.46,5.46,0,0,1-1.9-1.8,7.21,7.21,0,0,1-.7-2.7Zm2.7,12.7,8.7-6.9v2.5l-7.4,6-1.3-1.6Zm-.6,4.3,1.1-1.6a9,9,0,0,0,3.2,1.7,14,14,0,0,0,4.1.6,4.14,4.14,0,0,0,1.9-.5,1.56,1.56,0,0,0,.8-1.3,1.05,1.05,0,0,0-.5-.9,2.14,2.14,0,0,0-1.2-.4,2.92,2.92,0,0,0-.9.2,5.55,5.55,0,0,0-.8.6l-1.4-1.5a5.37,5.37,0,0,1,1.6-1,3.26,3.26,0,0,1,1.4-.4,3.94,3.94,0,0,1,2.7,1,3.19,3.19,0,0,1,1.1,2.4,3.5,3.5,0,0,1-1.4,2.8,4.81,4.81,0,0,1-3.4,1.1,14.26,14.26,0,0,1-4.6-.7,9.83,9.83,0,0,1-3.7-2.1Zm7.3-22.4a3.25,3.25,0,0,1,1.1-2.5,3.78,3.78,0,0,1,2.7-1,5,5,0,0,1,2.1.5l-.4,1.7a4.67,4.67,0,0,0-1.7-.3,1.71,1.71,0,0,0-1.7,1.7,2.3,2.3,0,0,0,.4,1.4,7.55,7.55,0,0,0,1.1,1.4h-2.2a4.12,4.12,0,0,1-1-1.3,4.19,4.19,0,0,1-.4-1.6Zm5.5,5.3v-2.2h13.9v2.2h-2.5v13.1h-2.5v-3.9a2,2,0,0,1-1.2.8,5.08,5.08,0,0,1-1.7.3,4.67,4.67,0,0,1-3.4-1.3,4.15,4.15,0,0,1-.4-5.9c.1-.2.3-.3.4-.4a5.08,5.08,0,0,1,3.5-1.3,7.57,7.57,0,0,1,1.5.1l1,.3-.6,2.3c-.2-.1-.5-.2-.7-.3a4.87,4.87,0,0,0-1.2-.1,2.72,2.72,0,0,0-1.7.6,2.14,2.14,0,0,0-.3,2.8l.3.3a2.24,2.24,0,0,0,1.7.6,3.29,3.29,0,0,0,1.7-.4,3.45,3.45,0,0,0,1.2-1.2v-6.4Zm11.8-5.6H192v-3.1h3.1Zm-8.1,0Zm14.2,5.7a3.74,3.74,0,0,1,1-2.5,3.19,3.19,0,0,1,2.6-1,3.41,3.41,0,0,1,2.4.9,2.81,2.81,0,0,1,1,2.1,2.27,2.27,0,0,1-.9,1.8,3.32,3.32,0,0,1-2.1.7l-.6-1.7a1.88,1.88,0,0,0,.8-.2.6.6,0,0,0,.3-.6.85.85,0,0,0-.3-.5,1.42,1.42,0,0,0-.6-.2.91.91,0,0,0-.8.4,1.4,1.4,0,0,0-.3.9,3.37,3.37,0,0,0,.5,1.7,6.2,6.2,0,0,0,1.4,1.4,4.55,4.55,0,0,1,2-.5l.4,2.2a3.94,3.94,0,0,0-2.1.6,1.94,1.94,0,0,0-.9,1.4,1.25,1.25,0,0,0,.6,1.1,2.39,2.39,0,0,0,1.4.5,5,5,0,0,0,2.4-.6,5.17,5.17,0,0,0,1.8-1.8v-5.9h-2.5v-2.2h7.4v2.2h-2.5v13.1h-2.5v-4.2a4.63,4.63,0,0,1-1.8,1.3,6.72,6.72,0,0,1-2.4.4,5.17,5.17,0,0,1-3.2-1.1,3.68,3.68,0,0,1-1.3-2.7,4,4,0,0,1,.3-1.5,2.19,2.19,0,0,1,.9-1,5.46,5.46,0,0,1-1.9-1.8,9.12,9.12,0,0,1-.5-2.7Zm2.6,12.7,8.7-6.9v2.5l-7.4,6Zm-.5,4.3,1.1-1.6a9,9,0,0,0,3.2,1.7,14,14,0,0,0,4.1.6,4.14,4.14,0,0,0,1.9-.5,1.56,1.56,0,0,0,.8-1.3,1.05,1.05,0,0,0-.5-.9,2.45,2.45,0,0,0-1.2-.4,2.92,2.92,0,0,0-.9.2,5.55,5.55,0,0,0-.8.6l-1.4-1.5a5.37,5.37,0,0,1,1.6-1,3.26,3.26,0,0,1,1.4-.4,3.94,3.94,0,0,1,2.7,1,3.19,3.19,0,0,1,1.1,2.4,3.5,3.5,0,0,1-1.4,2.8,4.81,4.81,0,0,1-3.4,1.1,14.26,14.26,0,0,1-4.6-.7,9.83,9.83,0,0,1-3.7-2.1Zm12.6-17.1v-2.2h13.9v2.2h-2.5v13.1h-2.5v-3.9a2,2,0,0,1-1.2.8,5.08,5.08,0,0,1-1.7.3,4.67,4.67,0,0,1-3.4-1.3,4.15,4.15,0,0,1-.4-5.9l.4-.4a5.08,5.08,0,0,1,3.5-1.3,7.57,7.57,0,0,1,1.5.1l1,.3-.6,2.3c-.2-.1-.5-.2-.7-.3a4.87,4.87,0,0,0-1.2-.1,2.52,2.52,0,0,0-1.7.6,2.14,2.14,0,0,0-.3,2.8l.3.3a2.24,2.24,0,0,0,1.7.6,3.29,3.29,0,0,0,1.7-.4,3.45,3.45,0,0,0,1.2-1.2v-6.4Zm13.3,0v-2.2h7.4v2.2h-2.5v13.1h-2.5V279.3Zm17.4,13.2h-2.5V277.1h2.5Zm-2.4,0Zm8.9,0h-2.5V277.1h2.5Zm-2.5,0Z"/><path class="cls-3" d="M159,17.4h-2.8l-.1-.1a2.59,2.59,0,0,1-.7-1.1,3.19,3.19,0,0,1,.3-1.4,21.64,21.64,0,0,1,3.6,0,2.2,2.2,0,0,1,.4,1.3,2.22,2.22,0,0,1-.5,1.1l-.2.2Zm-3.8,2.7h0a19.28,19.28,0,0,1,4.8,0V18.5h-4.8Zm-3.5,3.2h0a40.32,40.32,0,0,1,6-.4,58.45,58.45,0,0,1,5.9.4V21.9h0a56.1,56.1,0,0,0-5.9-.6,30.53,30.53,0,0,0-6,.6h0v1.4Zm-.3,4.6h13.1l2.5.4V25.8a58.62,58.62,0,0,0-9.4-.7,59.49,59.49,0,0,0-9.4.7v2.7l3.2-.6Zm-.1,18.7h0c-.6,0-1.1.1-1.7.1l.5-13.4,1.3.2Zm10.4-.1h0c-1.3,0-2.7-.1-4.1-.1h-2.7l.4-12.9h5.9l.5,13Zm4.8.3h0c-.6,0-1.1-.1-1.7-.1l-.1-13.1,1.3-.2ZM76.7,145.1h0c5.5-48.6,34.1-86.8,70.2-93.2-12.6,13.2-22.1,48.9-24.1,92.7C106.3,144.7,90.8,144.9,76.7,145.1Zm-28.9.6h0a111.14,111.14,0,0,1,73.9-88.8c-26.1,16-45.2,48.9-49.5,88.3C63.4,145.3,55.3,145.5,47.8,145.7Zm224.3.1h0A115.65,115.65,0,0,0,169.3,47l-.6-14.2.5-.1,4.6-.8V29.6l-4.6-.8-1.2-.2V25l-.7-.1-2.2-.3v-1l-.6-.1-.4-.1v-2l-.5-.1-2-.3v-.7c-.4-.1-.8-.1-1.2-.2V18h-1.2l.2-.1a2.94,2.94,0,0,0,1-1.8,3.06,3.06,0,0,0-.7-2c-.3,0-.5-.1-.8-.1-.2-.4-.5-.7-.7-1.1.1,0,.1-.1.2-.2a1.27,1.27,0,0,0,0-1.8h0a1.4,1.4,0,0,0,.9-1.2,1.49,1.49,0,0,0-1.2-1.3c.1-.1.2-.1.3-.2a1.27,1.27,0,0,0,0-1.8l-.2-.2c.1-.1.2-.1.3-.2a1.28,1.28,0,0,0,.4-1A27.46,27.46,0,0,0,157.5.1,30.06,30.06,0,0,0,156.1,5a1.78,1.78,0,0,0,.4,1c.1.1.2.2.3.2-.1.1-.2.1-.2.2a1.27,1.27,0,0,0,0,1.8c.1.1.2.2.3.2a1.38,1.38,0,0,0-1.2,1.3,1.4,1.4,0,0,0,.9,1.2h0a1.27,1.27,0,0,0,0,1.8c0,.1.1.1.2.1h0l-.8,1.1h-.7a4,4,0,0,0-.6,2.2,2.45,2.45,0,0,0,1.1,1.7h-1v2.1c-.4.1-.8.1-1.1.2V21l-2,.3-.5.1v1.9l-.4.1-.5.1v1l-2.2.3-.7.1v3.7l-.4.1-4.6.8v2.3l4.6.8.5.1L146.7,47A115.7,115.7,0,0,0,43.2,145.9c-18.3.5-31.8,1.1-38.5,1.8v8c.5,0,1-.1,1.5-.1v-5.4l.8-.1v4.5l3.9-.4v-4.5l.8-.1v5.5l6-.3v-5.7l1.7-.1v4.6l7.7-.4v-4.6l1.7-.1v5.7l10.1-.3v-5.7l2.6-.1v4.8l11.8-.4v-4.8l2.6-.1v5.8h1l13.3-.3v-6.4h3.2v5.2H88.3v-5.2h3.2v6.1c5.4-.1,11.1-.1,16.8-.2v-6.7H112v5.2h17v-5.2h3.7v6.6h12.6V147h3.8v5.1h17.7V147h3.8v5.6h12.5V147h3.7v5.1h17V147h3.7v5.8c5.8,0,11.4.1,16.8.2v-6h3.2v5.1h14.9V147h3.2v6.3l13.1.3H260v-5.7l2.6.1v4.7l11.8.4v-4.7l2.6.1v5.6l10.1.3v-5.7l1.7.1v4.5l7.7.4v-4.5l1.7.1v5.6l6,.3v-5.5l.8.1v4.4l3.9.4v-4.4l.8.1v5.4a7.08,7.08,0,0,0,1.4.1v-8.1c-6.3-.7-20.1-1.4-39-1.9Zm-29-.6h0c-4.3-39.3-23.4-72.2-49.5-88.3a111.31,111.31,0,0,1,73.9,88.8c-7.4-.2-15.6-.4-24.4-.5Zm-50.6-.6h0c-2-43.8-11.5-79.5-24.1-92.7,36,6.4,64.7,44.6,70.2,93.2-14.1-.2-29.6-.4-46.1-.5ZM259.2,156h0c27.1.6,46.5,1.4,53.9,2.4V157c-7.2-1-26.7-1.8-53.9-2.4s-62.6-1-101.1-1-73.7.4-101.1,1c-27.2.6-46.7,1.4-53.9,2.4v1.3c7.4-.9,26.8-1.8,53.9-2.4,27.5-.6,62.7-1,101.1-1S231.7,155.4,259.2,156ZM16.6,166.9h0c-.3-1-.7-1.6-1.2-1.6s-.9.6-1.2,1.6a14,14,0,0,0-.5,4.1v9.6h3.4v-9.4h0V171a18.41,18.41,0,0,0-.5-4.1Zm1.3,2.9h0l.1,10.8h-.5v-10h0a15.4,15.4,0,0,0-.6-4.3c-.4-1.2-.9-1.9-1.4-1.9s-1.1.7-1.4,1.9a15.93,15.93,0,0,0-.6,4.3h0v10H13V169.8h0a18.51,18.51,0,0,1,.7-4.1q.75-2.1,1.8-2.1t1.8,2.1a27,27,0,0,1,.6,4.1Zm7.3-2.9h0c-.5-1-1.1-1.6-1.7-1.6s-1.3.6-1.7,1.6A11.5,11.5,0,0,0,21,171v9.6h5v-9.4h0V171a11.09,11.09,0,0,0-.8-4.1Zm1.7,2.9h0l.1,10.8h-.6v-10h0a10.7,10.7,0,0,0-.9-4.3c-.5-1.2-1.3-1.9-2.1-1.9s-1.5.7-2,1.9a10.7,10.7,0,0,0-.9,4.3h0v10h-.6V169.8H20a11.75,11.75,0,0,1,1-4.1q1-2.1,2.4-2.1c.9,0,1.8.7,2.4,2.1a10,10,0,0,1,1.1,4.1Zm13.3-2.9h0a2.86,2.86,0,0,0-3.7-1.4,3.16,3.16,0,0,0-1.4,1.4,8.19,8.19,0,0,0-1.2,4.1v9.7h7.5v-9.4h0v-.2a7.39,7.39,0,0,0-1.2-4.2Zm2.3,2.9h0l.1,10.8H42v-10h0a9.38,9.38,0,0,0-1.3-4.3,3.28,3.28,0,0,0-4.4-1.6,3.12,3.12,0,0,0-1.6,1.6,8.32,8.32,0,0,0-1.3,4.3h0v10h-.6V169.8h.1a8.38,8.38,0,0,1,1.4-4.1,3.72,3.72,0,0,1,5.1-1.7,4.62,4.62,0,0,1,1.7,1.7,9.13,9.13,0,0,1,1.4,4.1Zm16.8-2.9h0a3.68,3.68,0,0,0-5.1-1,4.74,4.74,0,0,0-1,1,6.77,6.77,0,0,0-1.4,4.1v9.6h8.9v-9.4h0V171a8.38,8.38,0,0,0-1.4-4.1Zm2.6,2.9h0l.1,10.8h-.6v-10h0a7.32,7.32,0,0,0-1.6-4.3,4.25,4.25,0,0,0-6-1.1,3.84,3.84,0,0,0-1.1,1.1,8.71,8.71,0,0,0-1.6,4.3h0v10h-.6V169.8h.1a8.77,8.77,0,0,1,1.7-4.1,4.83,4.83,0,0,1,6.7-1.3,5.35,5.35,0,0,1,1.3,1.3,9.79,9.79,0,0,1,1.6,4.1Zm20.8-2.9h0a5.22,5.22,0,0,0-7.4-.2l-.2.2a5.66,5.66,0,0,0-1.7,4.1v9.7H84.5v-9.4h0v-.2a6.24,6.24,0,0,0-1.8-4.2Zm3.3,2.9h0l.1,10.8h-.7v-10h-.1a6.81,6.81,0,0,0-1.9-4.3,6.16,6.16,0,0,0-8.7-.2l-.2.2a7,7,0,0,0-1.9,4.3h0v10h-.7V169.8H72a8.08,8.08,0,0,1,2.1-4.1,6.91,6.91,0,0,1,9.7-.2l.2.2a8.77,8.77,0,0,1,2,4.1Zm21.3-2.9h0a5.8,5.8,0,0,0-8.1,0,6.3,6.3,0,0,0-1.9,4.1v9.7h11.9v-9.4h0v-.2a5.73,5.73,0,0,0-1.9-4.2Zm3.5,2.9h.2v10.8h-.8v-10h-.1a6.55,6.55,0,0,0-2.1-4.3,6.94,6.94,0,0,0-11.7,4.3h0v10h-.8V169.8h.1a7.68,7.68,0,0,1,12.9-4.1,6.59,6.59,0,0,1,2.3,4.1Zm26.3-2.9h0a5.8,5.8,0,0,0-8.1,0,6.3,6.3,0,0,0-1.9,4.1v9.7H139v-9.4h0v-.2a5.73,5.73,0,0,0-1.9-4.2Zm3.5,2.9h.2v10.8H140v-10h0a6.55,6.55,0,0,0-2.1-4.3,6.94,6.94,0,0,0-11.7,4.3h0v10h-.8V169.8h.1a7.68,7.68,0,0,1,12.9-4.1,6.94,6.94,0,0,1,2.2,4.1Zm23.9-2.9h0a5.8,5.8,0,0,0-8.1,0,6.3,6.3,0,0,0-1.9,4.1v9.7h11.9v-9.4h0v-.2a5.73,5.73,0,0,0-1.9-4.2Zm3.5,2.9h.2v10.8h-.8v-10h-.1a6.55,6.55,0,0,0-2.1-4.3,6.94,6.94,0,0,0-11.7,4.3h0v10h-.8V169.8h.1a7.68,7.68,0,0,1,12.9-4.1,6.59,6.59,0,0,1,2.3,4.1Zm136.4-2.9h0c.3-1,.7-1.6,1.2-1.6s.8.6,1.1,1.6a14,14,0,0,1,.5,4.1v9.6h-3.4v-9.4h0V171a18.44,18.44,0,0,1,.6-4.1Zm-1.3,2.9h0l-.1,10.8h.5v-10h0a15.4,15.4,0,0,1,.6-4.3c.4-1.2.9-1.9,1.4-1.9s1,.7,1.4,1.9a15.93,15.93,0,0,1,.6,4.3h0v10h.5V169.8h0a18.51,18.51,0,0,0-.7-4.1q-.75-2.1-1.8-2.1t-1.8,2.1a18.44,18.44,0,0,0-.6,4.1Zm-7.3-2.9h0c.5-1,1.1-1.6,1.7-1.6s1.3.6,1.7,1.6a11.5,11.5,0,0,1,.8,4.1v9.6h-5v-9.4h0V171a9.39,9.39,0,0,1,.8-4.1Zm-1.8,2.9h0l-.1,10.8h.6v-10h0a10.7,10.7,0,0,1,.9-4.3c.5-1.2,1.3-1.9,2.1-1.9s1.5.7,2.1,1.9a10.7,10.7,0,0,1,.9,4.3h0v10h.6V169.8H301a11.75,11.75,0,0,0-1-4.1q-1-2.1-2.4-2.1c-.9,0-1.8.7-2.4,2.1a10.18,10.18,0,0,0-1.2,4.1Zm-13.3-2.9h0a2.86,2.86,0,0,1,3.7-1.4,3.16,3.16,0,0,1,1.4,1.4A7.3,7.3,0,0,1,287,171v9.7h-7.5v-9.4h0v-.2a9.38,9.38,0,0,1,1.2-4.2Zm-2.3,2.9h0l-.1,10.8h.6v-10h0a8.32,8.32,0,0,1,1.3-4.3,3.28,3.28,0,0,1,4.4-1.6,3.54,3.54,0,0,1,1.6,1.6,8.32,8.32,0,0,1,1.3,4.3h0v10h.6V169.8H288a8.38,8.38,0,0,0-1.4-4.1,3.72,3.72,0,0,0-5.1-1.7,4.62,4.62,0,0,0-1.7,1.7,12.47,12.47,0,0,0-1.4,4.1Zm-16.7-2.9h0a3.68,3.68,0,0,1,5.1-1,4.74,4.74,0,0,1,1,1,6.77,6.77,0,0,1,1.4,4.1v9.6h-8.9v-9.4h0V171a6.77,6.77,0,0,1,1.4-4.1Zm-2.6,2.9H259v10.8h.6v-10h0a7.32,7.32,0,0,1,1.6-4.3,4.25,4.25,0,0,1,6-1.1,5.73,5.73,0,0,1,1.1,1.1,8.37,8.37,0,0,1,1.6,4.3h0v10h.6V169.8h-.1a8.77,8.77,0,0,0-1.7-4.1,4.83,4.83,0,0,0-6.7-1.3,5.35,5.35,0,0,0-1.3,1.3,8.63,8.63,0,0,0-1.6,4.1Zm-20.9-2.9h0a5.22,5.22,0,0,1,7.4-.2l.2.2a5.66,5.66,0,0,1,1.7,4.1v9.7H236.4v-9.4h0v-.2a7.33,7.33,0,0,1,1.8-4.2Zm-3.2,2.9h-.1v10.8h.7v-10h.1a6.81,6.81,0,0,1,1.9-4.3,6.16,6.16,0,0,1,8.7-.2l.2.2a7,7,0,0,1,1.9,4.3h0v10h.7V169.8H249a8.08,8.08,0,0,0-2.1-4.1,6.91,6.91,0,0,0-9.7-.2l-.2.2a7.92,7.92,0,0,0-2,4.1Zm-21.4-2.9h0a5.8,5.8,0,0,1,8.1,0,6.3,6.3,0,0,1,1.9,4.1v9.7H211.7v-9.4h0v-.2a6.12,6.12,0,0,1,1.9-4.2Zm-3.5,2.9H210v10.8h.8v-10h.1a6.55,6.55,0,0,1,2.1-4.3,6.94,6.94,0,0,1,11.7,4.3h0v10h.8V169.8h-.1a7.68,7.68,0,0,0-12.9-4.1,7.26,7.26,0,0,0-2.4,4.1Zm-26.3-2.9h0a5.8,5.8,0,0,1,8.1,0,6.3,6.3,0,0,1,1.9,4.1v9.7H181.9v-9.4h0v-.2a6.12,6.12,0,0,1,1.9-4.2Zm-3.5,2.9h-.2v10.8h.8v-10h.1a6.55,6.55,0,0,1,2.1-4.3,6.94,6.94,0,0,1,11.7,4.3h0v10h.8V169.8h-.1a7.68,7.68,0,0,0-12.9-4.1,7.69,7.69,0,0,0-2.3,4.1Zm132.5-9.2h0v22.3H8.2V161.1c-5.3-.4-8.2-.9-8.2-1.3,0-.2.7-.5,2-.7v.6l.6-.1c6.8-1,26.5-1.8,54.4-2.5,27.3-.6,62.6-1,101.1-1s73.7.4,101.1,1c27.8.6,47.6,1.5,54.4,2.5l.6.1v-.6c1.3.2,2,.4,2,.7s-1.2.6-3.4.8Zm-4.4-1h0v21H311v-21Zm-29.1,0h0v2.3h25.6v-2.3Zm-5.5,0h0v21h2.6v-21Zm-58.6,0h0v2.3h49.5v-2.3Zm-13.3,0h0v21H206v-21Zm-76.7,0h0v2.3h70.4v-2.3Zm-10.2,0h0v21h4.1v-21Zm-58.7,0h0v2.3h49.5v-2.3Zm-11.7,0h0v21h2.6v-21Zm-28.8,0h0v2.3H41.4v-2.3Zm-5.9,0h0v21h2.6v-21ZM157.7,51.5h0c15.1,0,27.5,40.3,29.8,93.1-9.5,0-19.3-.1-29.4-.1-10.3,0-20.5,0-30.3.1C130.1,91.9,142.6,51.5,157.7,51.5Z"/><path class="cls-1" d="M8.2,204.9a2.58,2.58,0,0,1,2.2-2.9h6.1a3.37,3.37,0,0,1,3.4,2.2L32.3,231l12.5-26.8a3.45,3.45,0,0,1,3.4-2.2h5.4a2.58,2.58,0,0,1,2.9,2.2v42.7a2.58,2.58,0,0,1-2.2,2.9H47.2a2.58,2.58,0,0,1-2.9-2.2V230.2L37,247.5a3.59,3.59,0,0,1-3.4,2.3H31a3.33,3.33,0,0,1-3.4-2.3l-7.2-17.2v16.6a2.58,2.58,0,0,1-2.2,2.9H11.1a2.58,2.58,0,0,1-2.9-2.2V204.9Z"/><path class="cls-1" d="M74.8,202a2.58,2.58,0,0,1,2.9,2.2v42.7a2.58,2.58,0,0,1-2.2,2.9H68.4a2.58,2.58,0,0,1-2.9-2.2V204.9a2.58,2.58,0,0,1,2.2-2.9h7.1Z"/><path class="cls-1" d="M101.8,249.8a2.58,2.58,0,0,1-2.9-2.2V214.2H89a2.58,2.58,0,0,1-2.9-2.2v-7.1a2.58,2.58,0,0,1,2.2-2.9H121a2.58,2.58,0,0,1,2.9,2.2v7.1a2.58,2.58,0,0,1-2.2,2.9H111.1v32.7a2.58,2.58,0,0,1-2.2,2.9h-7.1Z"/><path class="cls-1" d="M146.9,221.6a2.58,2.58,0,0,1,2.9,2.2v3.9a2.58,2.58,0,0,1-2.2,2.9H132.1a2.58,2.58,0,0,1-2.9-2.2v-3.9a2.58,2.58,0,0,1,2.2-2.9h15.5Z"/><path class="cls-1" d="M156.8,205.1c-.5-2,.5-3.2,2.6-3.2H166a3,3,0,0,1,3.2,2.6l4.5,21,5.7-21.1a3.12,3.12,0,0,1,3.2-2.5h7a3,3,0,0,1,3.2,2.5l5.7,21,4.5-20.8a3,3,0,0,1,3.2-2.6h6.5c2.1,0,3,1.2,2.6,3.2l-9.2,42.1a3,3,0,0,1-3.2,2.6h-7.5a3,3,0,0,1-3.2-2.5l-6.1-22.5L180,247.4a3.34,3.34,0,0,1-3.3,2.5h-7.5a3,3,0,0,1-3.2-2.6l-9.2-42.2Z"/><path class="cls-1" d="M261,217.7c0,4.7-1.9,9.6-5.4,12.3a17.17,17.17,0,0,1-10.7,3.5h-9.2v13.4a2.58,2.58,0,0,1-2.2,2.9h-7.1a2.58,2.58,0,0,1-2.9-2.2V204.9a2.58,2.58,0,0,1,2.2-2.9H246a15.26,15.26,0,0,1,10.3,3.6,16,16,0,0,1,3.2,4.5,18.1,18.1,0,0,1,1.5,7.6Zm-11.7,0h0a3.55,3.55,0,0,0-3.4-3.9H235.6v8h9.2a4.15,4.15,0,0,0,4.4-3.9A.31.31,0,0,0,249.3,217.7Z"/><path class="cls-1" d="M312.8,227.4a25.69,25.69,0,0,1-6.1,16.3,21.38,21.38,0,0,1-30.2,2,13.65,13.65,0,0,1-1.7-1.7,25.93,25.93,0,0,1-6.3-16.6V204.9a2.58,2.58,0,0,1,2.2-2.9h7.1a2.58,2.58,0,0,1,2.9,2.2v23.2a12.56,12.56,0,0,0,2.9,8.3,8.93,8.93,0,0,0,12.6,1.4,9.27,9.27,0,0,0,1.4-1.4,12.56,12.56,0,0,0,2.9-8.3V204.9a2.58,2.58,0,0,1,2.2-2.9h7.2a2.58,2.58,0,0,1,2.9,2.2v23.2Z"/><path class="cls-1" d="M295.3,112.5a13.3,13.3,0,0,1,6.2,1.6,11.81,11.81,0,0,1,4.7,4.7,12.71,12.71,0,0,1,0,12.7,11.81,11.81,0,0,1-4.7,4.7,12.85,12.85,0,0,1-12.6,0,11.81,11.81,0,0,1-4.7-4.7,12.79,12.79,0,0,1,0-12.7,11.45,11.45,0,0,1,4.8-4.7,14,14,0,0,1,6.3-1.6Zm0,2.1a10.6,10.6,0,0,0-9.2,15.9,9.76,9.76,0,0,0,3.9,3.9,10.38,10.38,0,0,0,10.5,0,9.76,9.76,0,0,0,3.9-3.9,10.57,10.57,0,0,0,0-10.6,9.41,9.41,0,0,0-4-3.9A9.75,9.75,0,0,0,295.3,114.6Zm-5.5,17.6V118.6h4.7a10.48,10.48,0,0,1,3.5.4,3.15,3.15,0,0,1,1.7,1.3,3.63,3.63,0,0,1-.5,4.6,4,4,0,0,1-2.8,1.2,7.46,7.46,0,0,1,1.2.7,13.5,13.5,0,0,1,2,2.7l1.7,2.7h-2.7l-1.2-2.1a12.44,12.44,0,0,0-2.3-3.2,3.45,3.45,0,0,0-1.8-.5H292v5.8Zm2.2-7.6h2.7a4,4,0,0,0,2.6-.6,1.8,1.8,0,0,0,.7-1.5,1.8,1.8,0,0,0-1.2-1.8,5.5,5.5,0,0,0-2.2-.2H292v4.1Z"/></svg>