<?xml version="1.0" encoding="utf-8"?>
<!-- Generator: Adobe Illustrator 26.0.1, SVG Export Plug-In . SVG Version: 6.00 Build 0)  -->
<svg version="1.1" id="Layer_1" xmlns="http://www.w3.org/2000/svg" xmlns:xlink="http://www.w3.org/1999/xlink" x="0px" y="0px"
	 viewBox="0 0 1045.7 301.5" style="enable-background:new 0 0 1045.7 301.5;" xml:space="preserve">
<style type="text/css">
	.st0{fill:#878575;}
	.st1{fill:#757779;}
	.st2{fill:#373435;}
	.st3{fill:#374576;}
	.st4{fill:none;stroke:#878575;stroke-width:0.65;stroke-miterlimit:10;}
	.st5{fill:#727477;}
	.st6{fill-rule:evenodd;clip-rule:evenodd;fill:#384476;}
	.st7{fill:#D73B41;}
	.st8{fill:#384476;}
</style>
<polygon class="st0" points="359.2,301.5 359.2,79.1 361.2,79.1 361.2,301.5 "/>
<path class="st1" d="M874.3,219.7h12.1c2.1-0.1,4.2,0.6,5.8,2c1.5,1.5,2.3,3.6,2.2,5.7c0,2-0.7,4-2,5.5c-1.3,1.6-3.3,2.4-6,2.4h-8.5
	v11.4h-3.7L874.3,219.7L874.3,219.7z M888.6,223.4c-1.1-0.4-2.2-0.6-3.3-0.6H878v9.4h7.3c1.4,0.1,2.8-0.3,4-1.1
	c1-0.7,1.5-1.9,1.5-3.7C890.8,225.5,890,224.1,888.6,223.4L888.6,223.4z M903.1,219.7v16.7c-0.1,1.7,0.3,3.4,1.1,4.9
	c1.1,2,3.3,3.1,5.6,2.9c3.1,0,5.2-1.1,6.4-3.2c0.7-1.5,1-3.1,0.9-4.7v-16.7h3.7v15.2c0.1,2.6-0.3,5.3-1.3,7.7
	c-1.6,3.3-4.8,4.9-9.3,4.9c-4.6,0-7.7-1.6-9.3-4.9c-1-2.4-1.5-5.1-1.3-7.7v-15.2L903.1,219.7L903.1,219.7z M926.4,219.7h4.3
	l13.7,21.9v-21.9h3.5v27.1h-4.1l-13.9-21.9v21.9h-3.5V219.7z M953.2,219.7H973v3.3h-16.2v8.2h15v3.1h-15v9.2h16.4v3.2h-20V219.7z"/>
<path class="st2" d="M420.1,280.6v1.8h-4.7V296h-1.9v-13.6h-4.7v-1.8H420.1z M422,280.6h10.1v1.9h-8.3v4.7h7.7v1.8h-7.7v5.3h8.5v1.8
	H422V280.6z M446.4,285.2h-1.8c-0.2-0.9-0.6-1.7-1.2-2.4c-0.7-0.6-1.7-0.9-2.6-0.9c-1.3,0-2.5,0.6-3.3,1.6c-1,1.5-1.4,3.2-1.3,4.9
	c-0.1,1.6,0.3,3.1,1.1,4.4c0.8,1.1,2.1,1.8,3.4,1.7c1.3,0,2.5-0.6,3.2-1.8c0.4-0.8,0.7-1.6,0.9-2.5h1.8c-0.1,1.5-0.7,2.9-1.6,4.1
	c-2.2,2.5-6,2.7-8.4,0.5l-0.1-0.1c-1.4-1.4-2.2-3.7-2.2-6.7c-0.1-2,0.5-4,1.6-5.6s2.9-2.5,4.9-2.4c1.5-0.1,3,0.5,4.1,1.5
	C445.7,282.6,446.3,283.9,446.4,285.2L446.4,285.2z M448.9,280.6h1.9v6.4h7.3v-6.4h1.9V296h-2v-7.3h-7.3v7.3h-1.9L448.9,280.6z
	 M462.8,280.6h2.2l7,12.5v-12.5h1.8V296h-2.1l-7.1-12.5V296h-1.8V280.6z M488.3,282.8c1,1.6,1.5,3.4,1.4,5.3c0.1,2-0.5,4-1.6,5.8
	c-2.1,2.9-6.2,3.6-9.2,1.4c-0.4-0.3-0.8-0.7-1.2-1.1c-1.1-1.7-1.7-3.7-1.6-5.8c-0.1-1.9,0.4-3.8,1.4-5.4c1.1-1.9,3.2-3,5.3-2.9
	C485,280,487.1,281,488.3,282.8L488.3,282.8z M487.8,288.1c0.1-1.6-0.4-3.1-1.3-4.4c-0.8-1.1-2.1-1.7-3.5-1.7s-2.7,0.6-3.5,1.7
	c-1,1.4-1.5,3.1-1.4,4.9c-0.1,1.5,0.4,3,1.2,4.3c0.9,1.2,2.3,1.9,3.8,1.8c1.5,0.1,2.9-0.7,3.6-2
	C487.4,291.2,487.8,289.7,487.8,288.1L487.8,288.1z M491.9,280.6h1.9v13.6h7.1v1.8H492L491.9,280.6L491.9,280.6z M514.2,282.8
	c1,1.6,1.5,3.4,1.4,5.3c0.1,2-0.5,4-1.6,5.8c-2.1,2.9-6.2,3.6-9.2,1.4c-0.4-0.3-0.8-0.7-1.2-1.1c-1.1-1.7-1.7-3.7-1.6-5.8
	c-0.1-1.9,0.4-3.8,1.4-5.4c1.1-1.9,3.2-3,5.3-2.9C510.9,280,513,281,514.2,282.8L514.2,282.8z M513.7,288.1c0.1-1.6-0.4-3.1-1.3-4.4
	c-0.8-1.1-2.1-1.7-3.5-1.7s-2.7,0.6-3.5,1.7c-1,1.4-1.5,3.1-1.4,4.9c-0.1,1.5,0.4,3,1.2,4.3c0.9,1.2,2.3,1.9,3.8,1.8
	c1.5,0.1,2.9-0.7,3.6-2C513.3,291.2,513.7,289.7,513.7,288.1L513.7,288.1z M527.3,281c1.5,0.9,2.4,2.5,2.5,4.2h-1.9
	c-0.1-1-0.6-1.9-1.4-2.5c-0.8-0.5-1.7-0.8-2.7-0.8c-1.3,0-2.5,0.6-3.3,1.6c-1,1.4-1.5,3.1-1.3,4.8c-0.1,1.6,0.3,3.1,1.1,4.5
	c0.8,1.2,2.1,1.9,3.6,1.7c1.2,0,2.3-0.4,3.1-1.2c0.9-1.1,1.4-2.5,1.3-4h-4.4v-1.7h6.1v8.3h-1.2l-0.5-2c-0.5,0.6-1,1.2-1.7,1.6
	c-2.4,1.3-5.4,0.9-7.4-1c-1.4-1.7-2-3.9-1.9-6.1c-0.1-2.2,0.6-4.4,1.9-6.2c1.1-1.4,2.9-2.2,4.7-2.2
	C525.1,280.1,526.2,280.4,527.3,281L527.3,281z M531.9,280.6h2.2l4,7.4l4-7.4h2.2l-5.3,9.2v6.2h-1.9v-6.2L531.9,280.6z M546,298.2
	c0.4-0.1,0.7-0.4,0.9-1c0.1-0.3,0.1-0.6,0.1-0.9v-0.1v-0.1h-1v-2.3h2v2.1c0,0.8-0.1,1.5-0.5,2.2c-0.3,0.6-0.9,1.1-1.6,1.2L546,298.2
	z M563.2,287.6c0.7,0,1.5-0.2,2.1-0.6c0.6-0.5,0.9-1.3,0.8-2.1c0.1-0.9-0.3-1.8-1.1-2.3c-0.5-0.2-1-0.3-1.6-0.3h-4.6v5.3H563.2z
	 M556.9,280.6h6.4c0.9,0,1.8,0.1,2.6,0.5c1.3,0.7,2.1,2.1,2,3.6c0,0.8-0.1,1.6-0.5,2.3c-0.3,0.6-0.8,1.1-1.4,1.4
	c0.5,0.2,0.9,0.5,1.2,1c0.3,0.6,0.5,1.3,0.5,2l0.1,2.1c0,0.4,0,0.9,0.1,1.3c0,0.4,0.3,0.7,0.6,0.9v0.3h-2.3
	c-0.1-0.2-0.1-0.3-0.2-0.5c-0.1-0.4-0.1-0.8-0.1-1.2l-0.1-2.6c0.1-0.8-0.3-1.6-1-2c-0.5-0.2-1.1-0.3-1.7-0.3h-4.3v6.6h-1.9
	L556.9,280.6L556.9,280.6z M570.9,280.6H581v1.9h-8.3v4.7h7.7v1.8h-7.7v5.3h8.5v1.8h-10.3V280.6z M584.9,291c0,0.7,0.2,1.5,0.6,2.1
	c0.7,1.1,2,1.7,3.3,1.5c0.7,0,1.3-0.1,1.9-0.3c1-0.3,1.7-1.3,1.7-2.3c0.1-0.7-0.2-1.4-0.7-1.8c-0.7-0.4-1.5-0.8-2.3-0.9l-1.9-0.5
	c-0.9-0.2-1.8-0.5-2.6-1c-0.9-0.7-1.4-1.8-1.3-2.9c0-1.3,0.4-2.5,1.3-3.4c1-0.9,2.3-1.4,3.7-1.3c1.3,0,2.7,0.4,3.7,1.2
	c1.1,0.9,1.7,2.3,1.5,3.8H592c0-0.7-0.3-1.3-0.6-1.9c-0.7-0.9-1.8-1.3-2.9-1.2c-0.9-0.1-1.7,0.2-2.4,0.8c-0.5,0.5-0.7,1.1-0.7,1.8
	c0,0.7,0.3,1.3,0.9,1.7c0.8,0.4,1.7,0.7,2.5,0.8l2,0.5c0.8,0.2,1.5,0.5,2.2,1c0.9,0.8,1.4,1.9,1.3,3.2c0.1,1.4-0.5,2.8-1.7,3.7
	c-1.2,0.7-2.5,1.1-3.9,1.1c-1.5,0.1-3-0.4-4.1-1.5c-1-1-1.5-2.4-1.4-3.9V291H584.9L584.9,291z M596.8,280.6h10.1v1.9h-8.3v4.7h7.7
	v1.8h-7.7v5.3h8.5v1.8h-10.3V280.6z M616.7,289.7l-2.1-6.8l-2.2,6.8H616.7z M613.6,280.6h2.1l5.1,15.5h-2.1l-1.4-4.6h-5.5l-1.5,4.6
	h-1.9L613.6,280.6z M629,287.6c0.7,0,1.5-0.2,2.1-0.6c0.6-0.5,0.9-1.3,0.8-2.1c0.1-0.9-0.3-1.8-1.1-2.3c-0.5-0.2-1-0.3-1.5-0.3h-4.6
	v5.3H629z M622.7,280.6h6.4c0.9,0,1.8,0.1,2.6,0.5c1.3,0.7,2.1,2.1,2,3.6c0,0.8-0.1,1.6-0.5,2.3c-0.3,0.6-0.8,1.1-1.4,1.4
	c0.5,0.2,0.9,0.5,1.2,1c0.3,0.6,0.5,1.3,0.5,2l0.1,2.1c0,0.4,0,0.9,0.1,1.3c0,0.4,0.3,0.7,0.6,0.9v0.3H632c-0.1-0.2-0.1-0.3-0.2-0.5
	c-0.1-0.4-0.1-0.8-0.1-1.2l-0.1-2.6c0.1-0.8-0.3-1.6-1-2c-0.5-0.2-1.1-0.3-1.7-0.3h-4.3v6.6h-1.9V280.6L622.7,280.6z M648.1,285.2
	h-1.8c-0.2-0.9-0.6-1.7-1.2-2.4c-0.7-0.6-1.7-0.9-2.6-0.9c-1.3,0-2.5,0.6-3.3,1.6c-1,1.5-1.4,3.2-1.3,4.9c-0.1,1.6,0.3,3.1,1.1,4.4
	c0.8,1.1,2.1,1.8,3.4,1.7c1.3,0,2.5-0.6,3.2-1.8c0.4-0.8,0.7-1.6,0.9-2.5h1.8c-0.1,1.5-0.7,2.9-1.6,4.1c-2.2,2.5-6,2.7-8.4,0.5
	l-0.1-0.1c-1.4-1.4-2.2-3.7-2.2-6.7c-0.1-2,0.5-4,1.6-5.6s2.9-2.5,4.9-2.4c1.5-0.1,3,0.5,4.1,1.5C647.4,282.6,648,283.9,648.1,285.2
	L648.1,285.2z M650.6,280.6h1.9v6.4h7.3v-6.4h1.9V296h-1.9v-7.2h-7.3v7.2h-1.9V280.6z M664.7,298.2c0.4-0.1,0.7-0.4,0.9-1
	c0.1-0.3,0.1-0.6,0.1-0.9v-0.1v-0.1h-1v-2.3h2v2.1c0,0.8-0.1,1.5-0.5,2.2c-0.3,0.6-0.9,1.1-1.6,1.2L664.7,298.2L664.7,298.2z
	 M676.6,291c0,0.7,0.2,1.5,0.6,2.1c0.7,1.1,2,1.7,3.3,1.5c0.7,0,1.3-0.1,1.9-0.3c1-0.3,1.7-1.3,1.7-2.3c0.1-0.7-0.2-1.4-0.7-1.8
	c-0.7-0.4-1.5-0.8-2.3-0.9l-1.9-0.5c-0.9-0.2-1.8-0.5-2.6-1c-0.9-0.7-1.4-1.8-1.3-2.9c0-1.3,0.4-2.5,1.3-3.4c1-0.9,2.3-1.4,3.7-1.3
	c1.3,0,2.7,0.4,3.7,1.2c1.1,0.9,1.7,2.3,1.5,3.8h-1.8c0-0.7-0.3-1.3-0.6-1.9c-0.7-0.9-1.8-1.3-2.9-1.2c-0.9-0.1-1.7,0.2-2.4,0.8
	c-0.5,0.5-0.7,1.1-0.7,1.8c0,0.7,0.3,1.3,0.9,1.7c0.8,0.4,1.7,0.7,2.5,0.8l2,0.5c0.8,0.2,1.5,0.5,2.2,1c0.9,0.8,1.4,1.9,1.3,3.2
	c0.1,1.4-0.5,2.8-1.7,3.7c-1.2,0.7-2.5,1.1-3.9,1.1c-1.5,0.1-3-0.4-4.1-1.5c-1-1-1.5-2.4-1.4-3.9V291H676.6L676.6,291z M699.8,282.8
	c1,1.6,1.5,3.4,1.4,5.3c0.1,2-0.5,4-1.6,5.8c-2.1,2.9-6.2,3.6-9.2,1.4c-0.4-0.3-0.8-0.7-1.2-1.1c-1.1-1.7-1.7-3.7-1.6-5.8
	c-0.1-1.9,0.4-3.8,1.4-5.4c1.1-1.9,3.2-3,5.3-2.9C696.5,280,698.6,281,699.8,282.8L699.8,282.8z M699.2,288.1
	c0.1-1.6-0.4-3.1-1.3-4.4c-0.8-1.1-2.1-1.7-3.5-1.7s-2.7,0.6-3.5,1.7c-1,1.4-1.5,3.1-1.4,4.9c-0.1,1.5,0.4,3,1.2,4.3
	c0.9,1.2,2.3,1.9,3.8,1.8c1.5,0.1,2.9-0.7,3.6-2C698.9,291.2,699.3,289.7,699.2,288.1L699.2,288.1z M715,285.2h-1.8
	c-0.2-0.9-0.6-1.7-1.2-2.4c-0.7-0.6-1.7-0.9-2.6-0.9c-1.3,0-2.5,0.6-3.3,1.6c-1,1.5-1.4,3.2-1.3,4.9c-0.1,1.6,0.3,3.1,1.1,4.4
	c0.8,1.1,2.1,1.8,3.4,1.7c1.3,0,2.5-0.6,3.2-1.8c0.4-0.8,0.7-1.6,0.9-2.5h1.8c-0.1,1.5-0.7,2.9-1.6,4.1c-2.2,2.5-6,2.7-8.4,0.5
	l-0.1-0.1c-1.4-1.4-2.2-3.7-2.2-6.7c-0.1-2,0.5-4,1.6-5.6s2.9-2.5,4.9-2.4c1.5-0.1,3,0.5,4.1,1.5C714.3,282.6,714.9,283.9,715,285.2
	L715,285.2z M717.9,280.6h1.9V296h-1.9V280.6z M730,289.7l-2.1-6.8l-2.2,6.8H730z M726.9,280.6h2.1l5.1,15.5H732l-1.4-4.6h-5.5
	l-1.5,4.6h-1.9L726.9,280.6z M735.8,280.6h1.9v13.6h7.1v1.8h-8.9L735.8,280.6L735.8,280.6z M752.4,280.6h1.9V296h-1.9V280.6z
	 M757.4,280.6h2.2l7,12.5v-12.5h1.8V296h-2.1l-7.1-12.5V296h-1.8L757.4,280.6L757.4,280.6z M771.4,280.6h2.2l7,12.5v-12.5h1.8V296
	h-2.1l-7.1-12.5V296h-1.8L771.4,280.6L771.4,280.6z M796.9,282.8c1,1.6,1.5,3.4,1.4,5.3c0.1,2-0.5,4-1.6,5.8
	c-2.1,2.9-6.2,3.6-9.2,1.4c-0.4-0.3-0.8-0.7-1.2-1.1c-1.1-1.7-1.7-3.7-1.6-5.8c-0.1-1.9,0.4-3.8,1.4-5.4c1.1-1.9,3.2-3,5.3-2.9
	C793.6,280,795.7,281,796.9,282.8L796.9,282.8z M796.4,288.1c0.1-1.6-0.4-3.1-1.3-4.4c-0.8-1.1-2.1-1.7-3.5-1.7s-2.7,0.6-3.5,1.7
	c-1,1.4-1.5,3.1-1.4,4.9c-0.1,1.5,0.4,3,1.2,4.3c0.9,1.2,2.3,1.9,3.8,1.8c1.5,0.1,2.9-0.7,3.6-2C796,291.2,796.4,289.7,796.4,288.1
	L796.4,288.1z M801.6,280.6l4,13.2l3.9-13.2h2.1l-5.1,15.5h-2l-5.1-15.5H801.6z M820.6,289.7l-2.1-6.8l-2.2,6.8H820.6z M817.5,280.6
	h2.1l5.1,15.5h-2.1l-1.4-4.6h-5.5l-1.5,4.6h-1.9L817.5,280.6z M836.6,280.6v1.8h-4.7V296H830v-13.6h-4.7v-1.8H836.6z M838.7,280.6
	h1.9V296h-1.9V280.6z M855.1,282.8c1,1.6,1.5,3.4,1.4,5.3c0.1,2-0.5,4-1.6,5.8c-2.1,2.9-6.2,3.6-9.2,1.4c-0.4-0.3-0.8-0.7-1.2-1.1
	c-1.1-1.7-1.7-3.7-1.6-5.8c-0.1-1.9,0.4-3.8,1.4-5.4c1.1-1.9,3.2-3,5.3-2.9C851.8,280,853.9,281,855.1,282.8L855.1,282.8z
	 M854.6,288.1c0.1-1.6-0.4-3.1-1.3-4.4c-0.8-1.1-2.1-1.7-3.5-1.7s-2.7,0.6-3.5,1.7c-1,1.4-1.5,3.1-1.4,4.9c-0.1,1.5,0.4,3,1.2,4.3
	c0.9,1.2,2.3,1.9,3.8,1.8c1.5,0.1,2.9-0.7,3.6-2C854.3,291.2,854.6,289.7,854.6,288.1L854.6,288.1z M858.8,280.6h2.2l7,12.5v-12.5
	h1.8V296h-2.1l-7.1-12.5V296h-1.8L858.8,280.6L858.8,280.6z M896.7,280.6h6.2c1.1,0,2.2,0.4,3,1.2c0.8,0.9,1.2,2.1,1.1,3.3
	c0,1.1-0.3,2.2-1,3.2c-0.8,0.9-1.9,1.4-3.1,1.3h-4.4v6.5h-1.9L896.7,280.6L896.7,280.6z M904.1,282.7c-0.5-0.2-1.1-0.4-1.7-0.3h-3.7
	v5.4h3.7c0.7,0,1.5-0.2,2.1-0.6c0.6-0.5,0.9-1.3,0.8-2.1C905.3,284.1,904.9,283.2,904.1,282.7L904.1,282.7z M916.6,289.7l-2.1-6.8
	l-2.2,6.8H916.6z M913.5,280.6h2.1l5.1,15.5h-2.1l-1.4-4.6h-5.5l-1.5,4.6h-1.9L913.5,280.6L913.5,280.6z M928.9,287.6
	c0.7,0,1.5-0.2,2.1-0.6c0.6-0.5,0.9-1.3,0.8-2.1c0.1-0.9-0.3-1.8-1.1-2.3c-0.5-0.2-1-0.3-1.6-0.3h-4.6v5.3H928.9L928.9,287.6z
	 M922.7,280.6h6.4c0.9,0,1.8,0.1,2.6,0.5c1.3,0.7,2.1,2.1,2,3.6c0,0.8-0.1,1.6-0.5,2.3c-0.3,0.6-0.8,1.1-1.4,1.4
	c0.5,0.2,0.9,0.5,1.2,1c0.3,0.6,0.5,1.3,0.5,2l0.1,2.1c0,0.4,0,0.9,0.1,1.3c0,0.4,0.3,0.7,0.6,0.9v0.3H932c-0.1-0.2-0.1-0.3-0.2-0.5
	c-0.1-0.4-0.1-0.8-0.1-1.2l-0.1-2.6c0.1-0.8-0.3-1.6-1-2c-0.5-0.2-1.1-0.3-1.7-0.3h-4.3v6.6h-1.9L922.7,280.6L922.7,280.6z
	 M946.6,280.6v1.8h-4.7V296H940v-13.6h-4.7v-1.8H946.6z M948.3,280.6h2.2l7,12.5v-12.5h1.8V296h-2.1l-7.1-12.5V296h-1.8L948.3,280.6
	L948.3,280.6z M962.5,280.6h10.1v1.9h-8.3v4.7h7.7v1.8h-7.7v5.3h8.5v1.8h-10.3V280.6z M981.8,287.6c0.7,0,1.5-0.2,2.1-0.6
	c0.6-0.5,0.9-1.3,0.8-2.1c0.1-0.9-0.3-1.8-1.1-2.3c-0.5-0.2-1-0.3-1.6-0.3h-4.6v5.3H981.8L981.8,287.6z M975.5,280.6h6.4
	c0.9,0,1.8,0.1,2.6,0.5c1.3,0.7,2.1,2.1,2,3.6c0,0.8-0.1,1.6-0.5,2.3c-0.3,0.6-0.8,1.1-1.4,1.4c0.5,0.2,0.9,0.5,1.2,1
	c0.3,0.6,0.5,1.3,0.5,2l0.1,2.1c0,0.4,0,0.9,0.1,1.3c0,0.4,0.3,0.7,0.6,0.9v0.3h-2.3c-0.1-0.2-0.1-0.3-0.2-0.5
	c-0.1-0.4-0.1-0.8-0.1-1.2l-0.1-2.6c0.1-0.8-0.3-1.6-1-2c-0.5-0.2-1.1-0.3-1.7-0.3h-4.3v6.6h-1.9L975.5,280.6L975.5,280.6z
	 M990.5,291c0,0.7,0.2,1.5,0.6,2.1c0.7,1.1,2,1.7,3.3,1.5c0.7,0,1.3-0.1,1.9-0.3c1-0.3,1.7-1.3,1.7-2.3c0.1-0.7-0.2-1.4-0.7-1.8
	c-0.7-0.4-1.5-0.8-2.3-0.9l-1.9-0.5c-0.9-0.2-1.8-0.5-2.6-1c-0.9-0.7-1.4-1.8-1.3-2.9c0-1.3,0.4-2.5,1.3-3.4c1-0.9,2.3-1.4,3.7-1.3
	c1.3,0,2.7,0.4,3.7,1.2c1.1,0.9,1.7,2.3,1.5,3.8h-1.8c0-0.7-0.3-1.3-0.6-1.9c-0.7-0.9-1.8-1.3-2.9-1.2c-0.9-0.1-1.7,0.2-2.4,0.8
	c-0.5,0.5-0.7,1.1-0.7,1.8c0,0.7,0.3,1.3,0.9,1.7c0.8,0.4,1.7,0.7,2.5,0.8l2,0.5c0.8,0.2,1.5,0.5,2.2,1c0.9,0.8,1.4,1.9,1.3,3.2
	c0.1,1.4-0.5,2.8-1.7,3.7c-1.2,0.7-2.5,1.1-3.9,1.1c-1.5,0.1-3-0.4-4.1-1.5c-1-1-1.5-2.4-1.4-3.9V291H990.5L990.5,291z
	 M1002.3,280.6h1.9v6.4h7.3v-6.4h1.9V296h-1.9v-7.3h-7.3v7.3h-1.9V280.6z M1016.7,280.6h1.9V296h-1.9V280.6z M1021.9,280.6h6.2
	c1.1,0,2.2,0.4,3,1.2c0.8,0.9,1.2,2.1,1.1,3.3c0,1.1-0.3,2.2-1,3.2c-0.8,0.9-1.9,1.4-3.1,1.3h-4.4v6.5h-1.9L1021.9,280.6z
	 M1029.2,282.7c-0.5-0.2-1.1-0.4-1.7-0.3h-3.8v5.4h3.8c0.7,0,1.5-0.2,2.1-0.6c0.6-0.5,0.9-1.3,0.8-2.1
	C1030.5,284.1,1030,283.2,1029.2,282.7L1029.2,282.7z M883.5,285.4c0.4-0.5,0.6-1,0.6-1.6c0-0.4-0.1-0.8-0.4-1.2
	c-0.3-0.3-0.7-0.5-1.1-0.5c-0.6-0.1-1.2,0.2-1.5,0.8c-0.1,0.3-0.2,0.6-0.2,0.9c0,0.4,0.1,0.9,0.3,1.2c0.3,0.5,0.7,1.1,1.1,1.5
	C882.7,286.2,883.1,285.9,883.5,285.4L883.5,285.4z M884.8,293l-3.1-4.3c-0.6,0.4-1.2,0.9-1.7,1.5c-0.4,0.6-0.6,1.2-0.6,1.9
	c0,0.7,0.3,1.4,0.8,1.9c0.5,0.4,1.1,0.7,1.7,0.7c0.6,0,1.3-0.2,1.8-0.5C884.1,293.9,884.5,293.5,884.8,293L884.8,293z M879.2,284.1
	c0-0.9,0.3-1.8,0.9-2.5c0.6-0.7,1.5-1,2.4-1s1.7,0.3,2.3,0.9c0.5,0.6,0.8,1.4,0.8,2.2c0,0.9-0.3,1.9-0.8,2.6c-0.5,0.6-1,1.1-1.6,1.5
	l2.5,3.4c0.2-0.6,0.3-1,0.4-1.3c0.1-0.3,0.1-0.7,0.2-1.2h1.6c-0.1,1-0.3,1.9-0.7,2.8c-0.1,0.4-0.3,0.8-0.5,1.1l0,0l2.5,3.3H887
	l-1.3-1.8c-0.4,0.5-0.9,1-1.4,1.4c-0.8,0.5-1.7,0.8-2.6,0.8c-1.2,0.1-2.4-0.4-3.2-1.3c-0.6-0.8-1-1.9-1-2.9c0-1.1,0.3-2.1,1-2.9
	c0.6-0.7,1.4-1.3,2.2-1.8c-0.5-0.6-0.9-1.2-1.2-1.9C879.3,285.1,879.2,284.6,879.2,284.1L879.2,284.1z M1035.9,291
	c0,0.7,0.2,1.5,0.6,2.1c0.7,1.1,2,1.7,3.3,1.5c0.7,0,1.3-0.1,1.9-0.3c1-0.3,1.7-1.3,1.7-2.3c0.1-0.7-0.2-1.4-0.7-1.8
	c-0.7-0.4-1.5-0.8-2.3-0.9l-1.9-0.5c-0.9-0.2-1.8-0.5-2.6-1c-0.9-0.7-1.4-1.8-1.3-2.9c0-1.3,0.4-2.5,1.3-3.4c1-0.9,2.3-1.4,3.7-1.3
	c1.3,0,2.7,0.4,3.7,1.2c1.1,0.9,1.7,2.3,1.5,3.8h-1.8c0-0.7-0.3-1.3-0.6-1.9c-0.7-0.9-1.8-1.3-2.9-1.2c-0.9-0.1-1.7,0.2-2.4,0.8
	c-0.5,0.5-0.7,1.1-0.7,1.8c0,0.7,0.3,1.3,0.9,1.7c0.8,0.4,1.7,0.7,2.5,0.8l2,0.5c0.8,0.2,1.5,0.5,2.2,1c0.9,0.8,1.4,1.9,1.3,3.2
	c0.1,1.4-0.5,2.8-1.7,3.7c-1.2,0.7-2.5,1.1-3.9,1.1c-1.5,0.1-3-0.4-4.1-1.5c-1-1-1.5-2.4-1.4-3.9V291H1035.9L1035.9,291z"/>
<path class="st3" d="M409,112.7V87.8h8.6c1.5,0,3,0.1,4.4,0.4c1.3,0.3,2.6,0.9,3.7,1.8c1.3,1.1,2.3,2.6,2.9,4.3c0.7,1.9,1,3.9,1,5.9
	c0,1.7-0.2,3.4-0.7,5c-0.4,1.3-0.9,2.5-1.7,3.6c-0.6,0.9-1.4,1.6-2.3,2.3c-0.9,0.6-1.9,1-3,1.3c-1.3,0.3-2.7,0.4-4,0.4L409,112.7z
	 M412.3,109.8h5.3c1.3,0,2.6-0.1,3.9-0.5c0.8-0.3,1.6-0.7,2.2-1.3c0.8-0.9,1.5-2,1.8-3.2c0.5-1.6,0.7-3.2,0.7-4.8
	c0.1-2.1-0.3-4.2-1.3-6c-0.7-1.3-1.8-2.3-3.1-2.8c-1.4-0.4-2.8-0.6-4.3-0.5h-5.2V109.8z M433.7,112.7v-18h2.7v2.8
	c0.5-1,1.1-1.8,1.9-2.5c0.6-0.4,1.3-0.6,2-0.6c1.1,0,2.2,0.4,3.1,1l-1.1,2.8c-0.7-0.4-1.4-0.6-2.2-0.6c-0.6,0-1.3,0.2-1.8,0.6
	s-0.9,1-1.1,1.7c-0.4,1.2-0.5,2.4-0.5,3.6v9.4L433.7,112.7z M444.3,112.7v-3.5h3.5v3.5H444.3z M467.1,112.7l-9.6-24.9h3.6l6.5,18.1
	c0.5,1.4,1,2.8,1.3,4.1c0.4-1.4,0.8-2.7,1.3-4.1l6.7-18.1h3.4l-9.7,24.9H467.1z M482.2,91.3v-3.5h3.1v3.5H482.2z M482.2,112.7v-18
	h3.1v18.1L482.2,112.7L482.2,112.7z M488.7,107.3l3-0.5c0.1,1.1,0.6,2.1,1.4,2.8c0.9,0.7,2.1,1,3.3,1c1.1,0.1,2.2-0.2,3.1-0.9
	c0.6-0.5,1-1.2,1-2c0-0.7-0.3-1.3-0.9-1.6c-1-0.5-2-0.8-3.1-1c-1.6-0.4-3.1-0.8-4.7-1.5c-0.8-0.4-1.5-1-2-1.7
	c-0.4-0.7-0.7-1.6-0.7-2.4s0.2-1.5,0.6-2.2s0.9-1.3,1.5-1.7c0.6-0.4,1.2-0.7,1.9-0.9c0.9-0.2,1.7-0.4,2.6-0.4c1.3,0,2.5,0.2,3.7,0.6
	c0.9,0.3,1.8,0.9,2.4,1.7c0.6,0.8,0.9,1.8,1,2.8l-3,0.4c-0.1-0.9-0.5-1.6-1.2-2.2c-0.8-0.6-1.8-0.8-2.8-0.8c-1-0.1-2.1,0.2-3,0.7
	c-0.5,0.4-0.9,1-0.9,1.6c0,0.4,0.1,0.8,0.4,1.1c0.3,0.4,0.7,0.7,1.2,0.8c0.3,0.1,1.2,0.4,2.7,0.8s3,0.8,4.5,1.4
	c0.8,0.3,1.5,0.9,2,1.6c0.5,0.8,0.8,1.7,0.7,2.6c0,1-0.3,2-0.9,2.9s-1.5,1.7-2.6,2.1c-1.2,0.5-2.5,0.8-3.8,0.7
	c-1.9,0.1-3.8-0.4-5.4-1.5C489.8,110.5,488.9,109,488.7,107.3L488.7,107.3z M507.3,112.7V87.8h3.1v9c1.3-1.6,3.3-2.5,5.4-2.5
	c1.2,0,2.4,0.2,3.5,0.8c0.9,0.5,1.7,1.2,2.1,2.2c0.5,1.3,0.7,2.7,0.6,4v11.4h-3.1v-11.4c0.1-1.2-0.2-2.4-1-3.3
	c-0.7-0.7-1.8-1.1-2.8-1c-0.9,0-1.8,0.2-2.5,0.7c-0.8,0.4-1.4,1.1-1.7,1.9c-0.4,1.1-0.5,2.2-0.5,3.3v9.9L507.3,112.7L507.3,112.7z
	 M529.9,112.7l-5.5-18.1h3.2l2.9,10.4l1,3.9c0-0.2,0.4-1.4,0.9-3.7l2.9-10.6h3.1l2.7,10.5l0.9,3.4l1-3.5l3.1-10.4h3l-5.7,18.1h-3.2
	l-2.9-10.8l-0.7-3.1l-3.7,13.9L529.9,112.7L529.9,112.7z M563.6,110.4c-1,0.9-2.1,1.6-3.3,2c-1.1,0.4-2.2,0.6-3.4,0.6
	c-1.7,0.1-3.3-0.4-4.6-1.4c-1.1-0.9-1.6-2.3-1.6-3.7c0-1.7,0.8-3.2,2.2-4.2c0.7-0.5,1.4-0.8,2.2-1c0.9-0.2,1.8-0.4,2.7-0.5
	c1.8-0.2,3.7-0.5,5.5-1c0-0.4,0-0.7,0-0.8c0.1-1-0.2-1.9-0.9-2.6c-1-0.8-2.2-1.1-3.5-1c-1.1-0.1-2.2,0.2-3.2,0.8
	c-0.8,0.7-1.3,1.6-1.5,2.7l-3-0.4c0.2-1.1,0.7-2.2,1.3-3.1c0.7-0.8,1.7-1.5,2.7-1.8c1.3-0.4,2.7-0.7,4.1-0.6c1.3,0,2.6,0.1,3.8,0.5
	c0.8,0.3,1.5,0.7,2.1,1.4c0.5,0.6,0.8,1.3,1,2.1c0.1,0.9,0.2,1.9,0.2,2.8v4.1c0,1.8,0,3.6,0.2,5.4c0.1,0.8,0.4,1.5,0.7,2.2h-3.2
	C563.8,112,563.6,111.2,563.6,110.4L563.6,110.4z M563.3,103.7c-1.6,0.6-3.3,1-5,1.1c-0.9,0.1-1.8,0.3-2.7,0.6
	c-0.5,0.2-0.9,0.5-1.2,1c-0.7,1.1-0.5,2.6,0.5,3.5c0.8,0.6,1.7,0.9,2.7,0.8c1.1,0,2.2-0.2,3.1-0.8c0.9-0.5,1.6-1.2,2-2.1
	c0.4-1,0.5-2,0.5-3L563.3,103.7L563.3,103.7z M571.1,112.7v-18h2.7v2.6c1.3-1.9,3.4-3,5.7-2.9c1,0,2,0.2,3,0.6
	c0.8,0.3,1.5,0.8,2,1.5s0.8,1.4,1,2.3c0.1,1,0.2,2,0.2,3v11.1h-3.1v-11c0-0.9-0.1-1.9-0.4-2.8c-0.2-0.6-0.7-1.1-1.3-1.5
	s-1.4-0.6-2.1-0.6c-1.2,0-2.4,0.4-3.4,1.2c-0.9,0.8-1.4,2.4-1.4,4.7v9.8C574,112.7,571.1,112.7,571.1,112.7z M602.2,110.4
	c-1,0.9-2.1,1.6-3.3,2c-1.1,0.4-2.2,0.6-3.4,0.6c-1.7,0.1-3.3-0.4-4.6-1.4c-1.1-0.9-1.6-2.3-1.6-3.7c0-0.8,0.2-1.7,0.6-2.4
	c0.4-0.7,0.9-1.3,1.6-1.8c0.7-0.5,1.4-0.8,2.2-1c0.9-0.2,1.8-0.4,2.7-0.5c1.8-0.2,3.7-0.5,5.5-1c0-0.4,0-0.7,0-0.8
	c0.1-1-0.2-1.9-0.9-2.6c-1-0.8-2.2-1.1-3.5-1c-1.1-0.1-2.2,0.2-3.2,0.8c-0.8,0.7-1.3,1.6-1.5,2.7l-3-0.4c0.2-1.1,0.7-2.2,1.3-3.1
	c0.7-0.8,1.7-1.5,2.7-1.8c1.3-0.4,2.7-0.7,4.1-0.6c1.3,0,2.6,0.1,3.8,0.5c0.8,0.3,1.5,0.7,2.1,1.4c0.5,0.6,0.8,1.3,1,2.1
	c0.1,0.9,0.2,1.9,0.2,2.8v4.1c0,1.8,0,3.6,0.2,5.4c0.1,0.8,0.4,1.5,0.7,2.2h-3.2C602.5,112,602.3,111.2,602.2,110.4L602.2,110.4z
	 M602,103.7c-1.6,0.6-3.3,1-5,1.1c-0.9,0.1-1.8,0.3-2.7,0.6c-0.5,0.2-0.9,0.5-1.2,1c-0.7,1.1-0.5,2.6,0.5,3.5
	c0.8,0.6,1.7,0.9,2.7,0.8c1.1,0,2.2-0.2,3.1-0.8c0.9-0.5,1.6-1.2,2-2.1c0.4-1,0.5-2,0.5-3L602,103.7L602,103.7z M616.4,110l0.4,2.7
	c-0.8,0.2-1.5,0.3-2.3,0.3c-0.9,0-1.8-0.1-2.6-0.5c-0.6-0.3-1-0.8-1.3-1.4c-0.3-1.2-0.4-2.4-0.4-3.6V97h-2.3v-2.4h2.3v-4.5l3.1-1.8
	v6.3h3.1V97h-3.1v10.6c0,0.6,0,1.1,0.2,1.7c0.1,0.2,0.3,0.5,0.5,0.6c0.3,0.2,0.7,0.2,1,0.2C615.6,110.1,616,110,616.4,110L616.4,110
	z M619.5,112.7V87.8h3.1v9c1.3-1.6,3.3-2.5,5.4-2.5c1.2,0,2.4,0.2,3.5,0.8c0.9,0.5,1.7,1.2,2.1,2.2c0.5,1.3,0.7,2.7,0.6,4v11.4H631
	v-11.4c0.1-1.2-0.2-2.4-1-3.3c-0.7-0.7-1.8-1.1-2.8-1c-0.9,0-1.8,0.2-2.5,0.7c-0.8,0.4-1.4,1.1-1.7,1.9c-0.4,1.1-0.5,2.2-0.5,3.3
	v9.9L619.5,112.7L619.5,112.7z M648.7,112.7V87.8h3.3v12.3l12.4-12.3h4.5l-10.4,10.1l10.9,14.8H665l-8.9-12.6L652,104v8.6
	L648.7,112.7L648.7,112.7z M683.5,110.4c-1,0.9-2.1,1.6-3.3,2c-1.1,0.4-2.2,0.6-3.4,0.6c-1.7,0.1-3.3-0.4-4.6-1.4
	c-1.1-0.9-1.6-2.3-1.6-3.7c0-1.7,0.8-3.2,2.2-4.2c0.7-0.5,1.4-0.8,2.2-1c0.9-0.2,1.8-0.4,2.7-0.5c1.8-0.2,3.7-0.5,5.5-1
	c0-0.4,0-0.7,0-0.8c0.1-1-0.2-1.9-0.9-2.6c-1-0.8-2.2-1.1-3.5-1c-1.1-0.1-2.2,0.2-3.2,0.8c-0.8,0.7-1.3,1.6-1.5,2.7l-3-0.4
	c0.2-1.1,0.7-2.2,1.3-3.1c0.7-0.8,1.7-1.5,2.7-1.8c1.3-0.4,2.7-0.7,4.1-0.6c1.3,0,2.6,0.1,3.8,0.5c0.8,0.3,1.5,0.7,2.1,1.4
	c0.5,0.6,0.8,1.3,1,2.1c0.1,0.9,0.2,1.9,0.2,2.8v4.1c0,1.8,0,3.6,0.2,5.4c0.1,0.8,0.4,1.5,0.7,2.2H684
	C683.7,112,683.5,111.2,683.5,110.4L683.5,110.4z M683.2,103.7c-1.6,0.6-3.3,1-5,1.1c-0.9,0.1-1.8,0.3-2.7,0.6
	c-0.5,0.2-0.9,0.5-1.2,1c-0.7,1.1-0.5,2.6,0.5,3.5c0.8,0.6,1.7,0.9,2.7,0.8c1.1,0,2.2-0.2,3.1-0.8c0.9-0.5,1.6-1.2,2-2.1
	c0.4-1,0.5-2,0.5-3L683.2,103.7L683.2,103.7z M691,112.7v-18h2.7v2.8c0.5-1,1.1-1.8,1.9-2.5c0.6-0.4,1.3-0.6,2-0.6
	c1.1,0,2.2,0.4,3.1,1l-1.1,2.8c-0.7-0.4-1.4-0.6-2.2-0.6c-0.6,0-1.3,0.2-1.8,0.6s-0.9,1-1.1,1.7c-0.4,1.2-0.5,2.4-0.5,3.6v9.4
	L691,112.7z M714.4,110.4c-1,0.9-2.1,1.6-3.3,2c-1.1,0.4-2.2,0.6-3.4,0.6c-1.7,0.1-3.3-0.4-4.6-1.4c-1.1-0.9-1.6-2.3-1.6-3.7
	c0-0.8,0.2-1.7,0.6-2.4c0.4-0.7,0.9-1.3,1.6-1.8c0.7-0.5,1.4-0.8,2.2-1c0.9-0.2,1.8-0.4,2.7-0.5c1.9-0.2,3.7-0.5,5.5-1
	c0-0.4,0-0.7,0-0.8c0.1-1-0.2-1.9-0.9-2.6c-1-0.8-2.2-1.1-3.5-1c-1.1-0.1-2.2,0.2-3.2,0.8c-0.8,0.7-1.3,1.6-1.5,2.7l-3-0.4
	c0.2-1.1,0.7-2.2,1.3-3.1C704,96,705,95.3,706,95c1.3-0.4,2.7-0.7,4.1-0.6c1.3,0,2.6,0.1,3.8,0.5c0.8,0.3,1.5,0.7,2.1,1.4
	c0.5,0.6,0.8,1.3,1,2.1c0.1,0.9,0.2,1.9,0.2,2.8v4.1c0,1.8,0,3.6,0.2,5.4c0.1,0.8,0.4,1.5,0.7,2.2H715
	C714.6,112,714.4,111.2,714.4,110.4L714.4,110.4z M714.1,103.7c-1.6,0.6-3.3,1-5,1.1c-0.9,0.1-1.8,0.3-2.7,0.6
	c-0.5,0.2-0.9,0.5-1.2,1c-0.7,1.1-0.5,2.6,0.5,3.5c0.8,0.6,1.7,0.9,2.7,0.8c1.1,0,2.2-0.2,3.1-0.8c0.9-0.5,1.6-1.2,2-2.1
	c0.4-1,0.5-2,0.5-3L714.1,103.7L714.1,103.7z M733.6,112.7v-2.3c-1.1,1.7-3,2.8-5,2.7c-1.4,0-2.8-0.4-4-1.2c-1.2-0.8-2.2-2-2.8-3.3
	c-0.7-1.5-1-3.2-1-4.9c0-1.7,0.3-3.3,0.9-4.9c0.5-1.4,1.5-2.5,2.7-3.4c1.2-0.8,2.6-1.2,4-1.2c1,0,2,0.2,2.9,0.7
	c0.8,0.4,1.5,1,2.1,1.8v-9h3.1v24.9h-2.9V112.7z M723.9,103.7c-0.1,1.8,0.4,3.7,1.5,5.2c0.8,1.1,2.1,1.7,3.5,1.7
	c1.3,0,2.6-0.6,3.4-1.6c1-1.4,1.5-3.2,1.4-5c0-2.5-0.5-4.3-1.4-5.4c-0.8-1.1-2.1-1.7-3.5-1.7c-1.3,0-2.6,0.6-3.4,1.7
	C724.4,99.6,723.9,101.3,723.9,103.7L723.9,103.7z"/>
<line class="st4" x1="849.9" y1="209.8" x2="849.9" y2="257.3"/>
<path class="st3" d="M408.8,139.8c-0.2-1.4,0.8-2.7,2.2-2.9c0.2,0,0.5,0,0.7,0h5.4c1.5-0.1,2.9,0.8,3.4,2.2L433,166l12.5-26.9
	c0.6-1.4,1.9-2.3,3.4-2.2h5.4c1.4-0.2,2.7,0.8,2.9,2.2c0,0.2,0,0.5,0,0.7v42.1c0.2,1.4-0.8,2.7-2.2,2.9c-0.2,0-0.5,0-0.7,0H448
	c-1.4,0.2-2.7-0.8-2.9-2.2c0-0.2,0-0.5,0-0.7v-16.7l-7.3,17.4c-0.5,1.4-1.9,2.3-3.4,2.3h-2.6c-1.5,0.1-2.9-0.8-3.4-2.3l-7.3-17.3
	v16.6c0.2,1.4-0.8,2.7-2.2,2.9c-0.2,0-0.5,0-0.7,0h-6.4c-1.4,0.2-2.7-0.8-2.9-2.2c0-0.2,0-0.5,0-0.7L408.8,139.8L408.8,139.8z
	 M476.9,136.9c1.4-0.2,2.7,0.8,2.9,2.2c0,0.2,0,0.5,0,0.7v42.1c0.2,1.4-0.8,2.7-2.2,2.9c-0.2,0-0.5,0-0.7,0h-6.4
	c-1.4,0.2-2.7-0.8-2.9-2.2c0-0.2,0-0.5,0-0.7v-42.1c-0.2-1.4,0.8-2.7,2.2-2.9c0.2,0,0.5,0,0.7,0H476.9z M504,184.8
	c-1.4,0.2-2.7-0.8-2.9-2.2c0-0.2,0-0.5,0-0.7v-32.8h-10c-1.4,0.2-2.7-0.8-2.9-2.2c0-0.2,0-0.5,0-0.7v-6.4c-0.2-1.4,0.8-2.7,2.2-2.9
	c0.2,0,0.5,0,0.7,0h32.2c1.4-0.2,2.7,0.8,2.9,2.2c0,0.2,0,0.5,0,0.7v6.4c0.2,1.4-0.8,2.7-2.2,2.9c-0.2,0-0.5,0-0.7,0h-10v32.8
	c0.2,1.4-0.8,2.7-2.2,2.9c-0.2,0-0.5,0-0.7,0H504z M550.6,140c-0.5-2,0.5-3.2,2.6-3.2h6.6c1.6-0.1,3,1,3.2,2.6l4.5,21.1l5.8-21.2
	c0.3-1.5,1.7-2.6,3.2-2.5h7.1c1.5-0.1,2.9,0.9,3.2,2.5l5.8,21.1l4.5-20.9c0.2-1.6,1.6-2.7,3.2-2.6h6.5c2.1,0,3,1.2,2.6,3.2
	l-9.2,42.2c-0.2,1.6-1.6,2.7-3.2,2.6h-7.5c-1.5,0.1-2.9-0.9-3.2-2.5l-6.2-22.5l-6.2,22.5c-0.4,1.5-1.8,2.6-3.3,2.5h-7.5
	c-1.6,0.1-3-1-3.2-2.6L550.6,140z M639.8,186c-6.7,0-13.1-2.7-17.8-7.4c-9.8-9.8-9.8-25.8,0-35.6c4.7-4.7,11.1-7.4,17.8-7.4
	c13.9,0,25.2,11.3,25.2,25.2c0,6.7-2.6,13.1-7.4,17.7C652.9,183.3,646.5,186,639.8,186L639.8,186z M639.8,147.9
	c-7.1,0-13,5.7-13,12.9s5.7,13,12.9,13c7.1,0,13-5.7,13-12.9c0-3.4-1.3-6.7-3.8-9.2C646.5,149.3,643.2,147.9,639.8,147.9
	L639.8,147.9z M710.1,152.6c0,4.7-1.9,9.6-5.4,12.4c-0.4,0.4-0.9,0.7-1.4,0.9c-0.3,0.1-0.5,0.2-0.8,0.3l6.5,15.2
	c0.8,2,0,3.4-2.3,3.4h-7.1c-1.5,0.1-2.9-0.9-3.4-2.3l-5.7-14.8h-5.9v14.2c0.2,1.4-0.8,2.7-2.2,2.9c-0.2,0-0.5,0-0.7,0h-6.4
	c-1.4,0.2-2.7-0.8-2.9-2.2c0-0.2,0-0.5,0-0.7v-42.1c-0.2-1.4,0.8-2.7,2.2-2.9c0.2,0,0.5,0,0.7,0H695c3.8-0.1,7.5,1.2,10.4,3.6
	c1.3,1.3,2.4,2.8,3.2,4.5C709.6,147.4,710.1,150,710.1,152.6L710.1,152.6z M698.3,152.6c0.2-2-1.3-3.8-3.3-3.9c-0.2,0-0.4,0-0.6,0
	h-9.7v8h9.3c2.3,0.1,4.2-1.6,4.3-3.9C698.3,152.7,698.3,152.7,698.3,152.6L698.3,152.6z M731,172.6h17.2c1.4-0.2,2.7,0.8,2.9,2.2
	c0,0.2,0,0.5,0,0.7v6.4c0.2,1.4-0.8,2.7-2.2,2.9c-0.2,0-0.5,0-0.7,0h-26.5c-1.4,0.2-2.7-0.8-2.9-2.2c0-0.2,0-0.5,0-0.7v-42.1
	c-0.2-1.4,0.8-2.7,2.2-2.9c0.2,0,0.5,0,0.7,0h6.4c1.4-0.2,2.7,0.8,2.9,2.2c0,0.2,0,0.5,0,0.7L731,172.6z M763.5,184.8
	c-1.4,0.2-2.7-0.8-2.9-2.2c0-0.2,0-0.5,0-0.7v-42.1c-0.2-1.4,0.8-2.7,2.2-2.9c0.2,0,0.5,0,0.7,0h15.3c6.3,0,12.2,2.7,16.5,7.3
	c4.2,4.5,6.6,10.5,6.6,16.6c0,6.3-2.5,12.3-6.9,16.8c-4.2,4.5-10.1,7.1-16.3,7.1L763.5,184.8L763.5,184.8z M772.8,149.1v23.4h5.9
	c2.9-0.1,5.6-1.4,7.6-3.6c2.1-2.2,3.2-5.1,3.2-8.2c0-3-1.1-6-3.2-8.2c-1.9-2.1-4.7-3.4-7.6-3.5L772.8,149.1z M864.1,152.6
	c0,4.7-1.9,9.6-5.4,12.4c-3.1,2.3-6.9,3.6-10.8,3.5h-9.3v13.4c0.2,1.4-0.8,2.7-2.2,2.9c-0.2,0-0.5,0-0.7,0h-6.4
	c-1.4,0.2-2.7-0.8-2.9-2.2c0-0.2,0-0.5,0-0.7v-42.1c-0.2-1.4,0.8-2.7,2.2-2.9c0.2,0,0.5,0,0.7,0H849c3.8-0.1,7.5,1.2,10.4,3.6
	c1.3,1.3,2.4,2.8,3.2,4.5C863.6,147.4,864.1,150,864.1,152.6L864.1,152.6z M852.3,152.6c0.2-2-1.3-3.8-3.4-4c-0.2,0-0.4,0-0.6,0
	h-9.7v8h9.3c2.3,0.1,4.3-1.6,4.4-3.9C852.3,152.7,852.3,152.7,852.3,152.6L852.3,152.6z M883.2,166.5v6.1h18.5
	c1.4-0.2,2.7,0.8,2.9,2.2c0,0.2,0,0.5,0,0.7v6.4c0.2,1.4-0.8,2.7-2.2,2.9c-0.2,0-0.5,0-0.7,0h-27.8c-1.4,0.2-2.7-0.8-2.9-2.2
	c0-0.2,0-0.5,0-0.7v-42.1c-0.2-1.4,0.8-2.7,2.2-2.9c0.2,0,0.5,0,0.7,0h27.8c1.4-0.2,2.7,0.8,2.9,2.2c0,0.2,0,0.5,0,0.7v6.4
	c0.2,1.4-0.8,2.7-2.2,2.9c-0.2,0-0.5,0-0.7,0h-18.5v6h13.6c1.4-0.2,2.7,0.8,2.9,2.2c0,0.2,0,0.5,0,0.7v5.5c0.2,1.4-0.8,2.7-2.2,2.9
	c-0.2,0-0.5,0-0.7,0L883.2,166.5z M938.2,136.9c1.5-0.1,2.9,0.9,3.4,2.3l14.8,42.2c0.7,2.1-0.1,3.4-2.4,3.4h-7
	c-1.5,0.1-2.9-0.9-3.3-2.4l-2-5.9h-14.3l-2,5.9c-0.4,1.5-1.8,2.5-3.4,2.4h-7c-2.3,0-3.1-1.3-2.4-3.4l14.8-42.2
	c0.4-1.4,1.8-2.4,3.3-2.3H938.2z M938.9,165.9l-4.5-13.3l-4.1,13.3H938.9z M984.2,186c-13.9,0-25.2-11.3-25.1-25.3
	s11.3-25.2,25.3-25.1c6.6,0,12.9,2.6,17.6,7.3c1.4,1.4,1.2,2.8-0.4,4.1l-5.1,4c-1.5,1.2-2.6,1-4.1-0.2c-2.3-1.9-5.2-3-8.2-2.9
	c-7.1,0-12.9,5.8-12.9,12.9c0,7.1,5.8,12.9,12.9,12.9l0,0c2.9,0,5.7-0.9,7.9-2.7c1.5-1.1,2.7-1.4,4.1-0.1l5,4.2
	c1.5,1.2,1.7,2.8,0.2,4.1C996.8,183.6,990.6,186.1,984.2,186L984.2,186z M1024.3,166.5v6.1h18.5c1.4-0.2,2.7,0.8,2.9,2.2
	c0,0.2,0,0.5,0,0.7v6.4c0.2,1.4-0.8,2.7-2.2,2.9c-0.2,0-0.5,0-0.7,0H1015c-1.4,0.2-2.7-0.8-2.9-2.2c0-0.2,0-0.5,0-0.7v-42.1
	c-0.2-1.4,0.8-2.7,2.2-2.9c0.2,0,0.5,0,0.7,0h27.8c1.4-0.2,2.7,0.8,2.9,2.2c0,0.2,0,0.5,0,0.7v6.4c0.2,1.4-0.8,2.7-2.2,2.9
	c-0.2,0-0.5,0-0.7,0h-18.5v6h13.6c1.4-0.2,2.7,0.8,2.9,2.2c0,0.2,0,0.5,0,0.7v5.5c0.2,1.4-0.8,2.7-2.2,2.9c-0.2,0-0.5,0-0.7,0
	L1024.3,166.5z M450.3,208.5c1.4-0.2,2.7,0.8,2.9,2.2c0,0.2,0,0.5,0,0.7V234c-0.1,6-2.2,11.8-6.1,16.3c-7.8,8.9-21.4,9.8-30.3,2
	c-0.6-0.5-1.2-1.1-1.7-1.7c-4-4.6-6.3-10.5-6.3-16.6v-22.5c-0.2-1.4,0.8-2.7,2.2-2.9c0.2,0,0.5,0,0.7,0h6.4c1.4-0.2,2.7,0.8,2.9,2.2
	c0,0.2,0,0.5,0,0.7V234c-0.1,3,1,6,2.9,8.4c3.1,3.9,8.8,4.5,12.7,1.4c0.5-0.4,1-0.9,1.4-1.4c2-2.3,3-5.3,2.9-8.4v-22.5
	c-0.2-1.4,0.8-2.7,2.2-2.9c0.2,0,0.5,0,0.7,0L450.3,208.5L450.3,208.5z M466.5,256.4c-1.4,0.2-2.7-0.8-2.9-2.2c0-0.2,0-0.5,0-0.7
	v-42.1c-0.2-1.4,0.8-2.7,2.2-2.9c0.2,0,0.5,0,0.7,0h5.6c1.4,0,2.8,0.7,3.6,1.9l15,21.7v-20.7c-0.2-1.4,0.8-2.7,2.2-2.9
	c0.2,0,0.5,0,0.7,0h6.4c1.4-0.2,2.7,0.8,2.9,2.2c0,0.2,0,0.5,0,0.7v42.1c0.2,1.4-0.8,2.7-2.2,2.9c-0.2,0-0.5,0-0.7,0h-5.6
	c-1.4,0-2.8-0.7-3.6-1.9l-15-21.9v20.9c0.2,1.4-0.8,2.7-2.2,2.9c-0.2,0-0.5,0-0.7,0H466.5z M523.2,208.5c1.4-0.2,2.7,0.8,2.9,2.2
	c0,0.2,0,0.5,0,0.7v42.1c0.2,1.4-0.8,2.7-2.2,2.9c-0.2,0-0.5,0-0.7,0h-6.4c-1.4,0.2-2.7-0.8-2.9-2.2c0-0.2,0-0.5,0-0.7v-42.1
	c-0.2-1.4,0.8-2.7,2.2-2.9c0.2,0,0.5,0,0.7,0H523.2z M555.7,235.7l8.6-24.9c0.4-1.5,1.8-2.4,3.4-2.3h6.9c2.1,0,3,1.3,2.3,3.3
	l-14.6,42.4c-0.5,1.5-1.8,2.4-3.4,2.3h-6.5c-1.5,0.1-2.9-0.9-3.4-2.3l-14.6-42.4c-0.7-2,0.2-3.3,2.3-3.3h6.9
	c1.5-0.1,2.9,0.9,3.4,2.3L555.7,235.7L555.7,235.7z M596.8,238.1v6.1h18.5c1.4-0.2,2.7,0.8,2.9,2.2c0,0.2,0,0.5,0,0.7v6.4
	c0.2,1.4-0.8,2.7-2.2,2.9c-0.2,0-0.5,0-0.7,0h-27.8c-1.4,0.2-2.7-0.8-2.9-2.2c0-0.2,0-0.5,0-0.7v-42.1c-0.2-1.4,0.8-2.7,2.2-2.9
	c0.2,0,0.5,0,0.7,0h27.8c1.4-0.2,2.7,0.8,2.9,2.2c0,0.2,0,0.5,0,0.7v6.4c0.2,1.4-0.8,2.7-2.2,2.9c-0.2,0-0.5,0-0.7,0h-18.5v6h13.6
	c1.4-0.2,2.7,0.8,2.9,2.2c0,0.2,0,0.5,0,0.7v5.5c0.2,1.4-0.8,2.7-2.2,2.9c-0.2,0-0.5,0-0.7,0L596.8,238.1z M666.5,224.2
	c0,4.7-1.9,9.6-5.4,12.4c-0.4,0.4-0.9,0.7-1.4,0.9c-0.3,0.1-0.5,0.2-0.8,0.3l6.5,15.2c0.8,2,0,3.4-2.3,3.4H656
	c-1.5,0.1-2.9-0.9-3.4-2.3l-5.7-14.8H641v14.2c0.2,1.4-0.8,2.7-2.2,2.9c-0.2,0-0.5,0-0.7,0h-6.4c-1.4,0.2-2.7-0.8-2.9-2.2
	c0-0.2,0-0.5,0-0.7v-42.1c-0.2-1.4,0.8-2.7,2.2-2.9c0.2,0,0.5,0,0.7,0h19.7c3.8-0.1,7.5,1.2,10.4,3.6c1.3,1.3,2.4,2.8,3.2,4.5
	C665.9,219.1,666.5,221.6,666.5,224.2L666.5,224.2z M654.6,224.2c0.2-2-1.3-3.8-3.3-3.9c-0.2,0-0.4,0-0.6,0H641v8h9.3
	c2.3,0.1,4.2-1.6,4.3-3.9C654.6,224.4,654.6,224.3,654.6,224.2L654.6,224.2z M701.6,244.9c0.7-0.4,1.2-1.2,1.2-2
	c0.1-0.7-0.1-1.3-0.6-1.8c-0.2-0.2-0.5-0.4-0.8-0.6c-1.3-0.8-2.7-1.4-4.2-1.7c-1.2-0.3-2.6-0.6-4.3-1c-7.1-1.5-13.3-4.2-15.8-7.8
	c-1.2-1.8-1.9-4-2.1-6.2c-0.2-1.8,0-3.6,0.6-5.4c1.2-3.5,3.7-6.4,7-8.1c3.7-2.1,7.9-3.1,12.2-3c3.3,0,6.6,0.5,9.8,1.4
	c2.2,0.7,4.4,1.8,6.3,3c1.6,1,1.9,2.4,0.6,4l-3.5,4.9c-1,1.5-2.3,1.8-4,0.8c-2.8-1.7-6-2.6-9.3-2.7c-1.7-0.1-3.4,0.3-5,1.1
	c-0.8,0.4-1.4,1.1-1.8,1.9c-0.5,1.3,0.1,2.2,1.2,2.9c1.6,0.8,3.3,1.3,5,1.6c10.1,2,15.5,4.7,17.9,7.8c2.4,3.2,3.3,7.3,2.5,11.3
	c-0.5,3.4-2.3,6.5-5.1,8.5c-3,2.4-7.6,4-13.9,4h-1.2c-0.4,0-0.9,0-1.3-0.1c-6.1-0.2-12-2-17.2-5c-1.8-1-2-2.5-0.8-4.1l4.3-5.4
	c1.1-1.5,2.5-1.7,4.1-0.7c2.9,1.9,6.2,3,9.7,3.4C697,246.3,700.2,245.9,701.6,244.9L701.6,244.9z M732.4,208.5
	c1.4-0.2,2.7,0.8,2.9,2.2c0,0.2,0,0.5,0,0.7v42.1c0.2,1.4-0.8,2.7-2.2,2.9c-0.2,0-0.5,0-0.7,0H726c-1.4,0.2-2.7-0.8-2.9-2.2
	c0-0.2,0-0.5,0-0.7v-42.1c-0.2-1.4,0.8-2.7,2.2-2.9c0.2,0,0.5,0,0.7,0H732.4z M759.5,256.4c-1.4,0.2-2.7-0.8-2.9-2.2
	c0-0.2,0-0.5,0-0.7v-32.8h-10c-1.4,0.2-2.7-0.8-2.9-2.2c0-0.2,0-0.5,0-0.7v-6.4c-0.2-1.4,0.8-2.7,2.2-2.9c0.2,0,0.5,0,0.7,0h32.2
	c1.4-0.2,2.7,0.8,2.9,2.2c0,0.2,0,0.5,0,0.7v6.4c0.2,1.4-0.8,2.7-2.2,2.9c-0.2,0-0.5,0-0.7,0h-10v32.8c0.2,1.4-0.8,2.7-2.2,2.9
	c-0.2,0-0.5,0-0.7,0H759.5L759.5,256.4z M805.6,256.4c-1.4,0.2-2.7-0.8-2.9-2.2c0-0.2,0-0.5,0-0.7v-19.4L788.9,212
	c-1.2-2-0.5-3.5,1.9-3.5h7.7c1.4,0,2.8,0.7,3.5,1.9l6.7,10.8l6.7-10.8c0.7-1.2,2.1-2,3.5-1.9h7.7c2.4,0,3.2,1.5,1.9,3.5L815,234.2
	v19.4c0.2,1.4-0.8,2.7-2.2,2.9c-0.2,0-0.5,0-0.7,0L805.6,256.4z"/>
<g>
	<path class="st5" d="M65.6,292.5h-2.5v-15.4h2.5V292.5z M63.1,292.5L63.1,292.5z M72,292.5h-2.5v-15.4H72V292.5z M69.6,292.5
		L69.6,292.5z M81,279.3v-2.2h2.2c-0.2-0.5-0.3-1.1-0.3-1.7c0-1.3,0.6-2.6,1.7-3.4c1.1-0.9,2.6-1.4,4.1-1.4c2.2,0,4.3,0.6,6.1,1.7
		c1.8,1.1,3.3,2.7,4.2,4.6h-2.5c-0.7-1.3-1.9-2.3-3.2-3c-1.4-0.7-3-1.1-4.7-1.1c-0.8,0-1.7,0.2-2.3,0.7c-0.6,0.4-1,1-1,1.7
		c0,0.6,0.1,1.2,0.3,1.7h2.7v2.2H86v13.1h-2.5v-13.1H81V279.3z M87.8,279.3v-2.2h13.9v2.2h-2.5v13.1h-2.5v-3.9
		c-0.3,0.4-0.7,0.7-1.2,0.8c-0.6,0.2-1.1,0.3-1.7,0.3c-1.3,0-2.5-0.4-3.4-1.3c-1.8-1.5-1.9-4.2-0.4-5.9c0.1-0.2,0.3-0.3,0.4-0.4
		c1-0.9,2.2-1.3,3.5-1.3c0.5,0,1,0,1.5,0.1c0.3,0.1,0.7,0.2,1,0.3l-0.6,2.3c-0.2-0.1-0.5-0.2-0.7-0.3c-0.4-0.1-0.8-0.1-1.2-0.1
		c-0.6,0-1.3,0.2-1.7,0.6c-0.8,0.7-0.9,1.9-0.3,2.8c0.1,0.1,0.2,0.2,0.3,0.3c0.5,0.4,1.1,0.7,1.7,0.6c0.6,0,1.2-0.1,1.7-0.4
		s0.9-0.7,1.2-1.2v-6.4C96.8,279.3,87.8,279.3,87.8,279.3z M101.9,284.1l3.2-1.7c-0.5-0.2-0.9-0.6-1.2-1.1c-0.3-0.4-0.5-0.9-0.5-1.5
		c0-0.9,0.4-1.7,1-2.3c1.4-1.3,3.6-1.3,5,0c0.7,0.6,1.1,1.5,1,2.4c0,0.4-0.2,0.8-0.4,1.1c-0.3,0.5-0.7,0.9-1.1,1.2l3.2,1.3v-4.2
		h-0.8v-2.2h5.7v2.2h-2.5v13.1H112v-2.1c-0.6,0.4-1.2,0.8-1.9,0.9c-0.9,0.2-1.8,0.3-2.6,0.3c-1.1,0-2.2-0.3-3-1
		c-1.3-0.9-1.6-2.7-0.7-3.9c0.2-0.3,0.4-0.5,0.7-0.7c0.9-0.7,1.9-1,3-1c0.9,0,1.8,0.2,2.6,0.6l-0.6,2.3c-0.7-0.3-1.4-0.5-2.1-0.6
		c-0.4,0-0.9,0.1-1.2,0.3c-0.3,0.1-0.5,0.4-0.5,0.7c0,0.3,0.2,0.6,0.5,0.7c0.4,0.2,0.8,0.3,1.3,0.3c0.9,0,1.8-0.1,2.7-0.4
		c0.7-0.2,1.3-0.6,1.8-1.2v-2.2l-5.2-2l-4.1,2.2L101.9,284.1L101.9,284.1z M107,281.2c0.3-0.1,0.6-0.3,0.8-0.5
		c0.2-0.2,0.3-0.5,0.3-0.7c0-0.6-0.5-1.1-1.1-1.1c-0.3,0-0.6,0.1-0.7,0.3c-0.2,0.2-0.3,0.5-0.3,0.8s0.1,0.5,0.3,0.7
		C106.4,280.9,106.7,281,107,281.2L107,281.2z M117.4,286.9l1.7-1.8l1.2,1.1c0.9,0,1.8-0.2,2.6-0.7c0.7-0.4,1.1-1,1.3-1.8
		c-0.5,0.4-1.1,0.6-1.7,0.6c-1.1,0-2.2-0.4-3-1.1c-0.8-0.6-1.2-1.6-1.2-2.6s0.4-2,1.2-2.7c0.7-0.7,1.8-1.1,2.8-1.1
		c1.2,0,2.4,0.5,3.2,1.5c0.8,1.1,1.3,2.5,1.2,3.9c0,1.4-0.4,2.8-1.3,3.9c-0.8,1.1-1.9,1.8-3.2,2l3.7,3.2l-1.6,1.7L117.4,286.9z
		 M122.5,282c0.3,0,0.6-0.1,0.9-0.2c0.6-0.1,1-0.6,0.9-1.2c0-0.4-0.3-0.7-0.7-0.9c-0.3-0.4-0.8-0.7-1.4-0.6c-0.8,0-1.5,0.6-1.5,1.5
		c0,0,0,0,0,0.1c0,0.4,0.2,0.7,0.5,0.9C121.6,281.8,122,282,122.5,282L122.5,282z M129.3,292.5v-13.1h-2.5v-2.2h7.4v2.2h-2.5v13.1
		H129.3z M133.6,279.3v-2.2h7.4v2.2h-2.5v13.1H136v-13.1H133.6z M140.3,279.3v-2.2h2.5c-0.2-0.2-0.3-0.5-0.4-0.8
		c-0.1-0.3-0.2-0.7-0.2-1c0-1.5,0.8-2.8,2.1-3.5c1.5-1,3.3-1.5,5-1.4c2.7,0,5.4,0.6,7.9,1.7c2.8,1.2,5.5,2.8,7.8,4.8h-3.2
		c-4.8-2.8-9-4.2-12.4-4.2c-1.2,0-2.3,0.2-3.4,0.8c-0.8,0.4-1.3,1.1-1.4,2c0,0.3,0.1,0.6,0.2,0.9c0.2,0.3,0.4,0.6,0.7,0.8h2.1v2.2
		h-2.5v13.1h-2.5v-13.1L140.3,279.3L140.3,279.3z M156.1,279.3h-9v-2.2h9V279.3z M147.1,279.3L147.1,279.3z M151.3,287.6
		c-0.5,0-1.1-0.6-2-1.7c-0.7-0.7-1.1-1.6-1.3-2.6c0-0.2,0.1-0.5,0.2-0.6c0.1-0.2,0.3-0.3,0.5-0.3h8.4v2.3h-4.3
		c-0.2,0-0.3,0.1-0.4,0.2c-0.1,0.1-0.2,0.2-0.2,0.4v1.7c0,0.2-0.1,0.4-0.2,0.5C151.7,287.5,151.5,287.6,151.3,287.6L151.3,287.6z
		 M153.5,279.3v-2.2h15.6v2.2h-2.5v13.1h-2.5v-8.7h-5.6c-0.4,0-0.7,0.1-1,0.4c-0.3,0.2-0.4,0.5-0.4,0.9c0,1.1,0.4,2.2,1,3.1
		c0.8,1.1,1.7,2.1,2.9,2.8l-1.4,1.7c-1.4-1-2.7-2.3-3.7-3.7c-0.8-1.1-1.3-2.5-1.3-3.8c0-1,0.4-1.9,1.1-2.5c0.7-0.7,1.7-1.1,2.7-1
		h5.6v-2.2L153.5,279.3L153.5,279.3z M168.4,279.4c0-0.9,0.4-1.9,1-2.5c0.7-0.7,1.6-1.1,2.6-1c0.9,0,1.8,0.3,2.4,0.9
		c0.6,0.5,1,1.3,1,2.1c0,0.7-0.3,1.3-0.9,1.8c-0.6,0.5-1.3,0.7-2.1,0.7l-0.6-1.7c0.3,0,0.6-0.1,0.8-0.2s0.3-0.3,0.3-0.6
		c0-0.2-0.2-0.4-0.3-0.5c-0.2-0.1-0.4-0.2-0.6-0.2c-0.3,0-0.6,0.1-0.8,0.4c-0.2,0.2-0.3,0.6-0.3,0.9c0,0.6,0.2,1.2,0.5,1.7
		c0.4,0.6,0.9,1,1.4,1.4c0.6-0.3,1.3-0.5,2-0.5l0.4,2.2c-0.7,0-1.4,0.2-2.1,0.6c-0.5,0.3-0.8,0.8-0.9,1.4c0,0.4,0.2,0.9,0.6,1.1
		c0.4,0.3,0.9,0.5,1.4,0.5c0.8,0,1.7-0.2,2.4-0.6s1.4-1.1,1.8-1.8v-5.9h-2.5v-2.2h7.4v2.2H181v13.1h-2.5v-4.2
		c-0.5,0.6-1.1,1-1.8,1.3c-0.8,0.3-1.6,0.4-2.4,0.4c-1.2,0-2.3-0.4-3.2-1.1c-1.3-1-1.7-2.7-1-4.2c0.2-0.4,0.5-0.8,0.9-1
		c-0.8-0.4-1.4-1.1-1.9-1.8C168.7,281.1,168.4,280.3,168.4,279.4L168.4,279.4z M171.1,292.1l8.7-6.9v2.5l-7.4,6L171.1,292.1
		L171.1,292.1z M170.5,296.4l1.1-1.6c1,0.8,2.1,1.4,3.2,1.7c1.3,0.4,2.7,0.6,4.1,0.6c0.7,0,1.3-0.2,1.9-0.5c0.5-0.3,0.8-0.8,0.8-1.3
		c0-0.4-0.2-0.7-0.5-0.9c-0.3-0.2-0.7-0.4-1.2-0.4c-0.3,0-0.6,0.1-0.9,0.2c-0.3,0.2-0.6,0.4-0.8,0.6l-1.4-1.5c0.5-0.4,1-0.8,1.6-1
		c0.4-0.2,0.9-0.4,1.4-0.4c1,0,1.9,0.3,2.7,1c0.7,0.6,1.1,1.5,1.1,2.4c0,1.1-0.5,2.1-1.4,2.8c-1,0.8-2.2,1.2-3.4,1.1
		c-1.6,0-3.1-0.2-4.6-0.7C172.9,298.1,171.6,297.4,170.5,296.4L170.5,296.4z M177.8,274c0-1,0.4-1.9,1.1-2.5c0.7-0.7,1.7-1,2.7-1
		c0.7,0,1.5,0.2,2.1,0.5l-0.4,1.7c-0.5-0.2-1.1-0.3-1.7-0.3c-0.5,0-0.9,0.2-1.2,0.5s-0.5,0.7-0.5,1.2s0.1,1,0.4,1.4
		c0.3,0.5,0.7,1,1.1,1.4h-2.2c-0.4-0.4-0.8-0.8-1-1.3C178,275.1,177.8,274.6,177.8,274L177.8,274z M183.3,279.3v-2.2h13.9v2.2h-2.5
		v13.1h-2.5v-3.9c-0.3,0.4-0.7,0.7-1.2,0.8c-0.6,0.2-1.1,0.3-1.7,0.3c-1.3,0-2.5-0.4-3.4-1.3c-1.8-1.5-1.9-4.2-0.4-5.9
		c0.1-0.2,0.3-0.3,0.4-0.4c1-0.9,2.2-1.3,3.5-1.3c0.5,0,1,0,1.5,0.1c0.3,0.1,0.7,0.2,1,0.3l-0.6,2.3c-0.2-0.1-0.5-0.2-0.7-0.3
		c-0.4-0.1-0.8-0.1-1.2-0.1c-0.6,0-1.2,0.2-1.7,0.6c-0.8,0.7-0.9,1.9-0.3,2.8c0.1,0.1,0.2,0.2,0.3,0.3c0.5,0.4,1.1,0.7,1.7,0.6
		c0.6,0,1.2-0.1,1.7-0.4s0.9-0.7,1.2-1.2v-6.4H183.3L183.3,279.3z M195.1,273.7H192v-3.1h3.1V273.7z M187,273.7L187,273.7z
		 M201.2,279.4c0-0.9,0.4-1.9,1-2.5c0.7-0.7,1.6-1.1,2.6-1c0.9,0,1.8,0.3,2.4,0.9c0.6,0.5,1,1.3,1,2.1c0,0.7-0.3,1.3-0.9,1.8
		c-0.6,0.5-1.4,0.7-2.1,0.7l-0.6-1.7c0.3,0,0.6-0.1,0.8-0.2s0.3-0.3,0.3-0.6c0-0.2-0.2-0.4-0.3-0.5c-0.2-0.1-0.4-0.2-0.6-0.2
		c-0.3,0-0.6,0.1-0.8,0.4c-0.2,0.2-0.3,0.6-0.3,0.9c0,0.6,0.2,1.2,0.5,1.7c0.4,0.6,0.9,1,1.4,1.4c0.6-0.3,1.3-0.5,2-0.5l0.4,2.2
		c-0.7,0-1.5,0.2-2.1,0.6c-0.5,0.3-0.8,0.8-0.9,1.4c0,0.4,0.2,0.9,0.6,1.1c0.4,0.3,0.9,0.5,1.4,0.5c0.8,0,1.7-0.2,2.4-0.6
		s1.4-1.1,1.8-1.8v-5.9h-2.5v-2.2h7.4v2.2h-2.5v13.1h-2.5v-4.2c-0.5,0.6-1.1,1-1.8,1.3c-0.8,0.3-1.6,0.4-2.4,0.4
		c-1.2,0-2.3-0.4-3.2-1.1c-0.8-0.7-1.3-1.7-1.3-2.7c0-0.5,0.1-1,0.3-1.5c0.2-0.4,0.5-0.8,0.9-1c-0.8-0.4-1.4-1.1-1.9-1.8
		C201.4,281.1,201.2,280.3,201.2,279.4L201.2,279.4z M203.8,292.1l8.7-6.9v2.5l-7.4,6L203.8,292.1z M203.3,296.4l1.1-1.6
		c1,0.8,2.1,1.4,3.2,1.7c1.3,0.4,2.7,0.6,4.1,0.6c0.7,0,1.3-0.2,1.9-0.5c0.5-0.3,0.8-0.8,0.8-1.3c0-0.4-0.2-0.7-0.5-0.9
		c-0.3-0.2-0.8-0.4-1.2-0.4c-0.3,0-0.6,0.1-0.9,0.2c-0.3,0.2-0.6,0.4-0.8,0.6l-1.4-1.5c0.5-0.4,1-0.8,1.6-1c0.4-0.2,0.9-0.4,1.4-0.4
		c1,0,1.9,0.3,2.7,1c0.7,0.6,1.1,1.5,1.1,2.4c0,1.1-0.5,2.1-1.4,2.8c-1,0.8-2.2,1.2-3.4,1.1c-1.6,0-3.1-0.2-4.6-0.7
		C205.7,298.1,204.4,297.4,203.3,296.4L203.3,296.4z M215.9,279.3v-2.2h13.9v2.2h-2.5v13.1h-2.5v-3.9c-0.3,0.4-0.7,0.7-1.2,0.8
		c-0.6,0.2-1.1,0.3-1.7,0.3c-1.3,0-2.5-0.4-3.4-1.3c-1.8-1.5-1.9-4.2-0.4-5.9c0.1-0.1,0.3-0.3,0.4-0.4c1-0.9,2.2-1.3,3.5-1.3
		c0.5,0,1,0,1.5,0.1c0.3,0.1,0.7,0.2,1,0.3l-0.6,2.3c-0.2-0.1-0.5-0.2-0.7-0.3c-0.4-0.1-0.8-0.1-1.2-0.1c-0.6,0-1.3,0.2-1.7,0.6
		c-0.8,0.7-0.9,1.9-0.3,2.8c0.1,0.1,0.2,0.2,0.3,0.3c0.5,0.4,1.1,0.7,1.7,0.6c0.6,0,1.2-0.1,1.7-0.4s0.9-0.7,1.2-1.2v-6.4H215.9
		L215.9,279.3z M229.2,279.3v-2.2h7.4v2.2h-2.5v13.1h-2.5v-13.1H229.2z M246.6,292.5h-2.5v-15.4h2.5V292.5z M244.2,292.5
		L244.2,292.5z M253.1,292.5h-2.5v-15.4h2.5V292.5z M250.6,292.5L250.6,292.5z"/>
</g>
<g>
	<path class="st6" d="M159,17.4h-2.8l-0.1-0.1c-0.3-0.3-0.6-0.7-0.7-1.1c0-0.5,0.1-1,0.3-1.4c1.2-0.1,2.4-0.1,3.6,0
		c0.3,0.4,0.4,0.9,0.4,1.3c-0.1,0.4-0.2,0.8-0.5,1.1L159,17.4L159,17.4z M155.2,20.1L155.2,20.1c1.6-0.2,3.2-0.2,4.8,0v-1.6h-4.8
		V20.1z M151.7,23.3L151.7,23.3c2-0.3,4-0.4,6-0.4s3.9,0.2,5.9,0.4v-1.4l0,0c-1.9-0.3-3.9-0.5-5.9-0.6c-2,0-4,0.2-6,0.6l0,0V23.3
		L151.7,23.3z M151.4,27.9h13.1l2.5,0.4v-2.5c-3.1-0.5-6.2-0.7-9.4-0.7c-3.1,0-6.3,0.2-9.4,0.7v2.7L151.4,27.9L151.4,27.9z
		 M151.3,46.6L151.3,46.6c-0.6,0-1.1,0.1-1.7,0.1l0.5-13.4l1.3,0.2L151.3,46.6z M161.7,46.5L161.7,46.5c-1.3,0-2.7-0.1-4.1-0.1
		c-0.9,0-1.8,0-2.7,0l0.4-12.9h5.9L161.7,46.5L161.7,46.5z M166.5,46.8L166.5,46.8c-0.6,0-1.1-0.1-1.7-0.1l-0.1-13.1l1.3-0.2
		L166.5,46.8z M76.7,145.1L76.7,145.1c5.5-48.6,34.1-86.8,70.2-93.2c-12.6,13.2-22.1,48.9-24.1,92.7
		C106.3,144.7,90.8,144.9,76.7,145.1z M47.8,145.7L47.8,145.7c6.1-41.1,34.6-75.3,73.9-88.8c-26.1,16-45.2,48.9-49.5,88.3
		C63.4,145.3,55.3,145.5,47.8,145.7z M272.1,145.8L272.1,145.8c-7.5-52.7-49.9-93.4-102.8-98.8l-0.6-14.2l0.5-0.1l4.6-0.8v-2.3
		l-4.6-0.8l-1.2-0.2V25l-0.7-0.1c-0.7-0.1-1.5-0.2-2.2-0.3v-1l-0.6-0.1l-0.4-0.1v-2l-0.5-0.1c-0.7-0.1-1.3-0.2-2-0.3v-0.7
		c-0.4-0.1-0.8-0.1-1.2-0.2V18h-1.2l0.2-0.1c0.5-0.4,0.9-1.1,1-1.8c0-0.7-0.2-1.4-0.7-2c-0.3,0-0.5-0.1-0.8-0.1
		c-0.2-0.4-0.5-0.7-0.7-1.1c0.1,0,0.1-0.1,0.2-0.2c0.5-0.5,0.5-1.3,0-1.8l0,0c0.5-0.2,0.9-0.7,0.9-1.2c-0.1-0.7-0.6-1.2-1.2-1.3
		c0.1-0.1,0.2-0.1,0.3-0.2c0.5-0.5,0.5-1.3,0-1.8c-0.1-0.1-0.1-0.1-0.2-0.2c0.1-0.1,0.2-0.1,0.3-0.2c0.3-0.3,0.4-0.6,0.4-1
		c-0.3-1.7-0.8-3.3-1.4-4.9c-0.6,1.6-1.1,3.3-1.4,4.9c0,0.4,0.2,0.7,0.4,1c0.1,0.1,0.2,0.2,0.3,0.2c-0.1,0.1-0.2,0.1-0.2,0.2
		c-0.5,0.5-0.5,1.3,0,1.8c0.1,0.1,0.2,0.2,0.3,0.2c-0.7,0.1-1.2,0.7-1.2,1.3c0,0.5,0.4,1,0.9,1.2l0,0c-0.5,0.5-0.5,1.3,0,1.8
		c0,0.1,0.1,0.1,0.2,0.1l0,0l-0.8,1.1c-0.2,0-0.5,0-0.7,0c-0.4,0.6-0.6,1.4-0.6,2.2c0.1,0.7,0.5,1.3,1.1,1.7h0.1h-1.1v2.1
		c-0.4,0.1-0.8,0.1-1.1,0.2V21c-0.7,0.1-1.4,0.2-2,0.3l-0.5,0.1v1.9l-0.4,0.1l-0.5,0.1v1c-0.7,0.1-1.5,0.2-2.2,0.3l-0.7,0.1v3.7
		l-0.4,0.1l-4.6,0.8v2.3l4.6,0.8l0.5,0.1L146.7,47c-53.2,5.1-96,46-103.5,98.9c-18.3,0.5-31.8,1.1-38.5,1.8v8c0.5,0,1-0.1,1.5-0.1
		v-5.4l0.8-0.1v4.5l3.9-0.4v-4.5l0.8-0.1v5.5c1.8-0.1,3.8-0.2,6-0.3v-5.7l1.7-0.1v4.6l7.7-0.4v-4.6l1.7-0.1v5.7
		c3.2-0.1,6.5-0.2,10.1-0.3v-5.7l2.6-0.1v4.8l11.8-0.4v-4.8l2.6-0.1v5.8h1c4.3-0.1,8.7-0.2,13.3-0.3v-6.4h3.2v5.2h14.9v-5.2h3.2v6.1
		c5.4-0.1,11.1-0.1,16.8-0.2v-6.7h3.7v5.2h17v-5.2h3.7v6.6c4.2,0,8.4,0,12.6,0V147h3.8v5.1h17.7V147h3.8v5.6c4.2,0,8.4,0,12.5,0V147
		h3.7v5.1h17V147h3.7v5.8c5.8,0,11.4,0.1,16.8,0.2v-6h3.2v5.1h14.9V147h3.2v6.3c4.5,0.1,8.9,0.2,13.1,0.3h1.3v-5.7l2.6,0.1v4.7
		l11.8,0.4v-4.7l2.6,0.1v5.6c3.6,0.1,7,0.2,10.1,0.3v-5.7l1.7,0.1v4.5l7.7,0.4v-4.5l1.7,0.1v5.6c2.2,0.1,4.2,0.2,6,0.3v-5.5l0.8,0.1
		v4.4l3.9,0.4v-4.4l0.8,0.1v5.4c0.5,0.1,1,0.1,1.4,0.1v-8.1C304.8,147,291,146.3,272.1,145.8L272.1,145.8z M243.1,145.2L243.1,145.2
		c-4.3-39.3-23.4-72.2-49.5-88.3c39.3,13.5,67.7,47.7,73.9,88.8C260.1,145.5,251.9,145.3,243.1,145.2L243.1,145.2z M192.5,144.6
		L192.5,144.6c-2-43.8-11.5-79.5-24.1-92.7c36,6.4,64.7,44.6,70.2,93.2C224.5,144.9,209,144.7,192.5,144.6L192.5,144.6z M259.2,156
		L259.2,156c27.1,0.6,46.5,1.4,53.9,2.4V157c-7.2-1-26.7-1.8-53.9-2.4c-27.3-0.6-62.6-1-101.1-1s-73.7,0.4-101.1,1
		c-27.2,0.6-46.7,1.4-53.9,2.4v1.3c7.4-0.9,26.8-1.8,53.9-2.4c27.5-0.6,62.7-1,101.1-1C196.5,155,231.7,155.4,259.2,156z
		 M16.6,166.9L16.6,166.9c-0.3-1-0.7-1.6-1.2-1.6c-0.4,0-0.9,0.6-1.2,1.6c-0.4,1.3-0.5,2.7-0.5,4.1v9.6h3.4v-9.4l0,0V171
		C17.1,169.6,16.9,168.2,16.6,166.9L16.6,166.9z M17.9,169.8L17.9,169.8l0.1,10.8h-0.5v-10l0,0c0-1.5-0.2-2.9-0.6-4.3
		c-0.4-1.2-0.9-1.9-1.4-1.9c-0.6,0-1.1,0.7-1.4,1.9c-0.4,1.4-0.6,2.9-0.6,4.3l0,0v10H13v-10.8l0,0c0.1-1.4,0.3-2.8,0.7-4.1
		c0.5-1.4,1.1-2.1,1.8-2.1c0.7,0,1.3,0.7,1.8,2.1C17.6,167,17.8,168.4,17.9,169.8L17.9,169.8z M25.2,166.9L25.2,166.9
		c-0.5-1-1.1-1.6-1.7-1.6c-0.7,0-1.3,0.6-1.7,1.6c-0.5,1.3-0.8,2.7-0.8,4.1v0.2v9.4h5v-9.4l0,0V171C26,169.5,25.7,168.2,25.2,166.9
		L25.2,166.9z M26.9,169.8L26.9,169.8l0.1,10.8h-0.6v-10l0,0c0-1.5-0.3-2.9-0.9-4.3c-0.5-1.2-1.3-1.9-2.1-1.9c-0.8,0-1.5,0.7-2,1.9
		c-0.6,1.4-0.9,2.8-0.9,4.3l0,0v10h-0.6v-10.8H20c0.1-1.4,0.4-2.8,1-4.1c0.7-1.4,1.5-2.1,2.4-2.1s1.8,0.7,2.4,2.1
		C26.5,167,26.8,168.4,26.9,169.8L26.9,169.8z M40.2,166.9L40.2,166.9c-0.7-1.4-2.3-2-3.7-1.4c-0.6,0.3-1.1,0.8-1.4,1.4
		c-0.7,1.2-1.2,2.6-1.2,4.1v0.2v9.5h7.5v-9.4l0,0v-0.2C41.4,169.5,41,168.1,40.2,166.9L40.2,166.9z M42.5,169.8L42.5,169.8l0.1,10.8
		H42v-10l0,0c-0.1-1.5-0.5-3-1.3-4.3c-0.8-1.7-2.8-2.4-4.4-1.6c-0.7,0.3-1.3,0.9-1.6,1.6c-0.8,1.3-1.3,2.8-1.3,4.3l0,0v10h-0.6
		v-10.8h0.1c0.1-1.5,0.6-2.9,1.4-4.1c0.9-1.9,3.2-2.7,5.1-1.7c0.7,0.4,1.3,1,1.7,1.7C41.9,167,42.4,168.4,42.5,169.8L42.5,169.8z
		 M59.3,166.9L59.3,166.9c-1.1-1.7-3.4-2.1-5.1-1c-0.4,0.3-0.7,0.6-1,1c-0.9,1.2-1.4,2.6-1.4,4.1v0.2v9.4h8.9v-9.4l0,0V171
		C60.6,169.5,60.1,168.1,59.3,166.9L59.3,166.9z M61.9,169.8L61.9,169.8l0.1,10.8h-0.6v-10l0,0c-0.1-1.6-0.6-3.1-1.6-4.3
		c-1.4-2-4.1-2.5-6-1.1c-0.5,0.3-0.8,0.7-1.1,1.1c-0.9,1.3-1.5,2.8-1.6,4.3l0,0v10h-0.6v-10.8h0.1c0.2-1.5,0.8-2.9,1.7-4.1
		c1.5-2.2,4.5-2.8,6.7-1.3c0.5,0.3,0.9,0.8,1.3,1.3C61.1,166.9,61.7,168.3,61.9,169.8L61.9,169.8z M82.7,166.9L82.7,166.9
		c-2-2.1-5.3-2.2-7.4-0.2c-0.1,0.1-0.1,0.1-0.2,0.2c-1.1,1.1-1.7,2.5-1.7,4.1v0.2v9.5h11.1v-9.4l0,0v-0.2
		C84.4,169.4,83.8,168,82.7,166.9L82.7,166.9z M86,169.8L86,169.8l0.1,10.8h-0.7v-10h-0.1c-0.1-1.6-0.8-3.2-1.9-4.3
		c-2.4-2.5-6.3-2.5-8.7-0.2c-0.1,0.1-0.1,0.1-0.2,0.2c-1.1,1.2-1.8,2.7-1.9,4.3l0,0v10h-0.7v-10.8H72c0.3-1.5,1-3,2.1-4.1
		c2.6-2.7,7-2.8,9.7-0.2c0.1,0.1,0.1,0.1,0.2,0.2C85,166.8,85.7,168.3,86,169.8L86,169.8z M107.3,166.9L107.3,166.9
		c-2.3-2.2-5.8-2.2-8.1,0c-1.1,1.1-1.8,2.5-1.9,4.1v0.2v9.5h11.9v-9.4l0,0v-0.2C109.1,169.4,108.5,167.9,107.3,166.9L107.3,166.9z
		 M110.8,169.8h0.2v10.8h-0.8v-10h-0.1c-0.1-1.6-0.9-3.2-2.1-4.3c-2.7-2.5-6.9-2.5-9.6,0c-1.2,1.1-1.9,2.7-2.1,4.3l0,0v10h-0.8
		v-10.8h0.1c0.3-1.6,1.1-3,2.2-4.1c3-2.8,7.7-2.8,10.7,0C109.8,166.8,110.6,168.3,110.8,169.8L110.8,169.8z M137.1,166.9
		L137.1,166.9c-2.3-2.2-5.8-2.2-8.1,0c-1.1,1.1-1.8,2.5-1.9,4.1v0.2v9.5H139v-9.4l0,0v-0.2C138.9,169.4,138.3,167.9,137.1,166.9
		L137.1,166.9z M140.6,169.8h0.2v10.8H140v-10l0,0c-0.1-1.6-0.9-3.2-2.1-4.3c-2.7-2.5-6.9-2.5-9.6,0c-1.2,1.1-1.9,2.7-2.1,4.3l0,0
		v10h-0.8v-10.8h0.1c0.3-1.6,1.1-3,2.2-4.1c3-2.8,7.7-2.8,10.7,0C139.6,166.8,140.4,168.3,140.6,169.8L140.6,169.8z M164.5,166.9
		L164.5,166.9c-2.3-2.2-5.8-2.2-8.1,0c-1.1,1.1-1.8,2.5-1.9,4.1v0.2v9.5h11.9v-9.4l0,0v-0.2C166.3,169.4,165.7,167.9,164.5,166.9
		L164.5,166.9z M168,169.8h0.2v10.8h-0.8v-10h-0.1c-0.1-1.6-0.9-3.2-2.1-4.3c-2.7-2.5-6.9-2.5-9.6,0c-1.2,1.1-1.9,2.7-2.1,4.3l0,0
		v10h-0.8v-10.8h0.1c0.3-1.6,1.1-3,2.2-4.1c3-2.8,7.7-2.8,10.7,0C167,166.8,167.8,168.3,168,169.8L168,169.8z M304.4,166.9
		L304.4,166.9c0.3-1,0.7-1.6,1.2-1.6c0.4,0,0.8,0.6,1.1,1.6c0.4,1.3,0.5,2.7,0.5,4.1v0.2v9.4h-3.4v-9.4l0,0V171
		C303.9,169.6,304,168.2,304.4,166.9L304.4,166.9z M303.1,169.8L303.1,169.8l-0.1,10.8h0.5v-10l0,0c0-1.5,0.2-2.9,0.6-4.3
		c0.4-1.2,0.9-1.9,1.4-1.9c0.6,0,1,0.7,1.4,1.9c0.4,1.4,0.6,2.9,0.6,4.3l0,0v10h0.5v-10.8l0,0c-0.1-1.4-0.3-2.8-0.7-4.1
		c-0.5-1.4-1.1-2.1-1.8-2.1c-0.7,0-1.3,0.7-1.8,2.1C303.4,167,303.1,168.4,303.1,169.8L303.1,169.8z M295.8,166.9L295.8,166.9
		c0.5-1,1.1-1.6,1.7-1.6c0.7,0,1.3,0.6,1.7,1.6c0.5,1.3,0.8,2.7,0.8,4.1v0.2v9.4h-5v-9.4l0,0V171C295,169.5,295.2,168.2,295.8,166.9
		L295.8,166.9z M294,169.8L294,169.8l-0.1,10.8h0.6v-10l0,0c0-1.5,0.3-2.9,0.9-4.3c0.5-1.2,1.3-1.9,2.1-1.9s1.5,0.7,2.1,1.9
		c0.6,1.4,0.9,2.8,0.9,4.3l0,0v10h0.6v-10.8H301c-0.1-1.4-0.4-2.8-1-4.1c-0.7-1.4-1.5-2.1-2.4-2.1s-1.8,0.7-2.4,2.1
		C294.5,167,294.1,168.4,294,169.8L294,169.8z M280.7,166.9L280.7,166.9c0.7-1.4,2.3-2,3.7-1.4c0.6,0.3,1.1,0.8,1.4,1.4
		c0.8,1.2,1.2,2.6,1.2,4.1v0.2v9.5h-7.5v-9.4l0,0v-0.2C279.6,169.5,280,168.1,280.7,166.9L280.7,166.9z M278.4,169.8L278.4,169.8
		l-0.1,10.8h0.6v-10l0,0c0-1.5,0.5-3,1.3-4.3c0.8-1.7,2.8-2.4,4.4-1.6c0.7,0.3,1.2,0.9,1.6,1.6c0.8,1.3,1.3,2.8,1.3,4.3l0,0v10h0.6
		v-10.8H288c-0.1-1.5-0.6-2.9-1.4-4.1c-0.9-1.9-3.2-2.7-5.1-1.7c-0.7,0.4-1.3,1-1.7,1.7C279.1,167,278.6,168.4,278.4,169.8
		L278.4,169.8z M261.7,166.9L261.7,166.9c1.1-1.7,3.4-2.1,5.1-1c0.4,0.3,0.7,0.6,1,1c0.9,1.2,1.4,2.6,1.4,4.1v0.2v9.4h-8.9v-9.4l0,0
		V171C260.3,169.5,260.8,168.1,261.7,166.9L261.7,166.9z M259.1,169.8H259v10.8h0.6v-10l0,0c0.1-1.6,0.6-3.1,1.6-4.3
		c1.4-2,4.1-2.5,6-1.1c0.4,0.3,0.8,0.7,1.1,1.1c0.9,1.2,1.5,2.8,1.6,4.3l0,0v10h0.6v-10.8h-0.1c-0.2-1.5-0.8-2.9-1.7-4.1
		c-1.5-2.2-4.5-2.8-6.7-1.3c-0.5,0.3-0.9,0.8-1.3,1.3C259.8,166.9,259.3,168.3,259.1,169.8L259.1,169.8z M238.2,166.9L238.2,166.9
		c2-2.1,5.3-2.2,7.4-0.2c0.1,0.1,0.1,0.1,0.2,0.2c1.1,1.1,1.7,2.5,1.7,4.1v0.2v9.5h-11.1v-9.4l0,0v-0.2
		C236.6,169.4,237.2,168,238.2,166.9L238.2,166.9z M235,169.8h-0.1v10.8h0.7v-10h0.1c0.1-1.6,0.8-3.2,1.9-4.3
		c2.4-2.5,6.3-2.5,8.7-0.2c0.1,0.1,0.1,0.1,0.2,0.2c1.1,1.2,1.8,2.7,1.9,4.3l0,0v10h0.7v-10.8H249c-0.3-1.5-1-3-2.1-4.1
		c-2.6-2.7-7-2.8-9.7-0.2c-0.1,0.1-0.1,0.1-0.2,0.2C236,166.8,235.2,168.3,235,169.8L235,169.8z M213.6,166.9L213.6,166.9
		c2.3-2.2,5.8-2.2,8.1,0c1.1,1.1,1.8,2.5,1.9,4.1v0.2v9.5h-11.9v-9.4l0,0v-0.2C211.8,169.4,212.5,167.9,213.6,166.9L213.6,166.9z
		 M210.1,169.8H210v10.8h0.8v-10h0.1c0.1-1.6,0.9-3.2,2.1-4.3c2.7-2.5,6.9-2.5,9.6,0c1.2,1.1,1.9,2.7,2.1,4.3l0,0v10h0.8v-10.8h-0.1
		c-0.3-1.6-1.1-3-2.2-4.1c-3-2.8-7.7-2.8-10.7,0C211.2,166.8,210.4,168.3,210.1,169.8L210.1,169.8z M183.8,166.9L183.8,166.9
		c2.3-2.2,5.8-2.2,8.1,0c1.1,1.1,1.8,2.5,1.9,4.1v0.2v9.5h-11.9v-9.4l0,0v-0.2C182,169.4,182.7,167.9,183.8,166.9L183.8,166.9z
		 M180.3,169.8h-0.2v10.8h0.8v-10h0.1c0.1-1.6,0.9-3.2,2.1-4.3c2.7-2.5,6.9-2.5,9.6,0c1.2,1.1,1.9,2.7,2.1,4.3l0,0v10h0.8v-10.8
		h-0.1c-0.3-1.6-1.1-3-2.2-4.1c-3-2.8-7.7-2.8-10.7,0C181.4,166.8,180.6,168.3,180.3,169.8L180.3,169.8z M312.8,160.6L312.8,160.6
		v22.3H8.2v-21.8c-5.3-0.4-8.2-0.9-8.2-1.3c0-0.2,0.7-0.5,2-0.7v0.6l0.6-0.1c6.8-1,26.5-1.8,54.4-2.5c27.3-0.6,62.6-1,101.1-1
		s73.7,0.4,101.1,1c27.8,0.6,47.6,1.5,54.4,2.5l0.6,0.1v-0.6c1.3,0.2,2,0.4,2,0.7S315,160.4,312.8,160.6L312.8,160.6z M308.4,159.6
		L308.4,159.6v21h2.6v-21H308.4z M279.3,159.6L279.3,159.6v2.3h25.6v-2.3H279.3z M273.8,159.6L273.8,159.6v21h2.6v-21H273.8z
		 M215.2,159.6L215.2,159.6v2.3h49.5v-2.3H215.2z M201.9,159.6L201.9,159.6v21h4.1v-21H201.9z M125.2,159.6L125.2,159.6v2.3h70.4
		v-2.3H125.2L125.2,159.6z M115,159.6L115,159.6v21h4.1v-21H115z M56.3,159.6L56.3,159.6v2.3h49.5v-2.3H56.3z M44.6,159.6
		L44.6,159.6v21h2.6v-21H44.6z M15.8,159.6L15.8,159.6v2.3h25.6v-2.3H15.8z M9.9,159.6L9.9,159.6v21h2.6v-21H9.9z M157.7,51.5
		L157.7,51.5c15.1,0,27.5,40.3,29.8,93.1c-9.5,0-19.3-0.1-29.4-0.1c-10.3,0-20.5,0-30.3,0.1C130.1,91.9,142.6,51.5,157.7,51.5z"/>
	<path class="st7" d="M8.2,204.9c-0.2-1.4,0.8-2.7,2.2-2.9c0.2,0,0.5,0,0.7,0h5.4c1.5-0.1,2.9,0.8,3.4,2.2L32.3,231l12.5-26.8
		c0.6-1.4,1.9-2.3,3.4-2.2h5.4c1.4-0.2,2.7,0.8,2.9,2.2c0,0.2,0,0.5,0,0.7v42c0.2,1.4-0.8,2.7-2.2,2.9c-0.2,0-0.5,0-0.7,0h-6.4
		c-1.4,0.2-2.7-0.8-2.9-2.2c0-0.2,0-0.5,0-0.7v-16.7L37,247.5c-0.5,1.4-1.9,2.3-3.4,2.3H31c-1.5,0.1-2.9-0.8-3.4-2.3l-7.2-17.2v16.6
		c0.2,1.4-0.8,2.7-2.2,2.9c-0.2,0-0.5,0-0.7,0h-6.4c-1.4,0.2-2.7-0.8-2.9-2.2c0-0.2,0-0.5,0-0.7L8.2,204.9L8.2,204.9z"/>
	<path class="st7" d="M74.8,202c1.4-0.2,2.7,0.8,2.9,2.2c0,0.2,0,0.5,0,0.7v42c0.2,1.4-0.8,2.7-2.2,2.9c-0.2,0-0.5,0-0.7,0h-6.4
		c-1.4,0.2-2.7-0.8-2.9-2.2c0-0.2,0-0.5,0-0.7v-42c-0.2-1.4,0.8-2.7,2.2-2.9c0.2,0,0.5,0,0.7,0H74.8z"/>
	<path class="st7" d="M101.8,249.8c-1.4,0.2-2.7-0.8-2.9-2.2c0-0.2,0-0.5,0-0.7v-32.7H89c-1.4,0.2-2.7-0.8-2.9-2.2
		c0-0.2,0-0.5,0-0.7v-6.4c-0.2-1.4,0.8-2.7,2.2-2.9c0.2,0,0.5,0,0.7,0h32c1.4-0.2,2.7,0.8,2.9,2.2c0,0.2,0,0.5,0,0.7v6.4
		c0.2,1.4-0.8,2.7-2.2,2.9c-0.2,0-0.5,0-0.7,0h-9.9v32.7c0.2,1.4-0.8,2.7-2.2,2.9c-0.2,0-0.5,0-0.7,0H101.8L101.8,249.8z"/>
	<path class="st7" d="M146.9,221.6c1.4-0.2,2.7,0.8,2.9,2.2c0,0.2,0,0.5,0,0.7v3.2c0.2,1.4-0.8,2.7-2.2,2.9c-0.2,0-0.5,0-0.7,0
		h-14.8c-1.4,0.2-2.7-0.8-2.9-2.2c0-0.2,0-0.5,0-0.7v-3.2c-0.2-1.4,0.8-2.7,2.2-2.9c0.2,0,0.5,0,0.7,0H146.9z"/>
	<path class="st7" d="M156.8,205.1c-0.5-2,0.5-3.2,2.6-3.2h6.6c1.6-0.1,3,1,3.2,2.6l4.5,21l5.7-21.1c0.3-1.5,1.7-2.6,3.2-2.5h7
		c1.5-0.1,2.9,0.9,3.2,2.5l5.7,21l4.5-20.8c0.2-1.6,1.6-2.7,3.2-2.6h6.5c2.1,0,3,1.2,2.6,3.2l-9.2,42.1c-0.2,1.6-1.6,2.7-3.2,2.6
		h-7.5c-1.5,0.1-2.9-0.9-3.2-2.5l-6.1-22.5l-6.1,22.5c-0.4,1.5-1.7,2.5-3.3,2.5h-7.5c-1.6,0.1-3-1-3.2-2.6L156.8,205.1L156.8,205.1z
		"/>
	<path class="st7" d="M261,217.7c0,4.7-1.9,9.6-5.4,12.3c-3.1,2.3-6.8,3.6-10.7,3.5h-9.2v13.4c0.2,1.4-0.8,2.7-2.2,2.9
		c-0.2,0-0.5,0-0.7,0h-6.4c-1.4,0.2-2.7-0.8-2.9-2.2c0-0.2,0-0.5,0-0.7v-42c-0.2-1.4,0.8-2.7,2.2-2.9c0.2,0,0.5,0,0.7,0H246
		c3.8-0.1,7.5,1.2,10.3,3.6c1.3,1.3,2.4,2.8,3.2,4.5C260.5,212.5,261.1,215.1,261,217.7L261,217.7z M249.3,217.7L249.3,217.7
		c0.2-2-1.3-3.8-3.4-3.9c-0.2,0-0.4,0-0.6,0h-9.7v8h9.2c2.3,0.1,4.3-1.6,4.4-3.9C249.3,217.8,249.3,217.7,249.3,217.7z"/>
	<path class="st7" d="M312.8,227.4c-0.1,6-2.2,11.7-6.1,16.3c-7.8,8.9-21.3,9.8-30.2,2c-0.6-0.5-1.2-1.1-1.7-1.7
		c-4-4.6-6.2-10.5-6.3-16.6v-22.5c-0.2-1.4,0.8-2.7,2.2-2.9c0.2,0,0.5,0,0.7,0h6.4c1.4-0.2,2.7,0.8,2.9,2.2c0,0.2,0,0.5,0,0.7v22.5
		c-0.1,3,1,6,2.9,8.3c3.1,3.9,8.8,4.5,12.6,1.4c0.5-0.4,1-0.9,1.4-1.4c1.9-2.3,3-5.3,2.9-8.3v-22.5c-0.2-1.4,0.8-2.7,2.2-2.9
		c0.2,0,0.5,0,0.7,0h6.5c1.4-0.2,2.7,0.8,2.9,2.2c0,0.2,0,0.5,0,0.7V227.4z"/>
	<path class="st8" d="M295.3,112.5c2.2,0,4.3,0.6,6.2,1.6c2,1.1,3.6,2.7,4.7,4.7c1.1,1.9,1.7,4.1,1.7,6.4c0,2.2-0.6,4.4-1.7,6.3
		c-1.1,2-2.7,3.6-4.7,4.7c-3.9,2.2-8.7,2.2-12.6,0c-2-1.1-3.6-2.7-4.7-4.7c-2.3-3.9-2.2-8.8,0-12.7c1.1-2,2.7-3.6,4.8-4.7
		C291,113.1,293.1,112.5,295.3,112.5L295.3,112.5z M295.3,114.6c-1.8,0-3.6,0.5-5.2,1.4c-1.7,0.9-3,2.3-4,3.9
		c-1.9,3.3-1.9,7.3,0,10.6c0.9,1.7,2.3,3,3.9,3.9c3.3,1.9,7.3,1.9,10.5,0c1.7-0.9,3-2.3,3.9-3.9c1.9-3.3,1.9-7.3,0-10.6
		c-0.9-1.7-2.3-3-4-3.9C298.9,115.1,297.2,114.6,295.3,114.6z M289.8,132.2v-13.6h4.7c1.2-0.1,2.3,0.1,3.5,0.4
		c0.7,0.2,1.3,0.7,1.7,1.3c0.4,0.6,0.6,1.3,0.6,2c0,1-0.4,1.9-1.1,2.6c-0.8,0.8-1.8,1.2-2.8,1.2c0.4,0.2,0.8,0.4,1.2,0.7
		c0.8,0.8,1.4,1.7,2,2.7l1.7,2.7h-2.7l-1.2-2.1c-0.6-1.2-1.4-2.3-2.3-3.2c-0.5-0.3-1.1-0.5-1.8-0.5H292v5.8H289.8L289.8,132.2z
		 M292,124.6h2.7c0.9,0.1,1.8-0.1,2.6-0.6c0.5-0.4,0.7-0.9,0.7-1.5c0-0.4-0.1-0.8-0.3-1.1c-0.2-0.3-0.6-0.6-0.9-0.7
		c-0.7-0.2-1.5-0.3-2.2-0.2H292V124.6L292,124.6z"/>
</g>
</svg>
